<svg id="Layer_1" data-name="Layer 1" xmlns="http://www.w3.org/2000/svg" xmlns:xlink="http://www.w3.org/1999/xlink" viewBox="0 0 1024 1024"><defs><style>.cls-1{fill:none;}.cls-2{clip-path:url(#clip-path);}.cls-3{fill:#4cae4a;}</style><clipPath id="clip-path"><rect class="cls-1" x="161.19" width="701.75" height="1024"/></clipPath></defs><title>1024x1024 greenSVG</title><g class="cls-2"><g class="cls-2"><path class="cls-3" d="M574.55,894.18c45.08-14.5,136.57-56.56,163.58-163.95,3.28-13.06-5.85-26.07-19.17-28a23.18,23.18,0,0,0-25.67,17.5C671,806.8,596.44,839.67,560.69,850.64a22.85,22.85,0,1,0,13.86,43.54"/></g><g class="cls-2"><path class="cls-3" d="M511.64,591.51A23.52,23.52,0,0,0,535.16,568V177a23.52,23.52,0,1,0-47,0V568a23.52,23.52,0,0,0,23.52,23.52"/></g><g class="cls-2"><path class="cls-3" d="M266.54,591.51A23.52,23.52,0,0,0,290.06,568V177a23.52,23.52,0,1,0-47,0V568a23.52,23.52,0,0,0,23.52,23.52"/></g><g class="cls-2"><path class="cls-3" d="M430.21,591.51A23.52,23.52,0,0,0,453.73,568V111.51a23.52,23.52,0,0,0-47,0V568a23.52,23.52,0,0,0,23.52,23.52"/></g><g class="cls-2"><path class="cls-3" d="M348.38,591.51A23.52,23.52,0,0,0,371.89,568V23.55a23.52,23.52,0,1,0-47,0V568a23.52,23.52,0,0,0,23.52,23.52"/></g><g class="cls-2"><path class="cls-3" d="M512,1024c193,0,350.05-157,350.05-350C862.09,501.18,738,355.49,567.73,328l0,48.08a301.46,301.46,0,0,1,247.3,297.85c0,167.08-135.94,303-303,303S208.23,838.69,208.23,671.61V331.52a23.52,23.52,0,0,0-47,0V679c1.33,92.28,39.24,178.9,105.11,243.95S419.55,1024,512,1024"/></g></g></svg>