<svg id="Layer_1" data-name="Layer 1" xmlns="http://www.w3.org/2000/svg" viewBox="0 0 1024 1024"><defs><style>.cls-1{font-size:3px;fill:#231f20;font-family:MyriadPro-Regular, Myriad Pro;}</style></defs><title>1024x1024 blackSVG</title><path d="M574.2,892C619,877.61,710,835.79,736.86,729c3.26-13-5.82-25.92-19.07-27.85a23.05,23.05,0,0,0-25.52,17.4C670.12,805.13,596,837.82,560.42,848.73A22.72,22.72,0,1,0,574.2,892Z"/><path d="M511.64,591.06A23.39,23.39,0,0,0,535,567.68V178.89a23.39,23.39,0,1,0-46.77,0V567.68A23.38,23.38,0,0,0,511.64,591.06Z"/><path d="M267.93,591.06a23.38,23.38,0,0,0,23.38-23.38V178.89a23.39,23.39,0,1,0-46.77,0V567.68A23.39,23.39,0,0,0,267.93,591.06Z"/><path d="M430.67,591.06a23.39,23.39,0,0,0,23.39-23.38V113.76a23.39,23.39,0,0,0-46.78,0V567.68A23.39,23.39,0,0,0,430.67,591.06Z"/><path d="M349.3,591.06a23.38,23.38,0,0,0,23.38-23.38V26.3a23.39,23.39,0,1,0-46.77,0V567.68A23.39,23.39,0,0,0,349.3,591.06Z"/><path d="M567.42,329l0,47.81A299.76,299.76,0,0,1,813.36,673c0,166.15-135.17,301.33-301.32,301.33s-302.1-137.49-302.1-303.63V332.54a23.39,23.39,0,0,0-46.77,0V678c1.31,91.76,39,177.89,104.51,242.58S420.07,1021.09,512,1021.09C704,1021.09,860.12,864.94,860.12,673,860.12,501.24,736.73,356.37,567.42,329Z"/><text class="cls-1" transform="translate(340 549.13)">24x24</text><text class="cls-1" transform="translate(339.83 645.55)">48x48</text></svg>