<svg id="Layer_1" data-name="Layer 1" xmlns="http://www.w3.org/2000/svg" viewBox="0 0 128 128"><defs><style>.cls-1{fill:#fff;}</style></defs><title>128x128 whiteSVG</title><path class="cls-1" d="M71.88,111.77C77.51,110,89,104.7,92.33,91.28A2.88,2.88,0,0,0,86.72,90c-2.78,10.89-12.11,15-16.57,16.37a2.85,2.85,0,1,0,1.73,5.44Z"/><path class="cls-1" d="M67,71V22.12a2.94,2.94,0,0,0-5.88,0V71A2.94,2.94,0,0,0,67,71Z"/><path class="cls-1" d="M36.32,71V22.12a2.94,2.94,0,0,0-5.88,0V71a2.94,2.94,0,1,0,5.88,0Z"/><path class="cls-1" d="M56.78,71V13.94a2.94,2.94,0,1,0-5.88,0V71a2.94,2.94,0,1,0,5.88,0Z"/><path class="cls-1" d="M46.55,71V2.94a2.94,2.94,0,1,0-5.88,0V71a2.94,2.94,0,0,0,5.88,0Z"/><path class="cls-1" d="M71,41v6a37.88,37.88,0,0,1-7,75.11A38.25,38.25,0,0,1,26.09,84V41.44a2.94,2.94,0,0,0-5.88,0V84.87A43.81,43.81,0,1,0,71,41Z"/></svg>