<svg id="Layer_1" data-name="Layer 1" xmlns="http://www.w3.org/2000/svg" xmlns:xlink="http://www.w3.org/1999/xlink" viewBox="0 0 128 128"><defs><style>.cls-1{fill:none;}.cls-2{clip-path:url(#clip-path);}.cls-3{fill:#4cae4a;}</style><clipPath id="clip-path"><rect class="cls-1" x="18.83" y="-2.02" width="90.48" height="132.03"/></clipPath></defs><title>128x128 greenSVG</title><g class="cls-2"><g class="cls-2"><path class="cls-3" d="M72.13,113.28c5.81-1.87,17.6-7.3,21.09-21.14a3,3,0,0,0-5.79-1.36C84.56,102,75,106.25,70.34,107.66a2.95,2.95,0,1,0,1.79,5.62"/></g><g class="cls-2"><path class="cls-3" d="M64,74.25a3,3,0,0,0,3-3V20.81a3,3,0,1,0-6.07,0V71.22a3,3,0,0,0,3,3"/></g><g class="cls-2"><path class="cls-3" d="M32.41,74.25a3,3,0,0,0,3-3V20.81a3,3,0,1,0-6.06,0V71.22a3,3,0,0,0,3,3"/></g><g class="cls-2"><path class="cls-3" d="M53.51,74.25a3,3,0,0,0,3-3V12.36a3,3,0,0,0-6.07,0V71.22a3,3,0,0,0,3,3"/></g><g class="cls-2"><path class="cls-3" d="M43,74.25a3,3,0,0,0,3-3V1a3,3,0,0,0-6.06,0v70.2a3,3,0,0,0,3,3"/></g><g class="cls-2"><path class="cls-3" d="M64.06,130a45.15,45.15,0,0,0,7.19-89.73v6.2A39.07,39.07,0,0,1,64.06,124,39.46,39.46,0,0,1,24.89,84.58V40.73a3,3,0,0,0-6.06,0v44.8A45.39,45.39,0,0,0,64.06,130"/></g></g></svg>