<svg id="Layer_1" data-name="Layer 1" xmlns="http://www.w3.org/2000/svg" xmlns:xlink="http://www.w3.org/1999/xlink" viewBox="0 0 16 16"><defs><style>.cls-1{fill:none;}.cls-2{clip-path:url(#clip-path);}.cls-3{fill:#4cae4a;}.cls-4{font-size:3px;fill:#231f20;font-family:MyriadPro-Regular, Myriad Pro;}</style><clipPath id="clip-path"><rect class="cls-1" x="2.58" width="10.97" height="16.01"/></clipPath></defs><title>16x16 greenSVG</title><g class="cls-2"><g class="cls-2"><path class="cls-3" d="M9.05,14a3.68,3.68,0,0,0,2.55-2.56.36.36,0,0,0-.3-.44.38.38,0,0,0-.4.28,2.94,2.94,0,0,1-2.07,2,.38.38,0,0,0-.25.4.36.36,0,0,0,.47.28"/></g><g class="cls-2"><path class="cls-3" d="M8.06,9.24a.36.36,0,0,0,.37-.36V2.76a.36.36,0,0,0-.37-.36.37.37,0,0,0-.37.36V8.88a.37.37,0,0,0,.37.36"/></g><g class="cls-2"><path class="cls-3" d="M4.23,9.24a.37.37,0,0,0,.37-.36V2.76a.37.37,0,0,0-.74,0V8.88a.37.37,0,0,0,.37.36"/></g><g class="cls-2"><path class="cls-3" d="M6.79,9.24a.37.37,0,0,0,.37-.36V1.74a.37.37,0,0,0-.74,0V8.88a.37.37,0,0,0,.37.36"/></g><g class="cls-2"><path class="cls-3" d="M5.51,9.24a.37.37,0,0,0,.37-.36V.36a.37.37,0,0,0-.74,0V8.88a.37.37,0,0,0,.37.36"/></g><g class="cls-2"><path class="cls-3" d="M8.07,16A5.48,5.48,0,0,0,8.94,5.12v.76a4.73,4.73,0,0,1-.87,9.39A4.78,4.78,0,0,1,3.32,10.5V5.18a.37.37,0,1,0-.74,0v5.43A5.52,5.52,0,0,0,8.07,16"/></g></g><text class="cls-4" transform="translate(-0.44 -0.65)">16X16</text></svg>