<svg id="Layer_1" data-name="Layer 1" xmlns="http://www.w3.org/2000/svg" viewBox="0 0 16 16"><defs><style>.cls-1{fill:#fff;}.cls-2{fill:#4cae4a;}</style></defs><title>16x16 White BGSVG</title><circle class="cls-1" cx="8" cy="8" r="8"/><path class="cls-2" d="M8.92,13.2A3.22,3.22,0,0,0,11.15,11a.32.32,0,0,0-.27-.38.31.31,0,0,0-.34.24,2.59,2.59,0,0,1-1.81,1.78.31.31,0,0,0-.21.35A.3.3,0,0,0,8.92,13.2Z"/><path class="cls-2" d="M7.74,3.44V8.76a.32.32,0,0,0,.32.32.32.32,0,0,0,.32-.32V3.44a.32.32,0,0,0-.32-.32A.32.32,0,0,0,7.74,3.44Z"/><path class="cls-2" d="M4.4,3.44V8.76a.32.32,0,0,0,.32.32A.32.32,0,0,0,5,8.76V3.44a.32.32,0,0,0-.32-.32A.32.32,0,0,0,4.4,3.44Z"/><path class="cls-2" d="M6.63,2.55V8.76A.32.32,0,0,0,7,9.08a.32.32,0,0,0,.32-.32V2.55A.32.32,0,0,0,7,2.23.32.32,0,0,0,6.63,2.55Z"/><path class="cls-2" d="M5.52,1.35V8.76a.32.32,0,0,0,.64,0V1.35a.32.32,0,1,0-.64,0Z"/><path class="cls-2" d="M8.07,15a4.77,4.77,0,0,0,.76-9.48v.66a4.13,4.13,0,0,1-.76,8.18,4.17,4.17,0,0,1-4.14-4.16V5.54a.32.32,0,1,0-.64,0v4.73A4.78,4.78,0,0,0,8.07,15Z"/></svg>