<svg id="Layer_1" data-name="Layer 1" xmlns="http://www.w3.org/2000/svg" viewBox="0 0 16 16"><defs><style>.cls-1{fill:#020202;}</style></defs><title>16x16 blackSVG</title><path class="cls-1" d="M9.05,14a3.68,3.68,0,0,0,2.55-2.56.36.36,0,0,0-.3-.44.38.38,0,0,0-.4.28,2.94,2.94,0,0,1-2.07,2,.38.38,0,0,0-.25.4A.36.36,0,0,0,9.05,14Z"/><path class="cls-1" d="M8.06,9.24a.36.36,0,0,0,.37-.36V2.76a.36.36,0,0,0-.37-.36.37.37,0,0,0-.37.36V8.88A.37.37,0,0,0,8.06,9.24Z"/><path class="cls-1" d="M4.23,9.24a.37.37,0,0,0,.37-.36V2.76a.37.37,0,0,0-.74,0V8.88A.37.37,0,0,0,4.23,9.24Z"/><path class="cls-1" d="M6.79,9.24a.37.37,0,0,0,.37-.36V1.74a.37.37,0,0,0-.74,0V8.88A.37.37,0,0,0,6.79,9.24Z"/><path class="cls-1" d="M5.51,9.24a.37.37,0,0,0,.37-.36V.36a.37.37,0,0,0-.74,0V8.88A.37.37,0,0,0,5.51,9.24Z"/><path class="cls-1" d="M8.94,5.12v.76a4.73,4.73,0,0,1,3.87,4.65,4.75,4.75,0,1,1-9.49,0V5.18a.37.37,0,1,0-.74,0v5.43A5.48,5.48,0,1,0,8.94,5.12Z"/></svg>