<svg id="Layer_1" data-name="Layer 1" xmlns="http://www.w3.org/2000/svg" viewBox="0 0 16 16"><defs><style>.cls-1{fill:#fff;}</style></defs><title>16x16 WhiteSVG</title><path class="cls-1" d="M9.05,14a3.68,3.68,0,0,0,2.55-2.56.36.36,0,0,0-.3-.44.38.38,0,0,0-.4.28,2.94,2.94,0,0,1-2.07,2,.38.38,0,0,0-.25.4A.36.36,0,0,0,9.05,14Z"/><path class="cls-1" d="M7.69,2.76V8.88a.37.37,0,0,0,.74,0V2.76a.37.37,0,0,0-.74,0Z"/><path class="cls-1" d="M3.86,2.76V8.88a.37.37,0,0,0,.74,0V2.76a.37.37,0,0,0-.74,0Z"/><path class="cls-1" d="M6.42,1.74V8.88a.37.37,0,0,0,.74,0V1.74a.37.37,0,0,0-.74,0Z"/><path class="cls-1" d="M5.14.36V8.88a.37.37,0,0,0,.74,0V.36a.37.37,0,0,0-.74,0Z"/><path class="cls-1" d="M8.07,16A5.48,5.48,0,0,0,8.94,5.12v.76a4.73,4.73,0,0,1-.87,9.39,4.79,4.79,0,0,1-4.75-4.78V5.18a.37.37,0,1,0-.74,0v5.43A5.52,5.52,0,0,0,8.07,16Z"/></svg>