<svg id="Layer_1" data-name="Layer 1" xmlns="http://www.w3.org/2000/svg" viewBox="0 0 28 28"><defs><style>.cls-1{fill:#fff;}</style></defs><title>24x24 whiteSVG</title><path class="cls-1" d="M16.33,24.53A6.5,6.5,0,0,0,20.81,20a.63.63,0,0,0-.52-.77.64.64,0,0,0-.71.48A5.17,5.17,0,0,1,16,23.33a.65.65,0,0,0-.44.7A.64.64,0,0,0,16.33,24.53Z"/><path class="cls-1" d="M14.6,16.22a.65.65,0,0,0,.65-.64V4.85a.65.65,0,0,0-1.3,0V15.58A.65.65,0,0,0,14.6,16.22Z"/><path class="cls-1" d="M7.87,16.22a.65.65,0,0,0,.65-.64V4.85a.65.65,0,1,0-1.29,0V15.58A.64.64,0,0,0,7.87,16.22Z"/><path class="cls-1" d="M12.37,16.22a.64.64,0,0,0,.64-.64V3.05a.65.65,0,0,0-1.29,0V15.58A.65.65,0,0,0,12.37,16.22Z"/><path class="cls-1" d="M10.12,16.22a.65.65,0,0,0,.65-.64V.64a.65.65,0,0,0-1.3,0V15.58A.65.65,0,0,0,10.12,16.22Z"/><path class="cls-1" d="M16.14,9v1.32a8.32,8.32,0,1,1-9.87,8.11V9.09a.64.64,0,0,0-.64-.65A.65.65,0,0,0,5,9.09v9.53A9.62,9.62,0,1,0,16.14,9Z"/></svg>