<svg id="Layer_1" data-name="Layer 1" xmlns="http://www.w3.org/2000/svg" viewBox="0 0 256 256"><title>256x256 blackSVG</title><path d="M143.69,223.54c11.27-3.62,34.14-14.13,40.89-41a5.73,5.73,0,0,0-4.79-7,5.79,5.79,0,0,0-6.42,4.37c-5.56,21.77-24.21,30-33.15,32.73a5.71,5.71,0,1,0,3.47,10.88Z"/><path d="M133.84,142V44.25a5.88,5.88,0,0,0-11.76,0V142a5.88,5.88,0,0,0,11.76,0Z"/><path d="M72.57,142V44.25a5.88,5.88,0,0,0-11.76,0V142a5.88,5.88,0,0,0,11.76,0Z"/><path d="M113.48,142V27.88a5.88,5.88,0,0,0-11.76,0V142a5.88,5.88,0,0,0,11.76,0Z"/><path d="M93,142V5.89a5.88,5.88,0,1,0-11.75,0V142A5.88,5.88,0,1,0,93,142Z"/><path d="M142,82V94a75.76,75.76,0,0,1-13.93,150.22c-41.77,0-75.95-34.57-75.95-76.34v-85a5.88,5.88,0,0,0-11.76,0v86.86A87.61,87.61,0,1,0,142,82Z"/></svg>