<svg id="Layer_1" data-name="Layer 1" xmlns="http://www.w3.org/2000/svg" xmlns:xlink="http://www.w3.org/1999/xlink" viewBox="0 0 256 256"><defs><style>.cls-1{fill:none;}.cls-2{clip-path:url(#clip-path);}.cls-3{fill:#4cae4a;}</style><clipPath id="clip-path"><rect class="cls-1" x="40.35" width="175.44" height="256"/></clipPath></defs><title>256x256 greenSVG</title><g class="cls-2"><g class="cls-2"><path class="cls-3" d="M143.69,223.54c11.27-3.62,34.14-14.13,40.89-41a5.76,5.76,0,0,0-11.21-2.63c-5.56,21.77-24.21,30-33.15,32.73a5.71,5.71,0,1,0,3.47,10.88"/></g><g class="cls-2"><path class="cls-3" d="M128,147.88a5.88,5.88,0,0,0,5.88-5.88V44.25a5.88,5.88,0,0,0-11.76,0V142a5.88,5.88,0,0,0,5.88,5.88"/></g><g class="cls-2"><path class="cls-3" d="M66.69,147.88A5.88,5.88,0,0,0,72.57,142V44.25a5.88,5.88,0,0,0-11.76,0V142a5.88,5.88,0,0,0,5.88,5.88"/></g><g class="cls-2"><path class="cls-3" d="M107.6,147.88a5.88,5.88,0,0,0,5.88-5.88V27.88a5.88,5.88,0,0,0-11.76,0V142a5.88,5.88,0,0,0,5.88,5.88"/></g><g class="cls-2"><path class="cls-3" d="M87.15,147.88A5.87,5.87,0,0,0,93,142V5.89a5.88,5.88,0,1,0-11.75,0V142a5.88,5.88,0,0,0,5.88,5.88"/></g><g class="cls-2"><path class="cls-3" d="M128.06,256A87.56,87.56,0,0,0,142,82V94a75.76,75.76,0,0,1-13.93,150.22c-41.77,0-75.95-34.57-75.95-76.34v-85a5.88,5.88,0,0,0-11.76,0v86.86A88,88,0,0,0,128.06,256"/></g></g></svg>