<svg id="Layer_1" data-name="Layer 1" xmlns="http://www.w3.org/2000/svg" viewBox="0 0 32 32"><title>32x32 blackSVG</title><path d="M18,28a7.42,7.42,0,0,0,5.12-5.13.72.72,0,0,0-.6-.87.73.73,0,0,0-.81.54,5.9,5.9,0,0,1-4.14,4.1.7.7,0,0,0-.49.8A.72.72,0,0,0,18,28Z"/><path d="M15.32,5.53V17.75a.74.74,0,1,0,1.47,0V5.53a.74.74,0,1,0-1.47,0Z"/><path d="M7.66,5.53V17.75a.74.74,0,1,0,1.47,0V5.53a.74.74,0,1,0-1.47,0Z"/><path d="M12.77,3.48V17.75a.74.74,0,0,0,.74.74.73.73,0,0,0,.73-.74V3.48a.73.73,0,0,0-.73-.74A.74.74,0,0,0,12.77,3.48Z"/><path d="M10.22.73v17a.73.73,0,0,0,.73.74.74.74,0,0,0,.74-.74V.73A.74.74,0,0,0,11,0,.73.73,0,0,0,10.22.73Z"/><path d="M16.07,32a11,11,0,0,0,1.74-21.76v1.5a9.48,9.48,0,0,1-1.74,18.79A9.57,9.57,0,0,1,6.57,21V10.36a.74.74,0,1,0-1.47,0V21.22A11,11,0,0,0,16.07,32Z"/></svg>