<svg id="Layer_1" data-name="Layer 1" xmlns="http://www.w3.org/2000/svg" viewBox="0 0 32 32"><defs><style>.cls-1{fill:#fff;}</style></defs><title>32x32 whiteSVG</title><path class="cls-1" d="M18,28a7.42,7.42,0,0,0,5.12-5.13.72.72,0,0,0-.6-.87.73.73,0,0,0-.81.54,5.9,5.9,0,0,1-4.14,4.1.7.7,0,0,0-.49.8A.72.72,0,0,0,18,28Z"/><path class="cls-1" d="M16.79,17.75V5.53a.74.74,0,1,0-1.47,0V17.75a.74.74,0,1,0,1.47,0Z"/><path class="cls-1" d="M9.13,17.75V5.53a.74.74,0,1,0-1.47,0V17.75a.74.74,0,1,0,1.47,0Z"/><path class="cls-1" d="M14.24,17.75V3.48a.73.73,0,0,0-.73-.74.74.74,0,0,0-.74.74V17.75a.74.74,0,0,0,.74.74A.73.73,0,0,0,14.24,17.75Z"/><path class="cls-1" d="M11.69,17.75V.73A.74.74,0,0,0,11,0a.73.73,0,0,0-.73.74v17a.73.73,0,0,0,.73.74A.74.74,0,0,0,11.69,17.75Z"/><path class="cls-1" d="M17.81,10.25v1.5a9.48,9.48,0,0,1-1.74,18.79A9.57,9.57,0,0,1,6.57,21V10.36a.74.74,0,1,0-1.47,0V21.22a11,11,0,1,0,12.71-11Z"/></svg>