<svg id="Layer_1" data-name="Layer 1" xmlns="http://www.w3.org/2000/svg" xmlns:xlink="http://www.w3.org/1999/xlink" viewBox="0 0 32 32"><defs><style>.cls-1{fill:none;}.cls-2{clip-path:url(#clip-path);}.cls-3{fill:#4cae4a;}</style><clipPath id="clip-path"><rect class="cls-1" x="5.1" y="-0.01" width="21.94" height="32.02"/></clipPath></defs><title>32x32 greenSVG</title><g class="cls-2"><g class="cls-2"><path class="cls-3" d="M18,28a7.42,7.42,0,0,0,5.12-5.13.72.72,0,0,0-.6-.87.73.73,0,0,0-.81.54,5.9,5.9,0,0,1-4.14,4.1.7.7,0,0,0-.49.79A.72.72,0,0,0,18,28"/></g><g class="cls-2"><path class="cls-3" d="M16.06,18.49a.74.74,0,0,0,.73-.74V5.53a.74.74,0,1,0-1.47,0V17.75a.74.74,0,0,0,.74.74"/></g><g class="cls-2"><path class="cls-3" d="M8.39,18.49a.74.74,0,0,0,.74-.74V5.53a.74.74,0,1,0-1.47,0V17.75a.74.74,0,0,0,.73.74"/></g><g class="cls-2"><path class="cls-3" d="M13.51,18.49a.73.73,0,0,0,.73-.74V3.48a.73.73,0,0,0-.73-.74.74.74,0,0,0-.74.74V17.75a.74.74,0,0,0,.74.74"/></g><g class="cls-2"><path class="cls-3" d="M11,18.49a.74.74,0,0,0,.74-.74V.73A.74.74,0,0,0,11,0a.73.73,0,0,0-.73.74v17a.73.73,0,0,0,.73.74"/></g><g class="cls-2"><path class="cls-3" d="M16.07,32a11,11,0,0,0,1.74-21.76v1.5a9.48,9.48,0,0,1-1.74,18.79A9.57,9.57,0,0,1,6.57,21V10.36a.74.74,0,1,0-1.47,0V21.22A11,11,0,0,0,16.07,32"/></g></g></svg>