<svg id="Layer_1" data-name="Layer 1" xmlns="http://www.w3.org/2000/svg" xmlns:xlink="http://www.w3.org/1999/xlink" viewBox="0 0 48 48"><defs><style>.cls-1{fill:none;}.cls-2{clip-path:url(#clip-path);}.cls-3{fill:#4cae4a;}</style><clipPath id="clip-path"><rect class="cls-1" x="7.72" y="0.14" width="32.7" height="47.72"/></clipPath></defs><title>48x48 greenSVG</title><g class="cls-2"><g class="cls-2"><path class="cls-3" d="M27,41.81c2.1-.68,6.36-2.64,7.62-7.64a1.07,1.07,0,0,0-.89-1.31,1.09,1.09,0,0,0-1.2.82,8.77,8.77,0,0,1-6.18,6.1,1.07,1.07,0,1,0,.65,2"/></g><g class="cls-2"><path class="cls-3" d="M24.05,27.71a1.1,1.1,0,0,0,1.09-1.1V8.39a1.1,1.1,0,1,0-2.19,0V26.61a1.1,1.1,0,0,0,1.1,1.1"/></g><g class="cls-2"><path class="cls-3" d="M12.63,27.71a1.1,1.1,0,0,0,1.09-1.1V8.39a1.1,1.1,0,1,0-2.19,0V26.61a1.1,1.1,0,0,0,1.1,1.1"/></g><g class="cls-2"><path class="cls-3" d="M20.25,27.71a1.1,1.1,0,0,0,1.1-1.1V5.34a1.1,1.1,0,1,0-2.19,0V26.61a1.1,1.1,0,0,0,1.09,1.1"/></g><g class="cls-2"><path class="cls-3" d="M16.44,27.71a1.1,1.1,0,0,0,1.1-1.1V1.24a1.1,1.1,0,0,0-2.2,0V26.61a1.11,1.11,0,0,0,1.1,1.1"/></g><g class="cls-2"><path class="cls-3" d="M24.07,47.86a16.32,16.32,0,0,0,2.59-32.43v2.24a14.12,14.12,0,0,1-2.59,28A14.27,14.27,0,0,1,9.91,31.44V15.59a1.1,1.1,0,1,0-2.19,0V31.78A16.41,16.41,0,0,0,24.07,47.86"/></g></g></svg>