<svg id="Layer_1" data-name="Layer 1" xmlns="http://www.w3.org/2000/svg" viewBox="0 0 48 48"><defs><style>.cls-1{fill:#fff;}</style></defs><title>48x48 whiteSVG</title><path class="cls-1" d="M27.08,42.39c2.16-.7,6.57-2.72,7.87-7.89A1.11,1.11,0,0,0,32.79,34a9.07,9.07,0,0,1-6.38,6.3,1.1,1.1,0,1,0,.67,2.1Z"/><path class="cls-1" d="M25.18,26.69V7.88a1.13,1.13,0,0,0-2.26,0V26.69a1.13,1.13,0,1,0,2.26,0Z"/><path class="cls-1" d="M13.39,26.69V7.88a1.14,1.14,0,0,0-2.27,0V26.69a1.14,1.14,0,1,0,2.27,0Z"/><path class="cls-1" d="M21.26,26.69v-22a1.13,1.13,0,1,0-2.26,0v22a1.13,1.13,0,1,0,2.26,0Z"/><path class="cls-1" d="M17.32,26.69V.5A1.12,1.12,0,0,0,16.19-.63,1.13,1.13,0,0,0,15.06.5V26.69a1.13,1.13,0,1,0,2.26,0Z"/><path class="cls-1" d="M26.75,15.15v2.31a14.58,14.58,0,0,1-2.68,28.91A14.72,14.72,0,0,1,9.45,31.68V15.32a1.13,1.13,0,1,0-2.26,0V32A16.86,16.86,0,1,0,26.75,15.15Z"/></svg>