<svg id="Layer_1" data-name="Layer 1" xmlns="http://www.w3.org/2000/svg" viewBox="0 0 48 48"><title>48x48 blackSVG</title><path d="M27,41.92c2.11-.68,6.4-2.65,7.67-7.69a1.07,1.07,0,0,0-.9-1.31,1.09,1.09,0,0,0-1.2.82,8.84,8.84,0,0,1-6.22,6.14,1.07,1.07,0,1,0,.65,2Z"/><path d="M23,8.29V26.63a1.1,1.1,0,1,0,2.2,0V8.29a1.1,1.1,0,1,0-2.2,0Z"/><path d="M11.45,8.29V26.63a1.11,1.11,0,0,0,2.21,0V8.29a1.11,1.11,0,0,0-2.21,0Z"/><path d="M19.13,5.22V26.63a1.1,1.1,0,0,0,2.2,0V5.22a1.1,1.1,0,1,0-2.2,0Z"/><path d="M15.29,1.09V26.63a1.1,1.1,0,0,0,2.2,0V1.09a1.1,1.1,0,0,0-2.2,0Z"/><path d="M24.07,48a16.43,16.43,0,0,0,2.61-32.64v2.26A14.21,14.21,0,1,1,9.82,31.49V15.54a1.11,1.11,0,1,0-2.21,0V31.83A16.51,16.51,0,0,0,24.07,48Z"/></svg>