<svg id="Layer_1" data-name="Layer 1" xmlns="http://www.w3.org/2000/svg" viewBox="0 0 512 512"><defs><style>.cls-1{fill:#fff;}</style></defs><title>512x512 whiteSVG</title><path class="cls-1" d="M287.46,448c22.65-7.28,68.62-28.42,82.19-82.37a11.57,11.57,0,0,0-22.53-5.29c-11.19,43.75-48.66,60.27-66.62,65.78a11.48,11.48,0,1,0,7,21.88Z"/><path class="cls-1" d="M255.85,296a11.82,11.82,0,0,0,11.82-11.82V87.69a11.82,11.82,0,1,0-23.63,0V284.13A11.82,11.82,0,0,0,255.85,296Z"/><path class="cls-1" d="M132.71,296a11.82,11.82,0,0,0,11.82-11.82V87.69a11.82,11.82,0,1,0-23.64,0V284.13A11.82,11.82,0,0,0,132.71,296Z"/><path class="cls-1" d="M214.94,296a11.82,11.82,0,0,0,11.82-11.82V54.78a11.82,11.82,0,0,0-23.64,0V284.13A11.82,11.82,0,0,0,214.94,296Z"/><path class="cls-1" d="M173.82,296a11.82,11.82,0,0,0,11.82-11.82V10.59a11.82,11.82,0,1,0-23.63,0V284.13A11.82,11.82,0,0,0,173.82,296Z"/><path class="cls-1" d="M284,163.55l0,24.16A151.48,151.48,0,0,1,408.31,337.36c0,83.94-68.3,152.25-152.26,152.25S103.41,420.14,103.41,336.19V165.32a11.82,11.82,0,0,0-23.63,0V339.89c.66,46.37,19.71,89.89,52.81,122.57a174.68,174.68,0,0,0,123.46,50.77c97,0,175.88-78.9,175.88-175.87A175.47,175.47,0,0,0,284,163.55Z"/></svg>