<svg id="Layer_1" data-name="Layer 1" xmlns="http://www.w3.org/2000/svg" viewBox="0 0 512 512"><title>512x512 blackSVG</title><path d="M287.12,445.9c22.4-7.2,67.85-28.1,81.28-81.46a11.44,11.44,0,0,0-22.28-5.23c-11.07,43.27-48.13,59.61-65.89,65.06a11.35,11.35,0,1,0,6.89,21.63Z"/><path d="M267.54,283.82V89.54a11.69,11.69,0,1,0-23.37,0V283.82a11.69,11.69,0,1,0,23.37,0Z"/><path d="M145.75,283.82V89.54a11.69,11.69,0,1,0-23.37,0V283.82a11.69,11.69,0,1,0,23.37,0Z"/><path d="M227.08,283.82V57a11.69,11.69,0,1,0-23.37,0V283.82a11.69,11.69,0,1,0,23.37,0Z"/><path d="M186.42,283.82V13.29a11.69,11.69,0,1,0-23.38,0V283.82a11.69,11.69,0,0,0,23.38,0Z"/><path d="M283.73,164.57l0,23.89a149.81,149.81,0,0,1,122.88,148c0,83-67.55,150.58-150.58,150.58s-151-68.71-151-151.73v-169a11.69,11.69,0,0,0-23.37,0V339c.66,45.85,19.5,88.89,52.23,121.22a172.76,172.76,0,0,0,122.1,50.21C352,510.4,430,432.37,430,336.46A173.53,173.53,0,0,0,283.73,164.57Z"/></svg>