<svg id="Layer_1" data-name="Layer 1" xmlns="http://www.w3.org/2000/svg" xmlns:xlink="http://www.w3.org/1999/xlink" viewBox="0 0 512 512"><defs><style>.cls-1{fill:none;}.cls-2{clip-path:url(#clip-path);}.cls-3{fill:#4cae4a;}</style><clipPath id="clip-path"><rect class="cls-1" x="80.63" width="350.88" height="512"/></clipPath></defs><title>512x512 greenSVG</title><g class="cls-2"><g class="cls-2"><path class="cls-3" d="M287.31,447.09c22.54-7.25,68.28-28.28,81.79-82a11.51,11.51,0,0,0-22.42-5.25c-11.14,43.54-48.43,60-66.3,65.46a11.42,11.42,0,1,0,6.93,21.77"/></g><g class="cls-2"><path class="cls-3" d="M255.86,295.76A11.77,11.77,0,0,0,267.62,284V88.5a11.76,11.76,0,1,0-23.52,0V284a11.76,11.76,0,0,0,11.76,11.76"/></g><g class="cls-2"><path class="cls-3" d="M133.31,295.76A11.76,11.76,0,0,0,145.06,284V88.5a11.76,11.76,0,1,0-23.51,0V284a11.76,11.76,0,0,0,11.76,11.76"/></g><g class="cls-2"><path class="cls-3" d="M215.14,295.76A11.77,11.77,0,0,0,226.9,284V55.75a11.76,11.76,0,0,0-23.52,0V284a11.76,11.76,0,0,0,11.76,11.76"/></g><g class="cls-2"><path class="cls-3" d="M174.22,295.76A11.76,11.76,0,0,0,186,284V11.77a11.76,11.76,0,1,0-23.52,0V284a11.77,11.77,0,0,0,11.76,11.76"/></g><g class="cls-2"><path class="cls-3" d="M256.05,512c96.51,0,175-78.52,175-175A174.62,174.62,0,0,0,283.9,164l0,24A150.75,150.75,0,0,1,407.57,337c0,83.54-68,151.52-151.52,151.52s-151.9-69.13-151.9-152.68v-170a11.76,11.76,0,0,0-23.52,0V339.49c.66,46.14,19.62,89.45,52.55,122A173.83,173.83,0,0,0,256.05,512"/></g></g></svg>