<svg id="Layer_1" data-name="Layer 1" xmlns="http://www.w3.org/2000/svg" viewBox="0 0 64 64"><defs><style>.cls-1{fill:#fff;}</style></defs><title>64x64 whiteSVG</title><path class="cls-1" d="M36,55.89c2.82-.91,8.54-3.54,10.23-10.25A1.44,1.44,0,0,0,43.39,45c-1.39,5.44-6,7.5-8.28,8.19a1.43,1.43,0,0,0-1,1.59A1.44,1.44,0,0,0,36,55.89Z"/><path class="cls-1" d="M33.51,35.5V11.06a1.47,1.47,0,1,0-2.94,0V35.5a1.47,1.47,0,0,0,2.94,0Z"/><path class="cls-1" d="M18.19,35.5V11.06a1.47,1.47,0,0,0-2.94,0V35.5a1.47,1.47,0,1,0,2.94,0Z"/><path class="cls-1" d="M28.42,35.5V7a1.47,1.47,0,0,0-2.94,0V35.5a1.47,1.47,0,0,0,2.94,0Z"/><path class="cls-1" d="M23.31,35.5v-34a1.47,1.47,0,1,0-2.94,0v34a1.47,1.47,0,0,0,2.94,0Z"/><path class="cls-1" d="M35.55,20.5v3a18.94,18.94,0,0,1-3.48,37.55A19.12,19.12,0,0,1,13.08,42V20.72a1.47,1.47,0,0,0-2.94,0V42.44A21.9,21.9,0,1,0,35.55,20.5Z"/></svg>