<svg id="Layer_1" data-name="Layer 1" xmlns="http://www.w3.org/2000/svg" xmlns:xlink="http://www.w3.org/1999/xlink" viewBox="0 0 64 64"><defs><style>.cls-1{fill:none;}.cls-2{clip-path:url(#clip-path);}.cls-3{fill:#4cae4a;}.cls-4{font-size:3px;fill:#231f20;font-family:MyriadPro-Regular, Myriad Pro;}</style><clipPath id="clip-path"><rect class="cls-1" x="10.14" width="43.86" height="64"/></clipPath></defs><title>64x64 greenSVG</title><g class="cls-2"><g class="cls-2"><path class="cls-3" d="M36,55.89c2.82-.91,8.54-3.54,10.23-10.25A1.44,1.44,0,0,0,43.4,45c-1.4,5.44-6.06,7.5-8.29,8.18A1.43,1.43,0,1,0,36,55.89"/></g><g class="cls-2"><path class="cls-3" d="M32,37a1.47,1.47,0,0,0,1.47-1.47V11.06a1.47,1.47,0,1,0-2.94,0V35.5A1.47,1.47,0,0,0,32,37"/></g><g class="cls-2"><path class="cls-3" d="M16.72,37a1.47,1.47,0,0,0,1.47-1.47V11.06a1.47,1.47,0,0,0-2.94,0V35.5A1.47,1.47,0,0,0,16.72,37"/></g><g class="cls-2"><path class="cls-3" d="M27,37a1.47,1.47,0,0,0,1.47-1.47V7a1.47,1.47,0,0,0-2.94,0V35.5A1.47,1.47,0,0,0,27,37"/></g><g class="cls-2"><path class="cls-3" d="M21.84,37a1.47,1.47,0,0,0,1.47-1.47v-34a1.47,1.47,0,1,0-2.94,0v34A1.47,1.47,0,0,0,21.84,37"/></g><g class="cls-2"><path class="cls-3" d="M32.07,64a21.89,21.89,0,0,0,3.48-43.5v3a18.94,18.94,0,0,1-3.48,37.55A19.12,19.12,0,0,1,13.08,42V20.72a1.47,1.47,0,0,0-2.94,0V42.44A22,22,0,0,0,32.07,64"/></g></g><text class="cls-4" transform="translate(2.2 -0.15)">64x64</text></svg>