<svg id="Layer_1" data-name="Layer 1" xmlns="http://www.w3.org/2000/svg" viewBox="0 0 96 96"><title>96x96 blackSVG</title><path d="M53.93,83.83c4.22-1.36,12.8-5.3,15.33-15.37a2.16,2.16,0,0,0-4.2-1C63,75.64,56,78.72,52.63,79.75a2.14,2.14,0,1,0,1.3,4.08Z"/><path d="M50.23,53.25V16.59a2.21,2.21,0,0,0-4.41,0V53.25a2.21,2.21,0,0,0,4.41,0Z"/><path d="M27.26,53.25V16.59a2.21,2.21,0,0,0-4.41,0V53.25a2.21,2.21,0,0,0,4.41,0Z"/><path d="M42.6,53.25V10.45a2.21,2.21,0,0,0-4.41,0v42.8a2.21,2.21,0,0,0,4.41,0Z"/><path d="M34.93,53.25v-51a2.21,2.21,0,1,0-4.41,0v51a2.21,2.21,0,0,0,4.41,0Z"/><path d="M53.29,30.75v4.51a28.41,28.41,0,0,1-5.22,56.33A28.69,28.69,0,0,1,19.58,63V31.08a2.21,2.21,0,0,0-4.41,0V63.65a32.86,32.86,0,1,0,38.12-32.9Z"/></svg>