<svg id="Layer_1" data-name="Layer 1" xmlns="http://www.w3.org/2000/svg" xmlns:xlink="http://www.w3.org/1999/xlink" viewBox="0 0 96 96"><defs><style>.cls-1{fill:none;}.cls-2{clip-path:url(#clip-path);}.cls-3{fill:#4cae4a;}</style><clipPath id="clip-path"><rect class="cls-1" x="15.17" width="65.79" height="96"/></clipPath></defs><title>96x96x greenSVG</title><g class="cls-2"><g class="cls-2"><path class="cls-3" d="M53.93,83.83c4.22-1.36,12.8-5.3,15.33-15.37a2.16,2.16,0,0,0-4.2-1C63,75.64,56,78.72,52.63,79.75a2.14,2.14,0,1,0,1.3,4.08"/></g><g class="cls-2"><path class="cls-3" d="M48,55.45a2.19,2.19,0,0,0,2.2-2.2V16.59a2.21,2.21,0,0,0-4.41,0V53.25A2.2,2.2,0,0,0,48,55.45"/></g><g class="cls-2"><path class="cls-3" d="M25.05,55.45a2.2,2.2,0,0,0,2.21-2.2V16.59a2.21,2.21,0,0,0-4.41,0V53.25a2.19,2.19,0,0,0,2.2,2.2"/></g><g class="cls-2"><path class="cls-3" d="M40.39,55.45a2.2,2.2,0,0,0,2.21-2.2V10.45a2.21,2.21,0,0,0-4.41,0v42.8a2.2,2.2,0,0,0,2.2,2.2"/></g><g class="cls-2"><path class="cls-3" d="M32.72,55.45a2.2,2.2,0,0,0,2.21-2.2v-51a2.21,2.21,0,1,0-4.41,0v51a2.19,2.19,0,0,0,2.2,2.2"/></g><g class="cls-2"><path class="cls-3" d="M48.07,96a32.84,32.84,0,0,0,5.22-65.25v4.51a28.41,28.41,0,0,1-5.22,56.33A28.69,28.69,0,0,1,19.58,63V31.08a2.21,2.21,0,0,0-4.41,0V63.65A33,33,0,0,0,48.07,96"/></g></g></svg>