<svg xmlns="http://www.w3.org/2000/svg" viewBox="0 0 32 32"><defs><style>.cls-1{fill:#fff;}</style></defs><title>H  32x32 WhiteSVG</title><g id="V"><path class="cls-1" d="M13.25,15.14a.44.44,0,0,0-.45.44v2.8a.45.45,0,0,0,.45.45.45.45,0,0,0,.45-.45v-2.8A.45.45,0,0,0,13.25,15.14Z"/><path class="cls-1" d="M17.5,15.15a.47.47,0,0,0-.42.3,1.77,1.77,0,0,0-.94-.26,1.82,1.82,0,1,0,.92,3.37v.32a1,1,0,0,1-1.72.65.43.43,0,0,0-.62-.05.44.44,0,0,0-.05.63,1.85,1.85,0,0,0,1.41.64A1.87,1.87,0,0,0,18,18.88V15.59A.45.45,0,0,0,17.5,15.15Zm-1.36,2.78a.93.93,0,1,1,.92-.93A.93.93,0,0,1,16.14,17.93Z"/><path class="cls-1" d="M20.52,15.15a2,2,0,0,0-1,.3V13.76a.44.44,0,0,0-.43-.45.45.45,0,0,0-.45.45v4.61a.45.45,0,0,0,.45.44.45.45,0,0,0,.42-.31,1.76,1.76,0,0,0,1,.32,1.84,1.84,0,0,0,0-3.67Zm0,2.79a1,1,0,1,1,.95-1A1,1,0,0,1,20.52,17.94Z"/><path class="cls-1" d="M10.36,15.15a2,2,0,0,0-1,.3V13.76a.44.44,0,1,0-.88,0v4.61a.44.44,0,0,0,.44.44.43.43,0,0,0,.42-.31,1.78,1.78,0,0,0,1,.32,1.84,1.84,0,1,0,0-3.67Zm0,2.79a1,1,0,1,1,0-1.91,1,1,0,1,1,0,1.91Z"/><path class="cls-1" d="M24.74,15.17A1.83,1.83,0,1,0,26.57,17,1.83,1.83,0,0,0,24.74,15.17Zm0,2.75a.93.93,0,0,1,0-1.86.93.93,0,0,1,0,1.86Z"/><path class="cls-1" d="M30.58,15.21a1.4,1.4,0,0,0-1,.4,1.46,1.46,0,0,0-1.67-.24.42.42,0,0,0-.34-.17.44.44,0,0,0-.43.44v2.78a.44.44,0,0,0,.87,0V16.59a.57.57,0,0,1,1.13,0v1.8a.43.43,0,1,0,.86,0v-1.8a.54.54,0,0,1,.58-.5.52.52,0,0,1,.55.5v1.8a.44.44,0,0,0,.44.44.43.43,0,0,0,.43-.44v-1.8A1.41,1.41,0,0,0,30.58,15.21Z"/><path class="cls-1" d="M28.56,19.92a.74.74,0,0,0-.77-.76.8.8,0,0,0,0,1.59.85.85,0,0,0,.61-.24.15.15,0,0,0,0-.21.18.18,0,0,0-.22,0,.51.51,0,0,1-.36.15.44.44,0,0,1-.47-.38h1.07A.16.16,0,0,0,28.56,19.92Zm-1.22-.09a.43.43,0,0,1,.45-.37.41.41,0,0,1,.44.37Z"/><path class="cls-1" d="M29.62,19.49a.57.57,0,0,1,.27.07.18.18,0,0,0,.24,0,.17.17,0,0,0,0-.23.82.82,0,0,0-.47-.14.8.8,0,1,0,0,1.59.75.75,0,0,0,.47-.14.16.16,0,0,0,0-.22.18.18,0,0,0-.24,0,.48.48,0,0,1-.27.08.47.47,0,0,1-.48-.47A.46.46,0,0,1,29.62,19.49Z"/><path class="cls-1" d="M31.2,19.16A.8.8,0,1,0,32,20,.77.77,0,0,0,31.2,19.16Zm0,1.27a.46.46,0,0,1-.46-.48.47.47,0,0,1,.93,0A.46.46,0,0,1,31.2,20.43Z"/><path class="cls-1" d="M4.42,19.36a2.56,2.56,0,0,0,1.75-1.75.25.25,0,0,0-.21-.3.24.24,0,0,0-.27.18,2,2,0,0,1-1.42,1.4.25.25,0,0,0,.15.47Z"/><path class="cls-1" d="M3.5,11.69v4.18a.25.25,0,1,0,.5,0V11.69a.25.25,0,0,0-.5,0Z"/><path class="cls-1" d="M.88,11.69v4.18a.25.25,0,0,0,.5,0V11.69a.25.25,0,0,0-.5,0Z"/><path class="cls-1" d="M2.63,11v4.88a.25.25,0,1,0,.5,0V11a.25.25,0,0,0-.5,0Z"/><path class="cls-1" d="M1.75,10.05v5.82a.26.26,0,0,0,.51,0V10.05a.26.26,0,0,0-.51,0Z"/><path class="cls-1" d="M3.75,20.74a3.74,3.74,0,0,0,.6-7.43v.51A3.24,3.24,0,1,1,.51,17V13.35a.26.26,0,0,0-.25-.26.26.26,0,0,0-.26.26v3.71a3.72,3.72,0,0,0,1.13,2.6A3.68,3.68,0,0,0,3.75,20.74Z"/></g></svg>