<svg xmlns="http://www.w3.org/2000/svg" xmlns:xlink="http://www.w3.org/1999/xlink" viewBox="0 0 1024 1024"><defs><style>.cls-1{fill:none;}.cls-2{fill:#4dae4a;}.cls-3{clip-path:url(#clip-path);}.cls-4{fill:#4cae4a;}</style><clipPath id="clip-path"><rect class="cls-1" x="0.03" y="336.02" width="239.99" height="350.19"/></clipPath></defs><title>H 1024x1024 GreenSVG</title><g id="V"><g id="_Group_" data-name="&lt;Group&gt;"><path id="_Path_" data-name="&lt;Path&gt;" class="cls-2" d="M424,506.69a14.34,14.34,0,0,0-14.64,14.17v89.67a14.41,14.41,0,0,0,28.81,0V520.86A14.22,14.22,0,0,0,424,506.69Z"/><path id="_Compound_Path_" data-name="&lt;Compound Path&gt;" class="cls-2" d="M559.93,507.15a14.56,14.56,0,0,0-13.48,9.76,56.4,56.4,0,0,0-30.19-8.59,58.08,58.08,0,1,0,29.5,108v10.22a31.23,31.23,0,0,1-31.36,31.36,30.77,30.77,0,0,1-23.7-10.68,13.86,13.86,0,0,0-20-1.4c-6.05,4.88-6.51,13.94-1.63,20a59.78,59.78,0,0,0,105-39.26V521.32A14.22,14.22,0,0,0,559.93,507.15Zm-43.67,89a29.74,29.74,0,1,1,29.5-29.74A29.79,29.79,0,0,1,516.26,596.13Z"/><path id="_Compound_Path_2" data-name="&lt;Compound Path&gt;" class="cls-2" d="M656.33,507.15a60.92,60.92,0,0,0-32.75,9.76V462.55a14.06,14.06,0,1,0-28.12,0V610.3a14,14,0,0,0,14.17,13.93,14.32,14.32,0,0,0,13.48-9.75,58,58,0,0,0,33.22,10.22,58.78,58.78,0,0,0,0-117.55Zm0,89.44A30.67,30.67,0,1,1,687,565.93,30.64,30.64,0,0,1,656.33,596.59Z"/><path id="_Compound_Path_3" data-name="&lt;Compound Path&gt;" class="cls-2" d="M331.4,507.15a60.94,60.94,0,0,0-32.75,9.76V462.55a14.06,14.06,0,1,0-28.11,0V610.3a14,14,0,0,0,14.17,13.93,14.31,14.31,0,0,0,13.47-9.75A58,58,0,0,0,331.4,624.7a58.78,58.78,0,1,0,0-117.55Zm0,89.44a30.67,30.67,0,1,1,30.67-30.66A30.63,30.63,0,0,1,331.4,596.59Z"/><path id="_Compound_Path_4" data-name="&lt;Compound Path&gt;" class="cls-2" d="M791.43,507.85A58.31,58.31,0,1,0,850,566.39C849.74,534.1,823.48,507.85,791.43,507.85Zm0,88a29.74,29.74,0,1,1,29.73-29.73A29.64,29.64,0,0,1,791.43,595.89Z"/><path id="_Path_2" data-name="&lt;Path&gt;" class="cls-2" d="M978.47,509.24c-12.78,0-23.93,4.65-32.07,12.55a47,47,0,0,0-32-12.55A47.59,47.59,0,0,0,893,514.35a12.94,12.94,0,0,0-10.68-5.57A14.34,14.34,0,0,0,868.35,523v88.74a14.1,14.1,0,0,0,13.94,13.71,13.79,13.79,0,0,0,13.94-13.71V553.15c0-9.06,8.13-16,18.12-16s18.12,7,18.12,16V611a13.83,13.83,0,1,0,27.65,0V553.15c0-9.06,8.12-16,18.35-16,9.52,0,17.65,7,17.65,16V611a14,14,0,0,0,14.17,13.93A13.64,13.64,0,0,0,1024,611V553.15C1024,529,1003.32,509.24,978.47,509.24Z"/></g><path class="cls-2" d="M908.84,664.83h-34c1,7.54,7.12,12.26,15,12.26,5.14,0,8.07-1.78,11.63-4.72,1.78-1.46,4.71-2.2,6.91-.42a4.7,4.7,0,0,1,.21,6.81,26.63,26.63,0,0,1-19.27,7.75c-13.93,0-25.14-10.16-25.14-25.66s11.21-25.35,25.14-25.35c13.62,0,24.09,9.43,24.51,24.41A4.91,4.91,0,0,1,908.84,664.83ZM903.18,657c-1-7.65-6.6-12.05-13.93-12.05-7.54,0-13.41,4.5-14.45,12.05Z"/><path class="cls-2" d="M947.8,635.5a25.85,25.85,0,0,1,15,4.51,5.23,5.23,0,0,1,1.26,7.22c-1.47,2.41-5.14,2.52-7.44,1.16a17.81,17.81,0,0,0-8.8-2.41c-8.17,0-15.4,6-15.4,15.08s7.23,15,15.4,15a17.81,17.81,0,0,0,8.8-2.41c2.3-1.36,6-1.26,7.44,1.15a5.24,5.24,0,0,1-1.26,7.23,25.84,25.84,0,0,1-15,4.5c-14,0-26.08-10-26.08-25.45S933.77,635.5,947.8,635.5Z"/><path class="cls-2" d="M972.84,660.85c0-15.5,11.62-25.35,25.45-25.35s25.66,9.85,25.66,25.35-11.73,25.66-25.66,25.66S972.84,676.35,972.84,660.85Zm40.43,0c0-9-6.81-14.87-15-14.87a14.38,14.38,0,0,0-14.77,14.87c0,9.22,6.7,15.19,14.77,15.19S1013.27,670.07,1013.27,660.85Z"/><g class="cls-3"><g class="cls-3"><path class="cls-4" d="M141.4,641.82c15.41-5,46.7-19.34,55.94-56.07a7.86,7.86,0,0,0-6.56-9.58,7.94,7.94,0,0,0-8.78,6c-7.62,29.78-33.12,41-45.35,44.77a7.81,7.81,0,1,0,4.75,14.89"/></g><g class="cls-3"><path class="cls-4" d="M119.88,538.31a8,8,0,0,0,8-8V396.56a8,8,0,1,0-16.08,0V530.27a8,8,0,0,0,8,8"/></g><g class="cls-3"><path class="cls-4" d="M36.06,538.31a8,8,0,0,0,8-8V396.56a8,8,0,1,0-16.08,0V530.27a8,8,0,0,0,8,8"/></g><g class="cls-3"><path class="cls-4" d="M92,538.31a8,8,0,0,0,8-8V374.16a8,8,0,1,0-16.08,0V530.27a8,8,0,0,0,8,8"/></g><g class="cls-3"><path class="cls-4" d="M64.05,538.31a8,8,0,0,0,8-8V344.08a8,8,0,1,0-16.09,0V530.27a8,8,0,0,0,8,8"/></g><g class="cls-3"><path class="cls-4" d="M120,686.21a119.77,119.77,0,0,0,19-238l0,16.44A103.63,103.63,0,0,1,120,670.13c-57.15,0-103.9-47.29-103.9-104.43V449.4A8,8,0,0,0,0,449.4V568.22a120.4,120.4,0,0,0,120,118"/></g></g></g></svg>