<svg id="Layer_1" data-name="Layer 1" xmlns="http://www.w3.org/2000/svg" viewBox="0 0 1024 1024"><defs><style>.cls-1{fill:#fff;}</style></defs><title>H 1024x1024 WhiteSVG</title><path class="cls-1" d="M237.14,830.6l-.2,103.68a16.66,16.66,0,0,0,33.31.06l.2-103.68a16.44,16.44,0,0,0-16.35-16.41C244.7,814.23,237.16,821.47,237.14,830.6Z"/><path class="cls-1" d="M411.22,815.09c-7.25,0-13.17,4.81-15.6,11.25a65.28,65.28,0,0,0-34.89-10c-37.07-.07-67.48,29.94-67.55,67s30.22,67.21,67.29,67.28a67.08,67.08,0,0,0,34.13-9.33l0,11.82a36.11,36.11,0,0,1-36.33,36.18,35.53,35.53,0,0,1-27.37-12.4,16,16,0,0,0-23.1-1.66c-7,5.63-7.55,16.1-1.92,23.1a68.82,68.82,0,0,0,52.33,24c38.13.08,69.08-31,69.16-69.16l.24-121.67A16.46,16.46,0,0,0,411.22,815.09ZM360.53,917.86a34.38,34.38,0,1,1,34.18-34.31A34.43,34.43,0,0,1,360.53,917.86Z"/><path class="cls-1" d="M522.68,815.31a70.44,70.44,0,0,0-37.89,11.2l.12-62.85a16.26,16.26,0,1,0-32.51-.06l-.33,170.82a16.23,16.23,0,0,0,16.35,16.15A16.56,16.56,0,0,0,484,939.32a67,67,0,0,0,38.38,11.89,68,68,0,1,0,.27-135.9Zm-.2,103.41A35.46,35.46,0,1,1,558,883.33,35.43,35.43,0,0,1,522.48,918.72Z"/><path class="cls-1" d="M147,814.58a70.47,70.47,0,0,0-37.89,11.2l.13-62.85a16.26,16.26,0,1,0-32.51-.06L76.4,933.69a16.23,16.23,0,0,0,16.35,16.15,16.58,16.58,0,0,0,15.61-11.25,67,67,0,0,0,38.38,11.89,68,68,0,1,0,.26-135.9ZM146.8,918a35.46,35.46,0,1,1,35.53-35.39A35.42,35.42,0,0,1,146.8,918Z"/><path class="cls-1" d="M678.87,816.42a67.42,67.42,0,1,0,67.56,67.81C746.23,846.89,715.94,816.49,678.87,816.42Zm-.19,101.79a34.38,34.38,0,1,1,34.44-34.31A34.28,34.28,0,0,1,678.68,918.21Z"/><path class="cls-1" d="M947.64,868c-.67-27.35-24.22-49.53-52.52-49.58-14.77,0-27.67,5.31-37.1,14.43a54.31,54.31,0,0,0-37-14.58,55.09,55.09,0,0,0-24.72,5.86,15,15,0,0,0-12.35-6.47c-8.59,0-16.13,7.49-16.14,16.36l-.2,102.6c0,8.59,7.49,15.86,16.08,15.88a15.93,15.93,0,0,0,16.15-15.81l.13-67.7c0-10.47,9.44-18.51,21-18.48s20.93,8.09,20.91,18.57L841.71,936a16,16,0,1,0,32,.06l.13-66.88c0-10.48,9.43-18.51,21.25-18.49,11,0,20.39,8.09,20.37,18.57l-.13,66.88a16.22,16.22,0,0,0,16.35,16.15,15.78,15.78,0,0,0,15.89-16.08l.1-50.59Z"/><path class="cls-1" d="M820.18,993.23c-.49-17.32-12.6-28.22-28.34-28.22-16.1,0-29.06,11.38-29.06,29.31s13,29.67,29.06,29.67c8.36,0,16.59-3,22.28-9a5.44,5.44,0,0,0-.24-7.87c-2.54-2.06-5.93-1.21-8,.49-4.12,3.39-7.51,5.45-13.44,5.45-9.09,0-16.11-5.45-17.32-14.17h39.36A5.69,5.69,0,0,0,820.18,993.23Zm-45-3.39c1.21-8.72,8-13.93,16.71-13.93,8.48,0,14.9,5.08,16.11,13.93Z"/><path class="cls-1" d="M859.54,977.12a20.6,20.6,0,0,1,10.17,2.79c2.66,1.57,6.9,1.45,8.6-1.34,1.82-3,1.21-6.54-1.45-8.35A29.89,29.89,0,0,0,859.54,965c-16.23,0-30.16,11.63-30.16,29.55S843.31,1024,859.54,1024a29.89,29.89,0,0,0,17.32-5.21c2.66-1.82,3.27-5.33,1.45-8.36-1.7-2.78-5.94-2.9-8.6-1.33a20.6,20.6,0,0,1-10.17,2.79c-9.45,0-17.8-6.79-17.8-17.32S850.09,977.12,859.54,977.12Z"/><path class="cls-1" d="M917.91,965c-16,0-29.43,11.38-29.43,29.31S901.92,1024,917.91,1024s29.67-11.75,29.67-29.67S934,965,917.91,965Zm0,46.87c-9.33,0-17.08-6.91-17.08-17.56,0-10.42,7.75-17.2,17.08-17.2s17.32,6.78,17.32,17.2C935.23,1005,927.35,1011.88,917.91,1011.88Z"/><path class="cls-1" d="M542.37,624.06a16.32,16.32,0,0,0,21,12.82c32-10.3,97-40.19,116.23-116.5a16.36,16.36,0,0,0-31.86-7.47c-15.83,61.88-68.82,85.24-94.22,93A16.25,16.25,0,0,0,542.37,624.06Z"/><path class="cls-1" d="M502,127.27V405.1a16.72,16.72,0,0,0,33.43,0V127.27a16.72,16.72,0,0,0-33.43,0Z"/><path class="cls-1" d="M327.82,127.27V405.1a16.72,16.72,0,0,0,33.43,0V127.27a16.72,16.72,0,0,0-33.43,0Z"/><path class="cls-1" d="M444.12,80.74V405.1a16.71,16.71,0,0,0,33.42,0V80.74a16.71,16.71,0,1,0-33.42,0Z"/><path class="cls-1" d="M386,18.23V405.1a16.71,16.71,0,1,0,33.42,0V18.23a16.71,16.71,0,1,0-33.42,0Z"/><path class="cls-1" d="M519,729.11c137.15,0,248.73-111.58,248.73-248.74a248.14,248.14,0,0,0-209.16-245.8l0,34.17A214.22,214.22,0,0,1,734.31,480.37c0,118.73-96.6,215.33-215.33,215.33s-215.88-98.25-215.88-217V237.07a16.71,16.71,0,0,0-33.42,0V484c.94,65.57,27.88,127.12,74.68,173.35A247.11,247.11,0,0,0,519,729.11Z"/></svg>