<svg xmlns="http://www.w3.org/2000/svg" xmlns:xlink="http://www.w3.org/1999/xlink" viewBox="0 0 128 128"><defs><style>.cls-1{fill:none;}.cls-2{fill:#4dae4a;}.cls-3{clip-path:url(#clip-path);}.cls-4{fill:#4cae4a;}</style><clipPath id="clip-path"><rect class="cls-1" x="0.02" y="41.37" width="30" height="43.77"/></clipPath></defs><title>H 128x128 GreenSVG</title><g id="V"><g id="_Group_" data-name="&lt;Group&gt;"><path id="_Path_" data-name="&lt;Path&gt;" class="cls-2" d="M53,62.7a1.79,1.79,0,0,0-1.83,1.77V75.68a1.8,1.8,0,1,0,3.6,0V64.47A1.78,1.78,0,0,0,53,62.7Z"/><path id="_Compound_Path_" data-name="&lt;Compound Path&gt;" class="cls-2" d="M70,62.76A1.81,1.81,0,0,0,68.31,64a7,7,0,0,0-3.77-1.07,7.26,7.26,0,1,0,3.69,13.5v1.27a3.91,3.91,0,0,1-3.92,3.92,3.85,3.85,0,0,1-3-1.33,1.73,1.73,0,0,0-2.49-.18,1.78,1.78,0,0,0-.21,2.5,7.47,7.47,0,0,0,13.13-4.91V64.53A1.78,1.78,0,0,0,70,62.76ZM64.54,73.88a3.72,3.72,0,1,1,3.69-3.72A3.73,3.73,0,0,1,64.54,73.88Z"/><path id="_Compound_Path_2" data-name="&lt;Compound Path&gt;" class="cls-2" d="M82.05,62.76A7.59,7.59,0,0,0,78,64v-6.8a1.76,1.76,0,1,0-3.51,0V75.65a1.75,1.75,0,0,0,1.77,1.74,1.78,1.78,0,0,0,1.68-1.22,7.24,7.24,0,0,0,4.16,1.28,7.35,7.35,0,0,0,0-14.69Zm0,11.18a3.84,3.84,0,1,1,3.83-3.83A3.84,3.84,0,0,1,82.05,73.94Z"/><path id="_Compound_Path_3" data-name="&lt;Compound Path&gt;" class="cls-2" d="M41.43,62.76A7.56,7.56,0,0,0,37.34,64v-6.8a1.76,1.76,0,1,0-3.51,0V75.65a1.75,1.75,0,0,0,1.77,1.74,1.78,1.78,0,0,0,1.68-1.22,7.19,7.19,0,0,0,4.15,1.28,7.35,7.35,0,1,0,0-14.69Zm0,11.18a3.84,3.84,0,1,1,3.84-3.83A3.83,3.83,0,0,1,41.43,73.94Z"/><path id="_Compound_Path_4" data-name="&lt;Compound Path&gt;" class="cls-2" d="M98.93,62.85a7.29,7.29,0,1,0,7.32,7.31A7.31,7.31,0,0,0,98.93,62.85Zm0,11a3.72,3.72,0,1,1,3.72-3.72A3.71,3.71,0,0,1,98.93,73.85Z"/><path id="_Path_2" data-name="&lt;Path&gt;" class="cls-2" d="M122.31,63a5.66,5.66,0,0,0-4,1.57,5.86,5.86,0,0,0-4-1.57,5.94,5.94,0,0,0-2.67.64,1.6,1.6,0,0,0-1.33-.7,1.79,1.79,0,0,0-1.74,1.77v11.1a1.76,1.76,0,0,0,1.74,1.71A1.72,1.72,0,0,0,112,75.83V68.51a2.28,2.28,0,0,1,4.53,0v7.23a1.7,1.7,0,0,0,1.74,1.74A1.72,1.72,0,0,0,120,75.74V68.51a2.27,2.27,0,0,1,4.5,0v7.23a1.75,1.75,0,0,0,1.77,1.74A1.7,1.7,0,0,0,128,75.74V68.51A5.62,5.62,0,0,0,122.31,63Z"/></g><path class="cls-2" d="M113.61,82.47h-4.26A1.77,1.77,0,0,0,111.22,84a2.07,2.07,0,0,0,1.46-.59.69.69,0,0,1,.86,0,.59.59,0,0,1,0,.85,3.35,3.35,0,0,1-2.41,1A3.07,3.07,0,0,1,108,82a3,3,0,0,1,3.14-3.17,3,3,0,0,1,3.06,3A.61.61,0,0,1,113.61,82.47Zm-.71-1A1.66,1.66,0,0,0,111.16,80a1.72,1.72,0,0,0-1.81,1.51Z"/><path class="cls-2" d="M118.48,78.8a3.3,3.3,0,0,1,1.87.56.67.67,0,0,1,.16.91.71.71,0,0,1-.93.14,2.29,2.29,0,0,0-1.1-.3,1.88,1.88,0,1,0,0,3.76,2.29,2.29,0,0,0,1.1-.3.71.71,0,0,1,.93.14.65.65,0,0,1-.16.9,3.23,3.23,0,0,1-1.87.57,3.19,3.19,0,1,1,0-6.38Z"/><path class="cls-2" d="M121.61,82A3.19,3.19,0,0,1,128,82a3.19,3.19,0,1,1-6.38,0Zm5,0a1.86,1.86,0,1,0-1.87,1.9A1.83,1.83,0,0,0,126.66,82Z"/><g class="cls-3"><g class="cls-3"><path class="cls-4" d="M17.69,79.59a10.15,10.15,0,0,0,7-7,1,1,0,0,0-1.92-.45,8.06,8.06,0,0,1-5.67,5.6,1,1,0,1,0,.6,1.86"/></g><g class="cls-3"><path class="cls-4" d="M15,66.65a1,1,0,0,0,1-1V48.94a1,1,0,1,0-2,0V65.65a1,1,0,0,0,1,1"/></g><g class="cls-3"><path class="cls-4" d="M4.52,66.65a1,1,0,0,0,1-1V48.94a1,1,0,1,0-2,0V65.65a1,1,0,0,0,1,1"/></g><g class="cls-3"><path class="cls-4" d="M11.52,66.65a1,1,0,0,0,1-1V46.14a1,1,0,1,0-2,0V65.65a1,1,0,0,0,1,1"/></g><g class="cls-3"><path class="cls-4" d="M8,66.65a1,1,0,0,0,1-1V42.38a1,1,0,1,0-2,0V65.65a1,1,0,0,0,1,1"/></g><g class="cls-3"><path class="cls-4" d="M15,85.14a15,15,0,0,0,2.38-29.75v2.06A12.95,12.95,0,0,1,15,83.13a13.08,13.08,0,0,1-13-13V55.54a1,1,0,0,0-2,0V70.39A15,15,0,0,0,15,85.14"/></g></g></g></svg>