<svg xmlns="http://www.w3.org/2000/svg" viewBox="0 0 128 128"><defs><style>.cls-1{fill:#fff;}</style></defs><title>H 128x128 WhiteSVG</title><g id="V"><path class="cls-1" d="M53,62.7a1.79,1.79,0,0,0-1.83,1.77V75.68a1.8,1.8,0,1,0,3.6,0V64.47A1.78,1.78,0,0,0,53,62.7Z"/><path class="cls-1" d="M70,62.76A1.83,1.83,0,0,0,68.31,64a7.1,7.1,0,0,0-3.77-1.07,7.26,7.26,0,1,0,3.69,13.5v1.28a3.9,3.9,0,0,1-3.92,3.92,3.84,3.84,0,0,1-3-1.34,1.74,1.74,0,0,0-2.5-.17,1.78,1.78,0,0,0-.2,2.5,7.47,7.47,0,0,0,13.12-4.91V64.53A1.77,1.77,0,0,0,70,62.76ZM64.54,73.88a3.72,3.72,0,1,1,3.69-3.72A3.73,3.73,0,0,1,64.54,73.88Z"/><path class="cls-1" d="M82.05,62.76A7.67,7.67,0,0,0,78,64V57.18a1.76,1.76,0,1,0-3.51,0V75.65a1.75,1.75,0,0,0,1.77,1.74,1.79,1.79,0,0,0,1.69-1.22,7.26,7.26,0,0,0,4.15,1.28,7.35,7.35,0,0,0,0-14.69Zm0,11.17a3.83,3.83,0,1,1,3.83-3.83A3.83,3.83,0,0,1,82.05,73.93Z"/><path class="cls-1" d="M41.44,62.76A7.67,7.67,0,0,0,37.34,64V57.18a1.76,1.76,0,1,0-3.51,0V75.65a1.75,1.75,0,0,0,1.77,1.74,1.78,1.78,0,0,0,1.68-1.22,7.35,7.35,0,1,0,4.16-13.41Zm0,11.17a3.83,3.83,0,1,1,3.83-3.83A3.83,3.83,0,0,1,41.44,73.93Z"/><path class="cls-1" d="M98.93,62.84a7.29,7.29,0,1,0,7.32,7.32A7.31,7.31,0,0,0,98.93,62.84Zm0,11a3.72,3.72,0,1,1,3.72-3.72A3.7,3.7,0,0,1,98.93,73.85Z"/><path class="cls-1" d="M122.31,63a5.66,5.66,0,0,0-4,1.57,5.85,5.85,0,0,0-4-1.57,6,6,0,0,0-2.68.64,1.6,1.6,0,0,0-1.33-.7,1.79,1.79,0,0,0-1.74,1.77v11.1a1.76,1.76,0,0,0,1.74,1.71A1.72,1.72,0,0,0,112,75.83V68.51a2.28,2.28,0,0,1,4.53,0v7.23a1.7,1.7,0,0,0,1.74,1.74A1.72,1.72,0,0,0,120,75.74V68.51a2.13,2.13,0,0,1,2.29-2,2.11,2.11,0,0,1,2.2,2v7.23a1.76,1.76,0,0,0,1.78,1.74A1.7,1.7,0,0,0,128,75.74V68.51A5.62,5.62,0,0,0,122.31,63Z"/><path class="cls-1" d="M114.22,81.85a3,3,0,0,0-3.06-3A3,3,0,0,0,108,82a3.07,3.07,0,0,0,3.14,3.2,3.31,3.31,0,0,0,2.41-1,.59.59,0,0,0,0-.85.68.68,0,0,0-.86.06,2.08,2.08,0,0,1-1.45.58,1.77,1.77,0,0,1-1.88-1.53h4.26A.61.61,0,0,0,114.22,81.85Zm-4.87-.37a1.72,1.72,0,0,1,1.81-1.5,1.66,1.66,0,0,1,1.74,1.5Z"/><path class="cls-1" d="M118.48,80.11a2.29,2.29,0,0,1,1.1.3.71.71,0,0,0,.93-.14.67.67,0,0,0-.16-.91,3.3,3.3,0,0,0-1.87-.56,3.19,3.19,0,1,0,0,6.38,3.23,3.23,0,0,0,1.87-.57.65.65,0,0,0,.16-.9.71.71,0,0,0-.93-.14,2.29,2.29,0,0,1-1.1.3,1.88,1.88,0,1,1,0-3.76Z"/><path class="cls-1" d="M124.79,78.8a3.19,3.19,0,0,0,0,6.37,3.19,3.19,0,1,0,0-6.37Zm0,5.06A1.88,1.88,0,1,1,126.66,82,1.81,1.81,0,0,1,124.79,83.86Z"/><path class="cls-1" d="M17.69,79.59a10.15,10.15,0,0,0,7-7,1,1,0,0,0-1.92-.45,8.06,8.06,0,0,1-5.67,5.6,1,1,0,1,0,.6,1.86Z"/><path class="cls-1" d="M14,48.94V65.65a1,1,0,0,0,2,0V48.94a1,1,0,1,0-2,0Z"/><path class="cls-1" d="M3.51,48.94V65.65a1,1,0,0,0,2,0V48.94a1,1,0,1,0-2,0Z"/><path class="cls-1" d="M10.51,46.14V65.65a1,1,0,0,0,2,0V46.14a1,1,0,1,0-2,0Z"/><path class="cls-1" d="M7,42.38V65.65a1,1,0,0,0,2,0V42.38a1,1,0,1,0-2,0Z"/><path class="cls-1" d="M15,85.14a15,15,0,0,0,2.38-29.75v2.06A13,13,0,0,1,15,83.13a13.08,13.08,0,0,1-13-13V55.54a1,1,0,0,0-2,0V70.39A15,15,0,0,0,15,85.14Z"/></g></svg>