<svg xmlns="http://www.w3.org/2000/svg" viewBox="0 0 16 16"><title>H 16x16 BlackSVG</title><g id="V"><path d="M6.63,7.21a.22.22,0,0,0-.23.22v1.4a.22.22,0,0,0,.23.22.22.22,0,0,0,.22-.22V7.43A.22.22,0,0,0,6.63,7.21Z"/><path d="M8.75,7.21a.25.25,0,0,0-.21.15,1,1,0,0,0-.47-.13A.91.91,0,1,0,8.07,9a.88.88,0,0,0,.46-.12v.16A.49.49,0,0,1,8,9.57a.48.48,0,0,1-.37-.17.2.2,0,0,0-.31,0,.23.23,0,0,0,0,.31A.94.94,0,0,0,9,9.08V7.43A.22.22,0,0,0,8.75,7.21ZM8.07,8.6a.47.47,0,1,1,.46-.46A.46.46,0,0,1,8.07,8.6Z"/><path d="M10.26,7.21a1,1,0,0,0-.51.15V6.51a.22.22,0,0,0-.44,0V8.82A.22.22,0,0,0,9.53,9a.23.23,0,0,0,.21-.15.94.94,0,0,0,.52.16.92.92,0,0,0,0-1.84Zm0,1.4a.48.48,0,0,1-.48-.48.47.47,0,0,1,.48-.48.48.48,0,0,1,.48.48A.49.49,0,0,1,10.26,8.61Z"/><path d="M5.18,7.21a1,1,0,0,0-.51.15V6.51a.22.22,0,0,0-.44,0V8.82A.22.22,0,0,0,4.45,9a.23.23,0,0,0,.21-.15.94.94,0,0,0,.52.16.92.92,0,1,0,0-1.84Zm0,1.4a.49.49,0,0,1-.48-.48.48.48,0,0,1,1,0A.49.49,0,0,1,5.18,8.61Z"/><path d="M12.37,7.22a.91.91,0,1,0,.91.92A.91.91,0,0,0,12.37,7.22Zm0,1.38a.46.46,0,0,1-.46-.47.45.45,0,0,1,.46-.46.46.46,0,0,1,.47.46A.47.47,0,0,1,12.37,8.6Z"/><path d="M15.29,7.25a.7.7,0,0,0-.5.19.76.76,0,0,0-.5-.19.77.77,0,0,0-.34.08.19.19,0,0,0-.16-.09.22.22,0,0,0-.22.22V8.85a.22.22,0,0,0,.22.21A.21.21,0,0,0,14,8.85V7.93a.27.27,0,0,1,.29-.25.27.27,0,0,1,.28.25v.91a.21.21,0,0,0,.22.21A.21.21,0,0,0,15,8.84V7.93a.27.27,0,0,1,.29-.25.26.26,0,0,1,.27.25v.91a.22.22,0,0,0,.23.21A.21.21,0,0,0,16,8.84V7.93A.7.7,0,0,0,15.29,7.25Z"/><path d="M14.28,9.6a.37.37,0,0,0-.38-.38.38.38,0,0,0-.4.4.39.39,0,0,0,.4.4.42.42,0,0,0,.3-.12.07.07,0,1,0-.11-.1.29.29,0,0,1-.18.07.22.22,0,0,1-.24-.19h.53A.08.08,0,0,0,14.28,9.6Zm-.61,0a.22.22,0,0,1,.23-.19.22.22,0,0,1,.22.19Z"/><path d="M14.81,9.39a.23.23,0,0,1,.14,0,.08.08,0,0,0,.11,0,.07.07,0,0,0,0-.11.35.35,0,0,0-.23-.07.4.4,0,1,0,0,.79A.35.35,0,0,0,15,10a.07.07,0,0,0,0-.11.08.08,0,0,0-.11,0,.33.33,0,0,1-.14,0,.23.23,0,0,1-.24-.24A.23.23,0,0,1,14.81,9.39Z"/><path d="M15.6,9.22a.39.39,0,0,0-.4.4.39.39,0,0,0,.4.4.39.39,0,0,0,.4-.4A.38.38,0,0,0,15.6,9.22Zm0,.63a.23.23,0,0,1-.23-.23.24.24,0,1,1,.47,0A.23.23,0,0,1,15.6,9.85Z"/><path d="M2.21,9.32a1.26,1.26,0,0,0,.87-.88A.12.12,0,0,0,3,8.29a.13.13,0,0,0-.14.1,1,1,0,0,1-.7.7.11.11,0,0,0-.09.13A.13.13,0,0,0,2.21,9.32Z"/><path d="M1.87,7.7A.12.12,0,0,0,2,7.58V5.49a.13.13,0,0,0-.13-.13.13.13,0,0,0-.12.13V7.58A.12.12,0,0,0,1.87,7.7Z"/><path d="M.57,7.7a.12.12,0,0,0,.12-.12V5.49a.13.13,0,0,0-.12-.13.13.13,0,0,0-.13.13V7.58A.12.12,0,0,0,.57,7.7Z"/><path d="M1.44,7.7a.12.12,0,0,0,.13-.12V5.14a.13.13,0,0,0-.26,0V7.58A.12.12,0,0,0,1.44,7.7Z"/><path d="M1,7.7a.12.12,0,0,0,.13-.12V4.67A.13.13,0,0,0,1,4.54a.12.12,0,0,0-.12.13V7.58A.12.12,0,0,0,1,7.7Z"/><path d="M2.17,6.29v.26A1.62,1.62,0,1,1,.25,8.13V6.31a.12.12,0,0,0-.12-.12A.12.12,0,0,0,0,6.31V8.17A1.88,1.88,0,1,0,2.17,6.29Z"/></g></svg>