<svg xmlns="http://www.w3.org/2000/svg" xmlns:xlink="http://www.w3.org/1999/xlink" viewBox="0 0 16 16"><defs><style>.cls-1{fill:none;}.cls-2{fill:#4dae4a;}.cls-3{clip-path:url(#clip-path);}.cls-4{fill:#4cae4a;}</style><clipPath id="clip-path"><rect class="cls-1" y="4.54" width="3.75" height="5.47"/></clipPath></defs><title>H 16x16 GreenSVG</title><g id="V"><g id="_Group_" data-name="&lt;Group&gt;"><path id="_Path_" data-name="&lt;Path&gt;" class="cls-2" d="M6.63,7.21a.22.22,0,0,0-.23.22v1.4a.22.22,0,0,0,.23.22.22.22,0,0,0,.22-.22V7.43A.22.22,0,0,0,6.63,7.21Z"/><path id="_Compound_Path_" data-name="&lt;Compound Path&gt;" class="cls-2" d="M8.75,7.21a.23.23,0,0,0-.21.16.86.86,0,0,0-.47-.14.91.91,0,0,0,0,1.82.94.94,0,0,0,.46-.13v.16A.49.49,0,0,1,8,9.57a.48.48,0,0,1-.37-.17.22.22,0,0,0-.31,0,.21.21,0,0,0,0,.31A.93.93,0,0,0,9,9.08V7.44A.23.23,0,0,0,8.75,7.21ZM8.07,8.6a.47.47,0,0,1-.47-.46.47.47,0,1,1,.47.46Z"/><path id="_Compound_Path_2" data-name="&lt;Compound Path&gt;" class="cls-2" d="M10.26,7.21a.94.94,0,0,0-.52.16V6.52a.21.21,0,0,0-.21-.22.22.22,0,0,0-.23.22V8.83A.22.22,0,0,0,9.53,9a.23.23,0,0,0,.21-.15.89.89,0,0,0,.52.16.92.92,0,0,0,0-1.84Zm0,1.4a.47.47,0,0,1-.48-.48.48.48,0,1,1,1,0A.47.47,0,0,1,10.26,8.61Z"/><path id="_Compound_Path_3" data-name="&lt;Compound Path&gt;" class="cls-2" d="M5.18,7.21a.91.91,0,0,0-.51.16V6.52a.22.22,0,0,0-.44,0V8.83A.21.21,0,0,0,4.45,9a.22.22,0,0,0,.21-.15.94.94,0,0,0,.52.16.92.92,0,1,0,0-1.84Zm0,1.4a.47.47,0,0,1-.48-.48.48.48,0,0,1,.48-.48.49.49,0,0,1,.48.48A.48.48,0,0,1,5.18,8.61Z"/><path id="_Compound_Path_4" data-name="&lt;Compound Path&gt;" class="cls-2" d="M12.37,7.23a.91.91,0,1,0,.91.91A.91.91,0,0,0,12.37,7.23Zm0,1.37a.47.47,0,1,1,.46-.46A.47.47,0,0,1,12.37,8.6Z"/><path id="_Path_2" data-name="&lt;Path&gt;" class="cls-2" d="M15.29,7.25a.7.7,0,0,0-.5.19.76.76,0,0,0-.5-.19.77.77,0,0,0-.34.08.2.2,0,0,0-.16-.09.22.22,0,0,0-.22.22V8.85a.22.22,0,0,0,.22.21A.21.21,0,0,0,14,8.85V7.93a.27.27,0,0,1,.29-.25.27.27,0,0,1,.28.25v.91a.21.21,0,0,0,.22.21A.21.21,0,0,0,15,8.84V7.93a.27.27,0,0,1,.29-.25.26.26,0,0,1,.27.25v.91a.22.22,0,0,0,.23.21A.21.21,0,0,0,16,8.84V7.93A.7.7,0,0,0,15.29,7.25Z"/></g><path class="cls-2" d="M14.2,9.68h-.53a.22.22,0,0,0,.23.19.27.27,0,0,0,.18-.07.08.08,0,0,1,.11,0,.08.08,0,0,1,0,.11.43.43,0,0,1-.31.12.39.39,0,0,1-.39-.4.38.38,0,0,1,.39-.4.38.38,0,0,1,.39.38A.08.08,0,0,1,14.2,9.68Zm-.09-.12a.2.2,0,0,0-.22-.19.22.22,0,0,0-.22.19Z"/><path class="cls-2" d="M14.81,9.22a.35.35,0,0,1,.23.07.07.07,0,0,1,0,.11.08.08,0,0,1-.11,0,.33.33,0,0,0-.14,0,.24.24,0,0,0-.24.24.23.23,0,0,0,.24.23.32.32,0,0,0,.14,0,.08.08,0,0,1,.11,0A.08.08,0,0,1,15,10a.42.42,0,0,1-.23.07.4.4,0,1,1,0-.8Z"/><path class="cls-2" d="M15.2,9.62a.4.4,0,0,1,.8,0,.4.4,0,0,1-.8,0Zm.63,0a.23.23,0,1,0-.46,0,.23.23,0,0,0,.46,0Z"/><g class="cls-3"><g class="cls-3"><path class="cls-4" d="M2.21,9.32a1.26,1.26,0,0,0,.87-.88A.12.12,0,0,0,3,8.29a.11.11,0,0,0-.13.1,1,1,0,0,1-.71.7.11.11,0,0,0-.09.13.13.13,0,0,0,.16.1"/></g><g class="cls-3"><path class="cls-4" d="M1.87,7.7A.12.12,0,0,0,2,7.58V5.49a.13.13,0,0,0-.13-.13.13.13,0,0,0-.12.13V7.58a.12.12,0,0,0,.12.12"/></g><g class="cls-3"><path class="cls-4" d="M.56,7.7a.12.12,0,0,0,.13-.12V5.49a.13.13,0,0,0-.13-.13.13.13,0,0,0-.12.13V7.58a.12.12,0,0,0,.12.12"/></g><g class="cls-3"><path class="cls-4" d="M1.44,7.7a.12.12,0,0,0,.13-.12V5.14a.13.13,0,0,0-.26,0V7.58a.12.12,0,0,0,.13.12"/></g><g class="cls-3"><path class="cls-4" d="M1,7.7a.12.12,0,0,0,.13-.12V4.67A.13.13,0,0,0,1,4.54a.12.12,0,0,0-.12.13V7.58A.12.12,0,0,0,1,7.7"/></g><g class="cls-3"><path class="cls-4" d="M1.88,10a1.87,1.87,0,0,0,.29-3.72v.26A1.62,1.62,0,1,1,.25,8.13V6.31a.12.12,0,0,0-.12-.12A.12.12,0,0,0,0,6.31V8.17A1.88,1.88,0,0,0,1.88,10"/></g></g></g></svg>