<svg xmlns="http://www.w3.org/2000/svg" viewBox="0 0 24 24"><title>H 24x24 BlackSVG</title><g id="V"><path d="M9.94,11.17a.34.34,0,0,0-.34.33v2.1a.34.34,0,1,0,.67,0V11.5A.33.33,0,0,0,9.94,11.17Z"/><path d="M13.12,11.18a.34.34,0,0,0-.31.23,1.33,1.33,0,0,0-.71-.2,1.36,1.36,0,1,0,0,2.72,1.35,1.35,0,0,0,.69-.19V14a.74.74,0,0,1-1.29.49.32.32,0,0,0-.47,0,.34.34,0,0,0,0,.47A1.4,1.4,0,0,0,13.46,14V11.51A.34.34,0,0,0,13.12,11.18Zm-1,2.09a.7.7,0,0,1,0-1.4.7.7,0,0,1,0,1.4Z"/><path d="M15.38,11.18a1.48,1.48,0,0,0-.77.23V10.14a.33.33,0,1,0-.65,0V13.6a.33.33,0,0,0,.64.1,1.38,1.38,0,1,0,.78-2.52Zm0,2.1a.72.72,0,1,1,.72-.72A.72.72,0,0,1,15.38,13.28Z"/><path d="M7.77,11.18a1.42,1.42,0,0,0-.77.23V10.14a.33.33,0,0,0-.66,0V13.6a.33.33,0,0,0,.33.33A.34.34,0,0,0,7,13.7a1.38,1.38,0,1,0,.78-2.52Zm0,2.1a.72.72,0,1,1,.72-.72A.72.72,0,0,1,7.77,13.28Z"/><path d="M18.55,11.2a1.37,1.37,0,1,0,1.37,1.37A1.37,1.37,0,0,0,18.55,11.2Zm0,2.06a.7.7,0,1,1,.7-.69A.69.69,0,0,1,18.55,13.26Z"/><path d="M22.93,11.23a1,1,0,0,0-.75.3,1.08,1.08,0,0,0-.75-.3,1.06,1.06,0,0,0-.5.12.3.3,0,0,0-.25-.13.33.33,0,0,0-.33.33v2.08a.33.33,0,0,0,.66,0V12.26a.4.4,0,0,1,.42-.38.41.41,0,0,1,.43.38v1.36a.32.32,0,0,0,.64,0V12.26a.43.43,0,0,1,.85,0v1.36a.32.32,0,0,0,.33.32.32.32,0,0,0,.32-.32V12.26A1.05,1.05,0,0,0,22.93,11.23Z"/><path d="M21.42,14.76a.56.56,0,0,0-.58-.57.57.57,0,0,0-.59.59.58.58,0,0,0,.59.61.62.62,0,0,0,.45-.19.11.11,0,0,0,0-.16.13.13,0,0,0-.16,0,.41.41,0,0,1-.28.11.34.34,0,0,1-.35-.28h.8A.12.12,0,0,0,21.42,14.76Zm-.92-.07a.33.33,0,0,1,.34-.28.32.32,0,0,1,.33.28Z"/><path d="M22.21,14.44a.46.46,0,0,1,.21.05s.14,0,.17,0a.12.12,0,0,0,0-.17.61.61,0,0,0-.36-.11.6.6,0,1,0,0,1.2.61.61,0,0,0,.36-.11.12.12,0,0,0,0-.17.13.13,0,0,0-.17,0,.37.37,0,0,1-.21.06.35.35,0,1,1,0-.7Z"/><path d="M23.4,14.19a.58.58,0,0,0-.6.59.6.6,0,1,0,.6-.59Zm0,1a.34.34,0,0,1-.35-.36.35.35,0,0,1,.7,0A.34.34,0,0,1,23.4,15.14Z"/><path d="M3.32,14.34A1.93,1.93,0,0,0,4.63,13a.19.19,0,0,0-.16-.22.19.19,0,0,0-.2.14A1.52,1.52,0,0,1,3.2,14a.18.18,0,0,0-.12.2A.19.19,0,0,0,3.32,14.34Z"/><path d="M2.62,8.59v3.13a.19.19,0,0,0,.19.19A.18.18,0,0,0,3,11.72V8.59a.19.19,0,0,0-.19-.19A.2.2,0,0,0,2.62,8.59Z"/><path d="M.66,8.59v3.13a.18.18,0,0,0,.19.19A.19.19,0,0,0,1,11.72V8.59A.2.2,0,0,0,.85,8.4.19.19,0,0,0,.66,8.59Z"/><path d="M2,8.07v3.65a.18.18,0,0,0,.19.19.19.19,0,0,0,.19-.19V8.07a.19.19,0,0,0-.19-.19A.18.18,0,0,0,2,8.07Z"/><path d="M1.31,7.36v4.36a.19.19,0,0,0,.19.19.18.18,0,0,0,.19-.19V7.36a.19.19,0,0,0-.19-.19A.2.2,0,0,0,1.31,7.36Z"/><path d="M2.82,15.38A2.81,2.81,0,0,0,3.26,9.8v.39A2.36,2.36,0,0,1,4.68,11a2.43,2.43,0,0,1-1.86,4A2.46,2.46,0,0,1,.38,12.55V9.83a.18.18,0,0,0-.19-.19A.19.19,0,0,0,0,9.83v2.78a2.8,2.8,0,0,0,.85,2A2.77,2.77,0,0,0,2.82,15.38Z"/></g></svg>