<svg xmlns="http://www.w3.org/2000/svg" xmlns:xlink="http://www.w3.org/1999/xlink" viewBox="0 0 24 24"><defs><style>.cls-1{fill:none;}.cls-2{fill:#4dae4a;}.cls-3{clip-path:url(#clip-path);}.cls-4{fill:#4cae4a;}</style><clipPath id="clip-path"><rect class="cls-1" y="7.17" width="5.62" height="8.21"/></clipPath></defs><title>H 24x24 GreenSVG</title><g id="V"><g id="_Group_" data-name="&lt;Group&gt;"><path id="_Path_" data-name="&lt;Path&gt;" class="cls-2" d="M9.94,11.17a.34.34,0,0,0-.34.33v2.1a.34.34,0,1,0,.67,0V11.5A.33.33,0,0,0,9.94,11.17Z"/><path id="_Compound_Path_" data-name="&lt;Compound Path&gt;" class="cls-2" d="M13.12,11.18a.34.34,0,0,0-.31.23,1.33,1.33,0,0,0-.71-.2,1.36,1.36,0,1,0,0,2.72,1.35,1.35,0,0,0,.69-.19V14a.73.73,0,0,1-.73.74.75.75,0,0,1-.56-.25.32.32,0,0,0-.47,0,.33.33,0,0,0,0,.47,1.38,1.38,0,0,0,1.06.49A1.41,1.41,0,0,0,13.46,14V11.51A.34.34,0,0,0,13.12,11.18Zm-1,2.09a.7.7,0,0,1,0-1.4.7.7,0,0,1,0,1.4Z"/><path id="_Compound_Path_2" data-name="&lt;Compound Path&gt;" class="cls-2" d="M15.38,11.18a1.42,1.42,0,0,0-.76.23V10.14a.34.34,0,0,0-.33-.34.34.34,0,0,0-.33.34V13.6a.33.33,0,0,0,.33.33.35.35,0,0,0,.32-.23,1.35,1.35,0,0,0,.77.24,1.38,1.38,0,0,0,0-2.76Zm0,2.1a.72.72,0,1,1,.72-.72A.72.72,0,0,1,15.38,13.28Z"/><path id="_Compound_Path_3" data-name="&lt;Compound Path&gt;" class="cls-2" d="M7.77,11.18a1.45,1.45,0,0,0-.77.23V10.14a.33.33,0,1,0-.66,0V13.6a.33.33,0,0,0,.33.33A.34.34,0,0,0,7,13.7a1.38,1.38,0,1,0,.78-2.52Zm0,2.1a.72.72,0,1,1,.72-.72A.72.72,0,0,1,7.77,13.28Z"/><path id="_Compound_Path_4" data-name="&lt;Compound Path&gt;" class="cls-2" d="M18.55,11.2a1.37,1.37,0,1,0,1.37,1.37A1.37,1.37,0,0,0,18.55,11.2Zm0,2.06a.7.7,0,1,1,.7-.7A.7.7,0,0,1,18.55,13.26Z"/><path id="_Path_2" data-name="&lt;Path&gt;" class="cls-2" d="M22.93,11.23a1,1,0,0,0-.75.3,1.08,1.08,0,0,0-.75-.3,1.06,1.06,0,0,0-.5.12.3.3,0,0,0-.25-.13.33.33,0,0,0-.33.33v2.08a.33.33,0,0,0,.66,0V12.26a.42.42,0,0,1,.84,0v1.36a.32.32,0,0,0,.33.32.32.32,0,0,0,.32-.32V12.26a.43.43,0,0,1,.85,0v1.36a.32.32,0,0,0,.33.32.32.32,0,0,0,.32-.32V12.26A1.05,1.05,0,0,0,22.93,11.23Z"/></g><path class="cls-2" d="M21.3,14.88h-.8a.34.34,0,0,0,.35.28.41.41,0,0,0,.28-.11.13.13,0,0,1,.16,0,.1.1,0,0,1,0,.16.62.62,0,0,1-.45.19.58.58,0,0,1-.59-.61.57.57,0,0,1,.59-.59.56.56,0,0,1,.58.57A.12.12,0,0,1,21.3,14.88Zm-.13-.19a.32.32,0,0,0-.33-.28.33.33,0,0,0-.34.28Z"/><path class="cls-2" d="M22.21,14.19a.61.61,0,0,1,.36.11.12.12,0,0,1,0,.17s-.12,0-.17,0a.46.46,0,0,0-.21-.05.35.35,0,1,0,0,.7.37.37,0,0,0,.21-.06.13.13,0,0,1,.17,0,.12.12,0,0,1,0,.17.61.61,0,0,1-.36.11.6.6,0,1,1,0-1.2Z"/><path class="cls-2" d="M22.8,14.78a.6.6,0,0,1,1.2,0,.6.6,0,1,1-1.2,0Zm.95,0a.35.35,0,0,0-.7,0,.35.35,0,1,0,.7,0Z"/><g class="cls-3"><g class="cls-3"><path class="cls-4" d="M3.32,14.34A1.93,1.93,0,0,0,4.63,13a.19.19,0,0,0-.16-.22.19.19,0,0,0-.2.14A1.52,1.52,0,0,1,3.2,14a.18.18,0,0,0-.12.2.19.19,0,0,0,.24.15"/></g><g class="cls-3"><path class="cls-4" d="M2.81,11.91A.18.18,0,0,0,3,11.72V8.59a.19.19,0,0,0-.19-.19.2.2,0,0,0-.19.19v3.13a.19.19,0,0,0,.19.19"/></g><g class="cls-3"><path class="cls-4" d="M.85,11.91A.19.19,0,0,0,1,11.72V8.59A.2.2,0,0,0,.85,8.4a.19.19,0,0,0-.19.19v3.13a.18.18,0,0,0,.19.19"/></g><g class="cls-3"><path class="cls-4" d="M2.16,11.91a.19.19,0,0,0,.19-.19V8.07a.19.19,0,0,0-.19-.19A.18.18,0,0,0,2,8.07v3.65a.18.18,0,0,0,.19.19"/></g><g class="cls-3"><path class="cls-4" d="M1.5,11.91a.18.18,0,0,0,.19-.19V7.36a.19.19,0,0,0-.19-.19.2.2,0,0,0-.19.19v4.36a.19.19,0,0,0,.19.19"/></g><g class="cls-3"><path class="cls-4" d="M2.81,15.38A2.81,2.81,0,0,0,3.26,9.8v.39a2.42,2.42,0,0,1,2,2.38A2.43,2.43,0,0,1,2.81,15,2.46,2.46,0,0,1,.38,12.55V9.83a.18.18,0,0,0-.19-.19A.19.19,0,0,0,0,9.83v2.78a2.8,2.8,0,0,0,.85,2,2.76,2.76,0,0,0,2,.81"/></g></g></g></svg>