<svg xmlns="http://www.w3.org/2000/svg" xmlns:xlink="http://www.w3.org/1999/xlink" viewBox="0 0 256 256"><defs><style>.cls-1{fill:none;}.cls-2{fill:#4dae4a;}.cls-3{clip-path:url(#clip-path);}.cls-4{fill:#4cae4a;}</style><clipPath id="clip-path"><rect class="cls-1" x="0.03" y="83.46" width="59.99" height="87.54"/></clipPath></defs><title>H 256x256 GreenSVG</title><g id="V"><g id="_Group_" data-name="&lt;Group&gt;"><path id="_Path_" data-name="&lt;Path&gt;" class="cls-2" d="M106,126.12a3.59,3.59,0,0,0-3.66,3.55v22.41a3.6,3.6,0,1,0,7.2,0V129.67A3.56,3.56,0,0,0,106,126.12Z"/><path id="_Compound_Path_" data-name="&lt;Compound Path&gt;" class="cls-2" d="M140,126.24a3.66,3.66,0,0,0-3.37,2.44,14.13,14.13,0,0,0-7.54-2.15,14.52,14.52,0,1,0,7.37,27v2.56a7.81,7.81,0,0,1-7.84,7.84,7.69,7.69,0,0,1-5.92-2.67,3.47,3.47,0,0,0-5-.35,3.56,3.56,0,0,0-.4,5,14.95,14.95,0,0,0,26.25-9.81V129.78A3.56,3.56,0,0,0,140,126.24Zm-10.91,22.24a7.44,7.44,0,1,1,7.37-7.43A7.45,7.45,0,0,1,129.08,148.48Z"/><path id="_Compound_Path_2" data-name="&lt;Compound Path&gt;" class="cls-2" d="M164.09,126.24a15.24,15.24,0,0,0-8.19,2.44V115.09a3.51,3.51,0,1,0-7,0V152a3.5,3.5,0,0,0,3.54,3.49,3.59,3.59,0,0,0,3.37-2.44,14.51,14.51,0,0,0,8.3,2.55,14.69,14.69,0,0,0,0-29.38Zm0,22.36a7.67,7.67,0,1,1,7.67-7.67A7.66,7.66,0,0,1,164.09,148.6Z"/><path id="_Compound_Path_3" data-name="&lt;Compound Path&gt;" class="cls-2" d="M82.87,126.24a15.24,15.24,0,0,0-8.19,2.44V115.09a3.52,3.52,0,1,0-7,0V152a3.51,3.51,0,0,0,3.54,3.49,3.58,3.58,0,0,0,3.37-2.44,14.7,14.7,0,1,0,8.31-26.83Zm0,22.36a7.67,7.67,0,1,1,7.66-7.67A7.66,7.66,0,0,1,82.87,148.6Z"/><path id="_Compound_Path_4" data-name="&lt;Compound Path&gt;" class="cls-2" d="M197.86,126.41a14.58,14.58,0,1,0,14.64,14.64A14.62,14.62,0,0,0,197.86,126.41Zm0,22A7.43,7.43,0,1,1,205.3,141,7.41,7.41,0,0,1,197.86,148.42Z"/><path id="_Path_2" data-name="&lt;Path&gt;" class="cls-2" d="M244.62,126.76a11.32,11.32,0,0,0-8,3.14,11.71,11.71,0,0,0-8-3.14,11.88,11.88,0,0,0-5.34,1.28,3.24,3.24,0,0,0-2.67-1.39,3.58,3.58,0,0,0-3.49,3.54v22.18a3.53,3.53,0,0,0,3.49,3.43,3.45,3.45,0,0,0,3.48-3.43V137.74a4.56,4.56,0,0,1,9.06,0V152.2a3.46,3.46,0,1,0,6.91,0V137.74c0-2.27,2-4,4.59-4a4.22,4.22,0,0,1,4.41,4V152.2a3.51,3.51,0,0,0,3.54,3.48A3.41,3.41,0,0,0,256,152.2V137.74A11.25,11.25,0,0,0,244.62,126.76Z"/></g><path class="cls-2" d="M227.21,165.66H218.7a3.55,3.55,0,0,0,3.75,3.06,4.12,4.12,0,0,0,2.9-1.18,1.37,1.37,0,0,1,1.73-.1,1.17,1.17,0,0,1,0,1.7,6.67,6.67,0,0,1-4.81,1.94,6.38,6.38,0,0,1,0-12.76,5.93,5.93,0,0,1,6.12,6.1A1.23,1.23,0,0,1,227.21,165.66Zm-1.41-2a3.32,3.32,0,0,0-3.48-3,3.44,3.44,0,0,0-3.62,3Z"/><path class="cls-2" d="M237,158.32a6.49,6.49,0,0,1,3.75,1.13,1.32,1.32,0,0,1,.31,1.81,1.4,1.4,0,0,1-1.86.28,4.52,4.52,0,0,0-2.2-.6,3.76,3.76,0,1,0,0,7.52,4.42,4.42,0,0,0,2.2-.61,1.41,1.41,0,0,1,1.86.29,1.32,1.32,0,0,1-.31,1.81,6.49,6.49,0,0,1-3.75,1.13,6.38,6.38,0,1,1,0-12.76Z"/><path class="cls-2" d="M243.21,164.66a6.39,6.39,0,0,1,12.78,0,6.39,6.39,0,1,1-12.78,0Zm10.11,0a3.72,3.72,0,1,0-3.75,3.8A3.67,3.67,0,0,0,253.32,164.66Z"/><g class="cls-3"><g class="cls-3"><path class="cls-4" d="M35.37,159.9c3.85-1.24,11.67-4.83,14-14a2,2,0,1,0-3.83-.9c-1.9,7.44-8.28,10.25-11.34,11.19a2,2,0,1,0,1.19,3.72"/></g><g class="cls-3"><path class="cls-4" d="M30,134a2,2,0,0,0,2-2V98.59a2,2,0,0,0-4,0V132a2,2,0,0,0,2,2"/></g><g class="cls-3"><path class="cls-4" d="M9,134a2,2,0,0,0,2-2V98.59a2,2,0,0,0-4,0V132a2,2,0,0,0,2,2"/></g><g class="cls-3"><path class="cls-4" d="M23,134a2,2,0,0,0,2-2V93a2,2,0,1,0-4,0v39a2,2,0,0,0,2,2"/></g><g class="cls-3"><path class="cls-4" d="M16,134a2,2,0,0,0,2-2V85.47a2,2,0,1,0-4,0V132a2,2,0,0,0,2,2"/></g><g class="cls-3"><path class="cls-4" d="M30,171a29.94,29.94,0,0,0,4.76-59.5v4.11A25.91,25.91,0,0,1,30,167a26.16,26.16,0,0,1-26-26.1V111.8a2,2,0,0,0-4,0v29.71A30.1,30.1,0,0,0,30,171"/></g></g></g></svg>