<svg xmlns="http://www.w3.org/2000/svg" viewBox="0 0 256 256"><defs><style>.cls-1{fill:#fff;}</style></defs><title>H 256x256 WhiteSVG</title><g id="V"><path class="cls-1" d="M106,126.12a3.59,3.59,0,0,0-3.66,3.55v22.41a3.6,3.6,0,1,0,7.2,0V129.67A3.56,3.56,0,0,0,106,126.12Z"/><path class="cls-1" d="M140,126.24a3.65,3.65,0,0,0-3.37,2.44,14.13,14.13,0,0,0-7.54-2.15,14.52,14.52,0,1,0,7.37,27v2.55a7.8,7.8,0,0,1-7.84,7.84,7.69,7.69,0,0,1-5.92-2.67,3.48,3.48,0,0,0-5-.35,3.56,3.56,0,0,0-.4,5,14.95,14.95,0,0,0,26.25-9.81V129.78A3.56,3.56,0,0,0,140,126.24Zm-10.91,22.24a7.43,7.43,0,1,1,7.37-7.43A7.44,7.44,0,0,1,129.08,148.48Z"/><path class="cls-1" d="M164.09,126.24a15.24,15.24,0,0,0-8.19,2.44V115.09a3.51,3.51,0,1,0-7,0V152a3.5,3.5,0,0,0,3.54,3.48,3.59,3.59,0,0,0,3.37-2.44,14.44,14.44,0,0,0,8.3,2.56,14.7,14.7,0,0,0,0-29.39Zm0,22.36a7.67,7.67,0,1,1,7.67-7.67A7.66,7.66,0,0,1,164.09,148.6Z"/><path class="cls-1" d="M82.87,126.24a15.24,15.24,0,0,0-8.19,2.44V115.09a3.52,3.52,0,1,0-7,0V152a3.51,3.51,0,0,0,3.54,3.48,3.58,3.58,0,0,0,3.37-2.44,14.48,14.48,0,0,0,8.31,2.56,14.7,14.7,0,0,0,0-29.39Zm0,22.36a7.67,7.67,0,1,1,7.66-7.67A7.66,7.66,0,0,1,82.87,148.6Z"/><path class="cls-1" d="M197.86,126.42a14.58,14.58,0,1,0,14.64,14.63A14.62,14.62,0,0,0,197.86,126.42Zm0,22a7.43,7.43,0,1,1,7.43-7.43A7.4,7.4,0,0,1,197.86,148.42Z"/><path class="cls-1" d="M244.62,126.76a11.32,11.32,0,0,0-8,3.14,11.71,11.71,0,0,0-8-3.14,11.88,11.88,0,0,0-5.34,1.28,3.24,3.24,0,0,0-2.67-1.39,3.58,3.58,0,0,0-3.49,3.54v22.18a3.53,3.53,0,0,0,3.49,3.43,3.45,3.45,0,0,0,3.48-3.43V137.74a4.56,4.56,0,0,1,9.06,0V152.2a3.46,3.46,0,1,0,6.91,0V137.74c0-2.27,2-4,4.59-4a4.22,4.22,0,0,1,4.41,4V152.2a3.51,3.51,0,0,0,3.54,3.48A3.41,3.41,0,0,0,256,152.2V137.74A11.25,11.25,0,0,0,244.62,126.76Z"/><path class="cls-1" d="M228.44,164.43a5.93,5.93,0,0,0-6.13-6.1,6.07,6.07,0,0,0-6.28,6.33,6.14,6.14,0,0,0,6.28,6.42,6.67,6.67,0,0,0,4.82-1.94,1.17,1.17,0,0,0,0-1.7,1.38,1.38,0,0,0-1.73.1,4.08,4.08,0,0,1-2.9,1.18,3.55,3.55,0,0,1-3.75-3.06h8.51A1.23,1.23,0,0,0,228.44,164.43Zm-9.74-.74a3.43,3.43,0,0,1,3.61-3,3.32,3.32,0,0,1,3.49,3Z"/><path class="cls-1" d="M237,160.94a4.52,4.52,0,0,1,2.2.6,1.4,1.4,0,0,0,1.86-.28,1.32,1.32,0,0,0-.31-1.81,6.49,6.49,0,0,0-3.75-1.13,6.38,6.38,0,1,0,0,12.76A6.49,6.49,0,0,0,240.7,170a1.32,1.32,0,0,0,.31-1.81,1.41,1.41,0,0,0-1.86-.29,4.42,4.42,0,0,1-2.2.61,3.76,3.76,0,1,1,0-7.52Z"/><path class="cls-1" d="M249.57,158.33a6.15,6.15,0,0,0-6.36,6.33,6.39,6.39,0,1,0,6.36-6.33Zm0,10.13a3.76,3.76,0,1,1,3.75-3.8A3.63,3.63,0,0,1,249.57,168.46Z"/><path class="cls-1" d="M35.37,159.9c3.85-1.24,11.67-4.83,14-14a2,2,0,1,0-3.83-.9c-1.9,7.44-8.28,10.25-11.34,11.19a2,2,0,1,0,1.19,3.72Z"/><path class="cls-1" d="M32,132V98.59a2,2,0,0,0-4,0V132a2,2,0,0,0,4,0Z"/><path class="cls-1" d="M11.05,132V98.59a2,2,0,0,0-4,0V132a2,2,0,0,0,4,0Z"/><path class="cls-1" d="M25,132V93a2,2,0,1,0-4,0v39a2,2,0,1,0,4,0Z"/><path class="cls-1" d="M18,132V85.47a2,2,0,1,0-4,0V132a2,2,0,1,0,4,0Z"/><path class="cls-1" d="M34.79,111.5v4.11A25.91,25.91,0,0,1,30,167a26.16,26.16,0,0,1-26-26.1V111.8a2,2,0,0,0-4,0v29.71a30,30,0,1,0,34.76-30Z"/></g></svg>