<svg xmlns="http://www.w3.org/2000/svg" xmlns:xlink="http://www.w3.org/1999/xlink" viewBox="0 0 32 32"><defs><style>.cls-1{fill:none;}.cls-2{fill:#4dae4a;}.cls-3{clip-path:url(#clip-path);}.cls-4{fill:#4cae4a;}</style><clipPath id="clip-path"><rect class="cls-1" y="9.8" width="7.5" height="10.94"/></clipPath></defs><title>H 32x32 GreenSVG</title><g id="V"><g id="_Group_" data-name="&lt;Group&gt;"><path id="_Path_" data-name="&lt;Path&gt;" class="cls-2" d="M13.25,15.14a.44.44,0,0,0-.45.44v2.8a.45.45,0,0,0,.45.45.45.45,0,0,0,.45-.45v-2.8A.45.45,0,0,0,13.25,15.14Z"/><path id="_Compound_Path_" data-name="&lt;Compound Path&gt;" class="cls-2" d="M17.5,15.15a.45.45,0,0,0-.42.3A1.83,1.83,0,0,0,14.31,17a1.81,1.81,0,0,0,2.75,1.56v.32a1,1,0,0,1-1.72.65.45.45,0,0,0-.63-.05.45.45,0,0,0-.05.63,1.87,1.87,0,0,0,3.28-1.23V15.59A.44.44,0,0,0,17.5,15.15Zm-1.37,2.78a.93.93,0,1,1,.93-.93A.93.93,0,0,1,16.13,17.93Z"/><path id="_Compound_Path_2" data-name="&lt;Compound Path&gt;" class="cls-2" d="M20.51,15.15a2,2,0,0,0-1,.3V13.76a.44.44,0,1,0-.88,0v4.61a.44.44,0,0,0,.44.44.43.43,0,0,0,.42-.31,1.78,1.78,0,0,0,1,.32,1.84,1.84,0,1,0,0-3.67Zm0,2.79a1,1,0,1,1,0-1.91,1,1,0,1,1,0,1.91Z"/><path id="_Compound_Path_3" data-name="&lt;Compound Path&gt;" class="cls-2" d="M10.36,15.15a2,2,0,0,0-1,.3V13.76a.44.44,0,1,0-.87,0v4.61a.44.44,0,0,0,.86.13,1.76,1.76,0,0,0,1,.32,1.84,1.84,0,0,0,0-3.67Zm0,2.79a1,1,0,1,1,0-1.91,1,1,0,1,1,0,1.91Z"/><path id="_Compound_Path_4" data-name="&lt;Compound Path&gt;" class="cls-2" d="M24.73,15.17A1.83,1.83,0,1,0,26.56,17,1.83,1.83,0,0,0,24.73,15.17Zm0,2.75a.93.93,0,1,1,.93-.93A.93.93,0,0,1,24.73,17.92Z"/><path id="_Path_2" data-name="&lt;Path&gt;" class="cls-2" d="M30.58,15.21a1.4,1.4,0,0,0-1,.4,1.46,1.46,0,0,0-1.67-.24.42.42,0,0,0-.34-.17.44.44,0,0,0-.43.44v2.78a.44.44,0,0,0,.87,0V16.59a.57.57,0,0,1,1.13,0v1.8a.43.43,0,1,0,.86,0v-1.8a.54.54,0,0,1,.58-.5.53.53,0,0,1,.55.5v1.8a.44.44,0,0,0,.44.44.43.43,0,0,0,.43-.44v-1.8A1.41,1.41,0,0,0,30.58,15.21Z"/></g><path class="cls-2" d="M28.4,20.08H27.34a.44.44,0,0,0,.47.38.51.51,0,0,0,.36-.15.18.18,0,0,1,.22,0,.14.14,0,0,1,0,.21.81.81,0,0,1-.6.24.8.8,0,0,1,0-1.59.75.75,0,0,1,.77.76A.16.16,0,0,1,28.4,20.08Zm-.18-.25a.41.41,0,0,0-.43-.38.43.43,0,0,0-.45.38Z"/><path class="cls-2" d="M29.62,19.16a.82.82,0,0,1,.47.14.17.17,0,0,1,0,.23.18.18,0,0,1-.24,0,.57.57,0,0,0-.27-.07.46.46,0,0,0-.48.47.47.47,0,0,0,.48.47.48.48,0,0,0,.27-.08.18.18,0,0,1,.24,0,.16.16,0,0,1,0,.22.75.75,0,0,1-.47.14.8.8,0,1,1,0-1.59Z"/><path class="cls-2" d="M30.4,20A.8.8,0,0,1,32,20a.8.8,0,0,1-1.6,0Zm1.26,0a.45.45,0,0,0-.46-.46.44.44,0,0,0-.46.46.45.45,0,0,0,.46.48A.46.46,0,0,0,31.66,20Z"/><g class="cls-3"><g class="cls-3"><path class="cls-4" d="M4.42,19.36a2.56,2.56,0,0,0,1.75-1.75.25.25,0,0,0-.21-.3.24.24,0,0,0-.27.18,2,2,0,0,1-1.42,1.4.26.26,0,0,0-.17.27.26.26,0,0,0,.32.2"/></g><g class="cls-3"><path class="cls-4" d="M3.75,16.12A.25.25,0,0,0,4,15.87V11.69a.25.25,0,0,0-.5,0v4.18a.25.25,0,0,0,.25.25"/></g><g class="cls-3"><path class="cls-4" d="M1.13,16.12a.25.25,0,0,0,.25-.25V11.69a.25.25,0,0,0-.5,0v4.18a.25.25,0,0,0,.25.25"/></g><g class="cls-3"><path class="cls-4" d="M2.88,16.12a.25.25,0,0,0,.25-.25V11a.25.25,0,0,0-.5,0v4.88a.25.25,0,0,0,.25.25"/></g><g class="cls-3"><path class="cls-4" d="M2,16.12a.26.26,0,0,0,.26-.25V10.05a.26.26,0,0,0-.51,0v5.82a.25.25,0,0,0,.25.25"/></g><g class="cls-3"><path class="cls-4" d="M3.75,20.74a3.74,3.74,0,0,0,.6-7.43v.51A3.24,3.24,0,1,1,.51,17V13.35a.26.26,0,0,0-.25-.26.26.26,0,0,0-.26.26v3.71a3.72,3.72,0,0,0,1.13,2.6,3.68,3.68,0,0,0,2.62,1.08"/></g></g></g></svg>