<svg xmlns="http://www.w3.org/2000/svg" viewBox="0 0 32 32"><defs><style>.cls-1{fill:none;}</style></defs><title>H 32x32 BlackSVG</title><g id="V"><path class="cls-1" d="M10.36,16a1,1,0,1,0,1,1A1,1,0,0,0,10.36,16Z"/><path class="cls-1" d="M16.13,16.07a.93.93,0,1,0,.93.93A.93.93,0,0,0,16.13,16.07Z"/><path class="cls-1" d="M24.73,16.06a.93.93,0,0,0,0,1.86.93.93,0,0,0,0-1.86Z"/><path class="cls-1" d="M20.51,16a1,1,0,1,0,1,1A1,1,0,0,0,20.51,16Z"/><path class="cls-1" d="M27.79,19.46a.42.42,0,0,0-.45.37h.88A.4.4,0,0,0,27.79,19.46Z"/><path class="cls-1" d="M31.2,19.49a.45.45,0,0,0-.47.46.47.47,0,1,0,.93,0A.45.45,0,0,0,31.2,19.49Z"/><path d="M13.25,15.14a.44.44,0,0,0-.45.44v2.8a.45.45,0,0,0,.45.45.45.45,0,0,0,.45-.45v-2.8A.45.45,0,0,0,13.25,15.14Z"/><path d="M17.5,15.15a.45.45,0,0,0-.42.3,1.82,1.82,0,1,0,0,3.11v.32a1,1,0,0,1-1,1,1,1,0,0,1-.75-.33.43.43,0,0,0-.62-.05.45.45,0,0,0-.05.63,1.87,1.87,0,0,0,3.28-1.23V15.59A.44.44,0,0,0,17.5,15.15Zm-1.37,2.78a.93.93,0,1,1,.93-.93A.93.93,0,0,1,16.13,17.93Z"/><path d="M20.51,15.15a1.94,1.94,0,0,0-1,.3V13.76a.45.45,0,0,0-.44-.45.45.45,0,0,0-.44.45v4.61a.44.44,0,0,0,.86.13,1.78,1.78,0,0,0,1,.32,1.84,1.84,0,1,0,0-3.67Zm0,2.79a1,1,0,1,1,0-1.91,1,1,0,1,1,0,1.91Z"/><path d="M10.36,15.15a2,2,0,0,0-1,.3V13.76a.44.44,0,1,0-.87,0v4.61a.44.44,0,0,0,.44.44.45.45,0,0,0,.42-.31,1.76,1.76,0,0,0,1,.32,1.84,1.84,0,0,0,0-3.67Zm0,2.79a1,1,0,1,1,0-1.91,1,1,0,1,1,0,1.91Z"/><path d="M24.73,15.17A1.83,1.83,0,1,0,26.56,17,1.83,1.83,0,0,0,24.73,15.17Zm0,2.75a.93.93,0,1,1,.93-.93A.93.93,0,0,1,24.73,17.92Z"/><path d="M31.13,16.59v1.8a.44.44,0,0,0,.44.44.43.43,0,0,0,.43-.44v-1.8a1.41,1.41,0,0,0-1.42-1.38,1.4,1.4,0,0,0-1,.4,1.46,1.46,0,0,0-1.67-.24.42.42,0,0,0-.34-.17.44.44,0,0,0-.43.44v2.78a.44.44,0,0,0,.87,0V16.59a.57.57,0,0,1,1.13,0v1.8a.43.43,0,1,0,.86,0v-1.8a.54.54,0,0,1,.58-.5A.52.52,0,0,1,31.13,16.59Z"/><path d="M27.79,19.16a.8.8,0,0,0,0,1.59.83.83,0,0,0,.6-.24.14.14,0,0,0,0-.21.17.17,0,0,0-.21,0,.52.52,0,0,1-.37.15.44.44,0,0,1-.46-.38H28.4a.16.16,0,0,0,.15-.16A.74.74,0,0,0,27.79,19.16Zm-.45.67a.42.42,0,0,1,.45-.37.4.4,0,0,1,.43.37Z"/><path d="M29.62,19.49a.57.57,0,0,1,.27.07.18.18,0,0,0,.24,0,.17.17,0,0,0,0-.23.82.82,0,0,0-.47-.14.8.8,0,1,0,0,1.59.75.75,0,0,0,.47-.14.16.16,0,0,0,0-.22.18.18,0,0,0-.24,0,.48.48,0,0,1-.27.08.47.47,0,0,1-.48-.47A.46.46,0,0,1,29.62,19.49Z"/><path d="M31.2,19.16a.8.8,0,1,0,0,1.59.8.8,0,1,0,0-1.59Zm0,1.27a.46.46,0,0,1-.47-.48.47.47,0,0,1,.93,0A.46.46,0,0,1,31.2,20.43Z"/><path d="M4.42,19.36a2.56,2.56,0,0,0,1.75-1.75.25.25,0,0,0-.21-.3.24.24,0,0,0-.27.18,2,2,0,0,1-1.42,1.4.25.25,0,0,0,.15.47Z"/><path d="M3.75,16.12A.25.25,0,0,0,4,15.87V11.69a.25.25,0,0,0-.5,0v4.18A.25.25,0,0,0,3.75,16.12Z"/><path d="M1.13,16.12a.25.25,0,0,0,.25-.25V11.69a.25.25,0,0,0-.5,0v4.18A.25.25,0,0,0,1.13,16.12Z"/><path d="M2.88,16.12a.25.25,0,0,0,.25-.25V11a.25.25,0,0,0-.5,0v4.88A.25.25,0,0,0,2.88,16.12Z"/><path d="M2,16.12a.26.26,0,0,0,.26-.25V10.05a.26.26,0,0,0-.51,0v5.82A.25.25,0,0,0,2,16.12Z"/><path d="M4.35,13.31v.51A3.24,3.24,0,1,1,.51,17V13.35a.26.26,0,0,0-.25-.26.26.26,0,0,0-.26.26v3.71a3.72,3.72,0,0,0,1.13,2.6,3.68,3.68,0,0,0,2.62,1.08,3.74,3.74,0,0,0,.6-7.43Z"/></g></svg>