<svg xmlns="http://www.w3.org/2000/svg" xmlns:xlink="http://www.w3.org/1999/xlink" viewBox="0 0 48 48"><defs><style>.cls-1{fill:none;}.cls-2{fill:#4dae4a;}.cls-3{clip-path:url(#clip-path);}.cls-4{fill:#4cae4a;}</style><clipPath id="clip-path"><rect class="cls-1" x="0.01" y="15.06" width="11.25" height="16.41"/></clipPath></defs><title>H 48x48 GreenSVG</title><g id="V"><g id="_Group_" data-name="&lt;Group&gt;"><path id="_Path_" data-name="&lt;Path&gt;" class="cls-2" d="M19.88,23.06a.68.68,0,0,0-.69.67v4.2a.69.69,0,0,0,.69.68.68.68,0,0,0,.66-.68v-4.2A.67.67,0,0,0,19.88,23.06Z"/><path id="_Compound_Path_" data-name="&lt;Compound Path&gt;" class="cls-2" d="M26.25,23.08a.68.68,0,0,0-.63.46,2.69,2.69,0,0,0-1.42-.4,2.72,2.72,0,1,0,0,5.44,2.7,2.7,0,0,0,1.38-.38v.48a1.47,1.47,0,0,1-2.58,1,.64.64,0,0,0-.93-.06.65.65,0,0,0-.08.93,2.8,2.8,0,0,0,4.92-1.84V23.75A.67.67,0,0,0,26.25,23.08ZM24.2,27.25a1.39,1.39,0,1,1,1.38-1.39A1.39,1.39,0,0,1,24.2,27.25Z"/><path id="_Compound_Path_2" data-name="&lt;Compound Path&gt;" class="cls-2" d="M30.77,23.08a2.9,2.9,0,0,0-1.54.46V21a.66.66,0,0,0-.65-.66.67.67,0,0,0-.67.66v6.93a.66.66,0,0,0,.67.65.67.67,0,0,0,.63-.45,2.76,2.76,0,1,0,1.56-5Zm0,4.2a1.44,1.44,0,1,1,1.43-1.44A1.44,1.44,0,0,1,30.77,27.28Z"/><path id="_Compound_Path_3" data-name="&lt;Compound Path&gt;" class="cls-2" d="M15.54,23.08a2.9,2.9,0,0,0-1.54.46V21a.66.66,0,0,0-.65-.66.67.67,0,0,0-.67.66v6.93a.66.66,0,0,0,.67.65.67.67,0,0,0,.63-.45,2.76,2.76,0,1,0,1.56-5Zm0,4.2A1.44,1.44,0,1,1,17,25.84,1.44,1.44,0,0,1,15.54,27.28Z"/><path id="_Compound_Path_4" data-name="&lt;Compound Path&gt;" class="cls-2" d="M37.1,23.12a2.73,2.73,0,1,0,2.74,2.74A2.74,2.74,0,0,0,37.1,23.12Zm0,4.12a1.39,1.39,0,1,1,1.39-1.39A1.39,1.39,0,0,1,37.1,27.24Z"/><path id="_Path_2" data-name="&lt;Path&gt;" class="cls-2" d="M45.87,23.18a2.14,2.14,0,0,0-1.51.59,2.19,2.19,0,0,0-1.5-.59,2.23,2.23,0,0,0-1,.24.62.62,0,0,0-.5-.26.68.68,0,0,0-.66.67V28a.67.67,0,0,0,.66.65A.65.65,0,0,0,42,28V25.24a.86.86,0,0,1,1.7,0V28a.64.64,0,0,0,.65.66A.66.66,0,0,0,45,28V25.24a.8.8,0,0,1,.86-.75.79.79,0,0,1,.82.75V28a.67.67,0,0,0,.67.66A.64.64,0,0,0,48,28V25.24A2.11,2.11,0,0,0,45.87,23.18Z"/></g><path class="cls-2" d="M42.6,30.48H41a.66.66,0,0,0,.7.57.74.74,0,0,0,.54-.22.27.27,0,0,1,.33,0,.22.22,0,0,1,0,.32,1.26,1.26,0,0,1-.91.36,1.2,1.2,0,0,1,0-2.39,1.11,1.11,0,0,1,1.15,1.14A.23.23,0,0,1,42.6,30.48Zm-.26-.37a.63.63,0,0,0-.66-.57.64.64,0,0,0-.67.57Z"/><path class="cls-2" d="M44.43,29.1a1.2,1.2,0,0,1,.7.21.25.25,0,0,1,.06.34.26.26,0,0,1-.35.05.93.93,0,0,0-.41-.11.7.7,0,0,0-.72.71.69.69,0,0,0,.72.7.81.81,0,0,0,.41-.11.26.26,0,0,1,.35.05.25.25,0,0,1-.06.34,1.2,1.2,0,0,1-.7.21,1.2,1.2,0,1,1,0-2.39Z"/><path class="cls-2" d="M45.6,30.29a1.2,1.2,0,0,1,2.4,0,1.2,1.2,0,1,1-2.4,0Zm1.9,0a.7.7,0,1,0-.71.71A.69.69,0,0,0,47.5,30.29Z"/><g class="cls-3"><g class="cls-3"><path class="cls-4" d="M6.63,29.4a3.82,3.82,0,0,0,2.62-2.63.36.36,0,0,0-.3-.45.37.37,0,0,0-.41.28,3,3,0,0,1-2.13,2.1.37.37,0,0,0,.22.7"/></g><g class="cls-3"><path class="cls-4" d="M5.62,24.55A.38.38,0,0,0,6,24.17V17.9a.38.38,0,1,0-.75,0v6.27a.38.38,0,0,0,.37.38"/></g><g class="cls-3"><path class="cls-4" d="M1.69,24.55a.38.38,0,0,0,.38-.38V17.9a.38.38,0,1,0-.75,0v6.27a.38.38,0,0,0,.37.38"/></g><g class="cls-3"><path class="cls-4" d="M4.32,24.55a.38.38,0,0,0,.38-.38V16.85a.38.38,0,1,0-.76,0v7.32a.38.38,0,0,0,.38.38"/></g><g class="cls-3"><path class="cls-4" d="M3,24.55a.38.38,0,0,0,.37-.38V15.44a.38.38,0,1,0-.75,0v8.73a.38.38,0,0,0,.38.38"/></g><g class="cls-3"><path class="cls-4" d="M5.63,31.48a5.62,5.62,0,0,0,.89-11.16v.77A4.86,4.86,0,1,1,.76,25.83V20.38A.38.38,0,0,0,.38,20a.37.37,0,0,0-.37.38V26a5.63,5.63,0,0,0,5.62,5.53"/></g></g></g></svg>