<svg xmlns="http://www.w3.org/2000/svg" viewBox="0 0 48 48"><defs><style>.cls-1{fill:#fff;}</style></defs><title>H 48x48 WhiteSVG</title><g id="V"><path class="cls-1" d="M19.88,23.06a.68.68,0,0,0-.69.67v4.2a.69.69,0,0,0,.69.68.68.68,0,0,0,.66-.68v-4.2A.67.67,0,0,0,19.88,23.06Z"/><path class="cls-1" d="M26.25,23.08a.69.69,0,0,0-.63.46,2.65,2.65,0,0,0-1.42-.41,2.73,2.73,0,1,0,1.39,5.07v.48a1.47,1.47,0,0,1-1.47,1.47,1.45,1.45,0,0,1-1.11-.5.65.65,0,0,0-.94-.07.68.68,0,0,0-.08.94,2.81,2.81,0,0,0,4.93-1.84V23.74A.67.67,0,0,0,26.25,23.08ZM24.2,27.25a1.4,1.4,0,1,1,1.39-1.39A1.39,1.39,0,0,1,24.2,27.25Z"/><path class="cls-1" d="M30.77,23.08a2.82,2.82,0,0,0-1.54.46V21a.66.66,0,1,0-1.31,0v6.92a.66.66,0,0,0,.66.66.67.67,0,0,0,.63-.46,2.69,2.69,0,0,0,1.56.48,2.76,2.76,0,0,0,0-5.51Zm0,4.19a1.44,1.44,0,1,1,1.44-1.44A1.43,1.43,0,0,1,30.77,27.27Z"/><path class="cls-1" d="M15.54,23.08a2.82,2.82,0,0,0-1.54.46V21a.66.66,0,1,0-1.31,0v6.92a.66.66,0,0,0,1.29.2,2.69,2.69,0,0,0,1.56.48,2.76,2.76,0,0,0,0-5.51Zm0,4.19A1.44,1.44,0,1,1,17,25.83,1.44,1.44,0,0,1,15.54,27.27Z"/><path class="cls-1" d="M37.1,23.11a2.74,2.74,0,1,0,2.75,2.75A2.77,2.77,0,0,0,37.1,23.11Zm0,4.13a1.4,1.4,0,1,1,1.4-1.39A1.39,1.39,0,0,1,37.1,27.24Z"/><path class="cls-1" d="M45.87,23.18a2.14,2.14,0,0,0-1.51.59,2.19,2.19,0,0,0-1.5-.59,2.23,2.23,0,0,0-1,.24.62.62,0,0,0-.5-.26.68.68,0,0,0-.66.67V28a.67.67,0,0,0,.66.65A.65.65,0,0,0,42,28V25.24a.86.86,0,0,1,1.7,0V28a.64.64,0,0,0,.65.66A.66.66,0,0,0,45,28V25.24a.8.8,0,0,1,.86-.75.79.79,0,0,1,.82.75V28a.67.67,0,0,0,.67.66A.64.64,0,0,0,48,28V25.24A2.11,2.11,0,0,0,45.87,23.18Z"/><path class="cls-1" d="M42.84,30.24a1.12,1.12,0,0,0-1.15-1.14,1.13,1.13,0,0,0-1.18,1.18,1.15,1.15,0,0,0,1.18,1.21,1.25,1.25,0,0,0,.9-.37.22.22,0,0,0,0-.32.27.27,0,0,0-.32,0,.78.78,0,0,1-.55.22.66.66,0,0,1-.7-.57H42.6A.23.23,0,0,0,42.84,30.24ZM41,30.1a.64.64,0,0,1,.68-.56.62.62,0,0,1,.65.56Z"/><path class="cls-1" d="M44.43,29.59a.93.93,0,0,1,.41.11.26.26,0,0,0,.35-.05.25.25,0,0,0-.06-.34,1.2,1.2,0,0,0-.7-.21,1.2,1.2,0,1,0,0,2.39,1.2,1.2,0,0,0,.7-.21.25.25,0,0,0,.06-.34.26.26,0,0,0-.35-.05.81.81,0,0,1-.41.11.69.69,0,0,1-.72-.7A.7.7,0,0,1,44.43,29.59Z"/><path class="cls-1" d="M46.8,29.1a1.16,1.16,0,0,0-1.2,1.18,1.2,1.2,0,1,0,2.4,0A1.16,1.16,0,0,0,46.8,29.1Zm0,1.9a.68.68,0,0,1-.69-.72.67.67,0,0,1,.69-.69.68.68,0,0,1,.7.69A.69.69,0,0,1,46.8,31Z"/><path class="cls-1" d="M6.63,29.4a3.82,3.82,0,0,0,2.62-2.63.36.36,0,0,0-.3-.45.38.38,0,0,0-.42.28,3,3,0,0,1-2.12,2.1.37.37,0,0,0,.22.7Z"/><path class="cls-1" d="M5.25,17.9v6.27a.38.38,0,1,0,.75,0V17.9a.38.38,0,1,0-.75,0Z"/><path class="cls-1" d="M1.32,17.9v6.27a.38.38,0,1,0,.75,0V17.9a.38.38,0,1,0-.75,0Z"/><path class="cls-1" d="M3.94,16.85v7.32a.38.38,0,0,0,.76,0V16.85a.38.38,0,1,0-.76,0Z"/><path class="cls-1" d="M2.63,15.44v8.73a.38.38,0,1,0,.75,0V15.44a.38.38,0,1,0-.75,0Z"/><path class="cls-1" d="M5.63,31.48a5.62,5.62,0,0,0,.89-11.16v.77A4.86,4.86,0,1,1,.76,25.83V20.38A.38.38,0,0,0,.38,20a.38.38,0,0,0-.37.38V26a5.63,5.63,0,0,0,5.62,5.53Z"/></g></svg>