<svg id="Layer_1" data-name="Layer 1" xmlns="http://www.w3.org/2000/svg" viewBox="0 0 512 512"><defs><style>.cls-1{fill:#fff;}</style></defs><title>H 512x512  WhiteSVG</title><path class="cls-1" d="M118.57,415.3l-.1,51.84a8.33,8.33,0,1,0,16.65,0l.1-51.84a8.33,8.33,0,0,0-16.65,0Z"/><path class="cls-1" d="M205.62,407.55a8.41,8.41,0,0,0-7.81,5.62,32.61,32.61,0,0,0-17.44-5,33.58,33.58,0,1,0,16.93,62.48v5.91a18,18,0,0,1-18.16,18.09,17.78,17.78,0,0,1-13.69-6.2,8,8,0,0,0-11.55-.83,8.24,8.24,0,0,0-1,11.55,34.56,34.56,0,0,0,60.74-22.58l.12-60.84A8.22,8.22,0,0,0,205.62,407.55Zm-25.35,51.38a17.19,17.19,0,1,1,17.09-17.15A17.23,17.23,0,0,1,180.27,458.93Z"/><path class="cls-1" d="M261.34,407.65a35.25,35.25,0,0,0-18.94,5.61l.06-31.43a8.13,8.13,0,1,0-16.25,0L226,467.21a8.12,8.12,0,0,0,8.18,8.08,8.3,8.3,0,0,0,7.8-5.63,33.57,33.57,0,0,0,19.19,5.95,34,34,0,0,0,.13-68Zm-.1,51.71A17.73,17.73,0,1,1,279,441.67,17.71,17.71,0,0,1,261.24,459.36Z"/><path class="cls-1" d="M73.51,407.29a35.28,35.28,0,0,0-19,5.6l.06-31.42a8.13,8.13,0,1,0-16.25,0l-.17,85.41a8.12,8.12,0,0,0,8.18,8.07,8.26,8.26,0,0,0,7.8-5.62,33.51,33.51,0,0,0,19.19,5.94,34,34,0,1,0,.14-67.95Zm-.1,51.7A17.73,17.73,0,1,1,91.17,441.3,17.71,17.71,0,0,1,73.41,459Z"/><path class="cls-1" d="M339.44,408.21a33.71,33.71,0,1,0,33.78,33.91A33.81,33.81,0,0,0,339.44,408.21Zm-.1,50.9A17.19,17.19,0,1,1,356.57,442,17.14,17.14,0,0,1,339.34,459.11Z"/><path class="cls-1" d="M473.82,434c-.34-13.67-12.11-24.76-26.26-24.79A26.21,26.21,0,0,0,429,416.44a27.16,27.16,0,0,0-18.51-7.29,27.52,27.52,0,0,0-12.37,2.93,7.48,7.48,0,0,0-6.17-3.23,8.29,8.29,0,0,0-8.07,8.18l-.1,51.3a8.14,8.14,0,0,0,8,7.93,8,8,0,0,0,8.08-7.9l.06-33.85c0-5.23,4.72-9.25,10.49-9.24s10.47,4.05,10.46,9.28L420.85,468a8,8,0,1,0,16,0l.06-33.45c0-5.23,4.72-9.25,10.63-9.24,5.51,0,10.2,4.05,10.19,9.28l-.07,33.45a8.12,8.12,0,0,0,8.18,8.07,7.89,7.89,0,0,0,7.94-8l.05-25.31Z"/><path class="cls-1" d="M410.09,496.61c-.24-8.65-6.29-14.1-14.16-14.1-8.06,0-14.54,5.69-14.54,14.65S387.87,512,395.93,512a15.4,15.4,0,0,0,11.14-4.48,2.71,2.71,0,0,0-.12-3.93,3.18,3.18,0,0,0-4,.24c-2.06,1.7-3.75,2.72-6.72,2.72-4.54,0-8.05-2.72-8.66-7.08h19.68A2.84,2.84,0,0,0,410.09,496.61Zm-22.52-1.69c.61-4.36,4-7,8.36-7a7.68,7.68,0,0,1,8.05,7Z"/><path class="cls-1" d="M429.77,488.56a10.42,10.42,0,0,1,5.09,1.39c1.33.79,3.45.73,4.29-.66a3,3,0,0,0-.72-4.18,14.89,14.89,0,0,0-8.66-2.6c-8.11,0-15.08,5.81-15.08,14.77s7,14.71,15.08,14.71a15,15,0,0,0,8.66-2.6,3,3,0,0,0,.72-4.18c-.84-1.39-3-1.45-4.29-.66a10.42,10.42,0,0,1-5.09,1.39,8.69,8.69,0,1,1,0-17.38Z"/><path class="cls-1" d="M459,482.51c-8,0-14.71,5.69-14.71,14.65a14.77,14.77,0,1,0,29.54,0C473.79,488.2,467,482.51,459,482.51Zm0,23.43a8.69,8.69,0,1,1,8.66-8.78A8.4,8.4,0,0,1,459,505.94Z"/><path class="cls-1" d="M271.18,312a8.16,8.16,0,0,0,10.52,6.41c16-5.15,48.52-20.09,58.12-58.25a8.18,8.18,0,0,0-15.93-3.73C316,287.39,289.48,299.07,276.77,303A8.14,8.14,0,0,0,271.18,312Z"/><path class="cls-1" d="M251,63.64V202.55a8.36,8.36,0,1,0,16.71,0V63.64a8.36,8.36,0,1,0-16.71,0Z"/><path class="cls-1" d="M163.91,63.64V202.55a8.36,8.36,0,1,0,16.71,0V63.64a8.36,8.36,0,1,0-16.71,0Z"/><path class="cls-1" d="M222.06,40.37V202.55a8.36,8.36,0,1,0,16.71,0V40.37a8.36,8.36,0,1,0-16.71,0Z"/><path class="cls-1" d="M193,9.12V202.55a8.36,8.36,0,1,0,16.71,0V9.12a8.36,8.36,0,1,0-16.71,0Z"/><path class="cls-1" d="M259.49,364.55a124.43,124.43,0,0,0,19.79-247.26v17.08a107.66,107.66,0,0,1-19.8,213.48c-59.37,0-107.94-49.12-107.94-108.49V118.54a8.36,8.36,0,1,0-16.71,0V242A125.06,125.06,0,0,0,259.49,364.55Z"/></svg>