<svg xmlns="http://www.w3.org/2000/svg" viewBox="0 0 512 512"><defs><style>.cls-1{fill:#fff;}</style></defs><title>H 512x512 WhiteSVG</title><g id="V"><path class="cls-1" d="M499.14,322.62a7.52,7.52,0,0,0,0,15,7.52,7.52,0,0,0,0-15Z"/><path class="cls-1" d="M212,253a7.16,7.16,0,0,0-7.31,7.08V304.9a7.2,7.2,0,1,0,14.4,0V260.06A7.11,7.11,0,0,0,212,253Z"/><path class="cls-1" d="M280,253.21a7.28,7.28,0,0,0-6.74,4.88,28.2,28.2,0,0,0-15.09-4.3,29,29,0,1,0,14.75,54v5.11a15.62,15.62,0,0,1-15.68,15.68,15.34,15.34,0,0,1-11.85-5.34,6.93,6.93,0,0,0-10-.7,7.13,7.13,0,0,0-.81,10,29.89,29.89,0,0,0,52.5-19.63V260.3A7.12,7.12,0,0,0,280,253.21ZM258.14,297.7a14.87,14.87,0,1,1,14.75-14.87A14.9,14.9,0,0,1,258.14,297.7Z"/><path class="cls-1" d="M328.17,253.21a30.5,30.5,0,0,0-16.38,4.88V230.91a7,7,0,1,0-14.05,0v73.87a7,7,0,0,0,7.08,7,7.16,7.16,0,0,0,6.74-4.88A29,29,0,0,0,328.17,312a29.39,29.39,0,1,0,0-58.77Zm0,44.72A15.33,15.33,0,1,1,343.5,282.6,15.31,15.31,0,0,1,328.17,297.93Z"/><path class="cls-1" d="M165.71,253.21a30.44,30.44,0,0,0-16.37,4.88V230.91a7,7,0,1,0-14.06,0v73.87a7,7,0,0,0,7.08,7,7.16,7.16,0,0,0,6.74-4.88A29,29,0,0,0,165.71,312a29.39,29.39,0,1,0,0-58.77Zm0,44.72A15.33,15.33,0,1,1,181,282.6,15.31,15.31,0,0,1,165.71,297.93Z"/><path class="cls-1" d="M395.72,253.56A29.16,29.16,0,1,0,425,282.83,29.25,29.25,0,0,0,395.72,253.56Zm0,44a14.87,14.87,0,1,1,14.86-14.87A14.82,14.82,0,0,1,395.72,297.58Z"/><path class="cls-1" d="M489.23,254.25a22.67,22.67,0,0,0-16,6.28,23.47,23.47,0,0,0-16-6.28,23.83,23.83,0,0,0-10.69,2.56,6.5,6.5,0,0,0-5.34-2.79,7.17,7.17,0,0,0-7,7.09v44.37a7,7,0,0,0,7,6.85,6.89,6.89,0,0,0,7-6.85V276.21c0-4.53,4.06-8,9.06-8s9.05,3.49,9.05,8v28.92a6.92,6.92,0,1,0,13.83,0V276.21c0-4.53,4.06-8,9.17-8,4.77,0,8.83,3.49,8.83,8v28.92a7,7,0,0,0,7.08,7,6.82,6.82,0,0,0,6.86-7V276.21C512,264.13,501.66,254.25,489.23,254.25Z"/><path class="cls-1" d="M456.88,329.59c-.21-7.49-5.45-12.2-12.25-12.2-7,0-12.57,4.92-12.57,12.67s5.6,12.83,12.57,12.83a13.3,13.3,0,0,0,9.63-3.88,2.35,2.35,0,0,0-.1-3.4,2.76,2.76,0,0,0-3.46.21,8.23,8.23,0,0,1-5.81,2.36c-3.93,0-7-2.36-7.49-6.13h17A2.46,2.46,0,0,0,456.88,329.59Zm-19.48-1.47c.52-3.77,3.46-6,7.23-6a6.64,6.64,0,0,1,7,6Z"/><path class="cls-1" d="M473.9,322.62a8.87,8.87,0,0,1,4.4,1.21c1.15.68,3,.62,3.72-.58a2.62,2.62,0,0,0-.63-3.61,12.88,12.88,0,0,0-7.49-2.26c-7,0-13,5-13,12.78s6,12.73,13,12.73a13,13,0,0,0,7.49-2.25A2.63,2.63,0,0,0,482,337c-.73-1.2-2.57-1.25-3.72-.57a9,9,0,0,1-4.4,1.2,7.52,7.52,0,1,1,0-15Z"/><path class="cls-1" d="M499.14,317.39c-6.91,0-12.72,4.92-12.72,12.67a12.78,12.78,0,1,0,25.55,0C512,322.31,506.11,317.39,499.14,317.39Zm0,20.26a7.52,7.52,0,1,1,7.49-7.59A7.26,7.26,0,0,1,499.14,337.65Z"/><path class="cls-1" d="M70.71,320.54c7.71-2.48,23.35-9.67,28-28a3.93,3.93,0,0,0-3.28-4.79,4,4,0,0,0-4.39,3c-3.8,14.89-16.56,20.51-22.67,22.39a3.9,3.9,0,1,0,2.37,7.44Z"/><path class="cls-1" d="M64,264.77V197.91a4,4,0,0,0-8,0v66.86a4,4,0,0,0,8,0Z"/><path class="cls-1" d="M22.07,264.77V197.91a4,4,0,0,0-8,0v66.86a4,4,0,0,0,8.05,0Z"/><path class="cls-1" d="M50.05,264.77v-78a4,4,0,1,0-8,0v78a4,4,0,1,0,8,0Z"/><path class="cls-1" d="M36.06,264.77V171.68a4,4,0,1,0-8,0v93.09a4,4,0,0,0,8,0Z"/><path class="cls-1" d="M69.54,223.73V232A51.82,51.82,0,0,1,60,334.7c-28.57,0-51.94-23.65-51.94-52.21V224.34a4,4,0,1,0-8,0v59.4a59.93,59.93,0,1,0,69.51-60Z"/></g></svg>