<svg xmlns="http://www.w3.org/2000/svg" xmlns:xlink="http://www.w3.org/1999/xlink" viewBox="0 0 512 512"><defs><style>.cls-1{fill:none;}.cls-2{fill:#4dae4a;}.cls-3{clip-path:url(#clip-path);}.cls-4{fill:#4cae4a;}</style><clipPath id="clip-path"><rect class="cls-1" x="0.03" y="167.65" width="119.99" height="175.09"/></clipPath></defs><title>H 512x512  GreenSVG</title><g id="V"><g id="_Group_" data-name="&lt;Group&gt;"><path id="_Path_" data-name="&lt;Path&gt;" class="cls-2" d="M212,253a7.16,7.16,0,0,0-7.31,7.08V304.9a7.2,7.2,0,1,0,14.4,0V260.06A7.11,7.11,0,0,0,212,253Z"/><path id="_Compound_Path_" data-name="&lt;Compound Path&gt;" class="cls-2" d="M280,253.21a7.29,7.29,0,0,0-6.74,4.88,28.2,28.2,0,0,0-15.09-4.3,29,29,0,1,0,14.75,54v5.11a15.62,15.62,0,0,1-15.68,15.68,15.38,15.38,0,0,1-11.85-5.34,6.93,6.93,0,0,0-10-.7,7.13,7.13,0,0,0-.81,10,29.89,29.89,0,0,0,52.5-19.63V260.3A7.12,7.12,0,0,0,280,253.21ZM258.14,297.7a14.87,14.87,0,1,1,14.75-14.87A14.9,14.9,0,0,1,258.14,297.7Z"/><path id="_Compound_Path_2" data-name="&lt;Compound Path&gt;" class="cls-2" d="M328.17,253.21a30.5,30.5,0,0,0-16.38,4.88V230.91a7,7,0,1,0-14.05,0v73.87a7,7,0,0,0,7.08,7,7.16,7.16,0,0,0,6.74-4.88A29,29,0,0,0,328.17,312a29.39,29.39,0,1,0,0-58.77Zm0,44.72A15.34,15.34,0,1,1,343.5,282.6,15.32,15.32,0,0,1,328.17,297.93Z"/><path id="_Compound_Path_3" data-name="&lt;Compound Path&gt;" class="cls-2" d="M165.71,253.21a30.44,30.44,0,0,0-16.37,4.88V230.91a7,7,0,1,0-14.06,0v73.87a7,7,0,0,0,7.08,7,7.16,7.16,0,0,0,6.74-4.88A29,29,0,0,0,165.71,312a29.39,29.39,0,1,0,0-58.77Zm0,44.72A15.34,15.34,0,1,1,181,282.6,15.32,15.32,0,0,1,165.71,297.93Z"/><path id="_Compound_Path_4" data-name="&lt;Compound Path&gt;" class="cls-2" d="M395.72,253.56A29.16,29.16,0,1,0,425,282.83,29.25,29.25,0,0,0,395.72,253.56Zm0,44a14.87,14.87,0,1,1,14.86-14.87A14.82,14.82,0,0,1,395.72,297.58Z"/><path id="_Path_2" data-name="&lt;Path&gt;" class="cls-2" d="M489.23,254.25a22.67,22.67,0,0,0-16,6.28,23.47,23.47,0,0,0-16-6.28,23.83,23.83,0,0,0-10.69,2.56,6.5,6.5,0,0,0-5.34-2.79,7.17,7.17,0,0,0-7,7.09v44.37a7,7,0,0,0,7,6.85,6.89,6.89,0,0,0,7-6.85V276.21c0-4.53,4.06-8,9.06-8s9.05,3.49,9.05,8v28.92a6.92,6.92,0,1,0,13.83,0V276.21c0-4.53,4.06-8,9.17-8,4.77,0,8.83,3.49,8.83,8v28.92a7,7,0,0,0,7.08,7,6.82,6.82,0,0,0,6.86-7V276.21C512,264.13,501.66,254.25,489.23,254.25Z"/></g><path class="cls-2" d="M454.42,332.05h-17c.52,3.77,3.56,6.12,7.49,6.12a8.24,8.24,0,0,0,5.81-2.35,2.75,2.75,0,0,1,3.46-.21,2.35,2.35,0,0,1,.1,3.4,13.3,13.3,0,0,1-9.63,3.88c-7,0-12.57-5.08-12.57-12.83s5.6-12.68,12.57-12.68c6.81,0,12,4.72,12.25,12.21A2.46,2.46,0,0,1,454.42,332.05Zm-2.83-3.93a6.64,6.64,0,0,0-7-6c-3.77,0-6.71,2.25-7.23,6Z"/><path class="cls-2" d="M473.9,317.38a12.88,12.88,0,0,1,7.49,2.26,2.62,2.62,0,0,1,.63,3.61c-.73,1.2-2.57,1.26-3.72.58a8.87,8.87,0,0,0-4.4-1.21,7.52,7.52,0,1,0,0,15,9,9,0,0,0,4.4-1.2c1.15-.68,3-.63,3.72.57a2.63,2.63,0,0,1-.63,3.62,13,13,0,0,1-7.49,2.25c-7,0-13-5-13-12.73S466.88,317.38,473.9,317.38Z"/><path class="cls-2" d="M486.42,330.06c0-7.75,5.81-12.68,12.72-12.68S512,322.31,512,330.06a12.78,12.78,0,1,1-25.55,0Zm20.21,0a7.44,7.44,0,1,0-7.49,7.59A7.25,7.25,0,0,0,506.63,330.06Z"/><g class="cls-3"><g class="cls-3"><path class="cls-4" d="M70.71,320.54c7.71-2.48,23.35-9.67,28-28a3.93,3.93,0,0,0-3.28-4.79,4,4,0,0,0-4.39,3c-3.8,14.89-16.56,20.51-22.67,22.39a3.9,3.9,0,1,0,2.37,7.44"/></g><g class="cls-3"><path class="cls-4" d="M60,268.79a4,4,0,0,0,4-4V197.91a4,4,0,0,0-8,0v66.86a4,4,0,0,0,4,4"/></g><g class="cls-3"><path class="cls-4" d="M18.05,268.79a4,4,0,0,0,4-4V197.91a4,4,0,0,0-8,0v66.86a4,4,0,0,0,4,4"/></g><g class="cls-3"><path class="cls-4" d="M46,268.79a4,4,0,0,0,4-4v-78a4,4,0,1,0-8,0v78a4,4,0,0,0,4,4"/></g><g class="cls-3"><path class="cls-4" d="M32,268.79a4,4,0,0,0,4-4V171.68a4,4,0,1,0-8,0v93.09a4,4,0,0,0,4,4"/></g><g class="cls-3"><path class="cls-4" d="M60,342.73a59.88,59.88,0,0,0,9.53-119V232A51.82,51.82,0,0,1,60,334.7c-28.57,0-51.94-23.65-51.94-52.21V224.34a4,4,0,1,0-8,0v59.4a60.17,60.17,0,0,0,60,59"/></g></g></g></svg>