<svg xmlns="http://www.w3.org/2000/svg" viewBox="0 0 64 64"><title>H 64x64 BlackSVG</title><g id="V"><path d="M26.51,31a.9.9,0,0,0-.92.89v5.6a.9.9,0,1,0,1.8,0v-5.6A.89.89,0,0,0,26.51,31Z"/><path d="M35,31a.91.91,0,0,0-.84.6,3.58,3.58,0,0,0-1.89-.53,3.63,3.63,0,1,0,1.85,6.75v.64a2,2,0,0,1-2,2,1.93,1.93,0,0,1-1.48-.67.87.87,0,0,0-1.25-.09.89.89,0,0,0-.1,1.25,3.74,3.74,0,0,0,6.56-2.45V31.9A.88.88,0,0,0,35,31Zm-2.73,5.56a1.86,1.86,0,1,1,1.85-1.86A1.86,1.86,0,0,1,32.27,36.58Z"/><path d="M41,31a3.88,3.88,0,0,0-2.05.6V28.23a.88.88,0,1,0-1.76,0v9.23a.88.88,0,0,0,.89.87.9.9,0,0,0,.84-.61,3.61,3.61,0,0,0,2.08.64A3.67,3.67,0,1,0,41,31Zm0,5.58a1.92,1.92,0,1,1,1.91-1.91A1.91,1.91,0,0,1,41,36.6Z"/><path d="M20.72,31a3.9,3.9,0,0,0-2,.6V28.23a.88.88,0,1,0-1.75,0v9.23a.87.87,0,0,0,.88.87.89.89,0,0,0,.84-.61,3.63,3.63,0,0,0,2.08.64,3.67,3.67,0,1,0,0-7.34Zm0,5.58a1.92,1.92,0,1,1,1.92-1.91A1.91,1.91,0,0,1,20.72,36.6Z"/><path d="M49.47,31.06a3.65,3.65,0,1,0,3.66,3.66A3.65,3.65,0,0,0,49.47,31.06Zm0,5.5a1.86,1.86,0,1,1,1.86-1.86A1.86,1.86,0,0,1,49.47,36.56Z"/><path d="M61.15,31.15a2.85,2.85,0,0,0-2,.78,3,3,0,0,0-2-.78,3,3,0,0,0-1.34.32.82.82,0,0,0-.67-.35.9.9,0,0,0-.87.89v5.54a.88.88,0,0,0,.87.86.86.86,0,0,0,.88-.86V33.89a1.14,1.14,0,0,1,2.26,0v3.62a.87.87,0,1,0,1.73,0V33.89a1.13,1.13,0,0,1,2.25,0v3.62a.87.87,0,0,0,.88.87.86.86,0,0,0,.86-.87V33.89A2.81,2.81,0,0,0,61.15,31.15Z"/><path d="M57.11,40.56A1.48,1.48,0,0,0,55.58,39,1.51,1.51,0,0,0,54,40.62a1.53,1.53,0,0,0,1.57,1.6,1.68,1.68,0,0,0,1.21-.48.29.29,0,0,0,0-.43.35.35,0,0,0-.43,0,1,1,0,0,1-.72.29.88.88,0,0,1-.94-.76h2.13A.3.3,0,0,0,57.11,40.56Zm-2.43-.18a.86.86,0,0,1,.9-.75.82.82,0,0,1,.87.75Z"/><path d="M59.24,39.7a1.06,1.06,0,0,1,.55.15.35.35,0,0,0,.46-.08.32.32,0,0,0-.08-.45,1.62,1.62,0,0,0-.93-.28,1.6,1.6,0,1,0,0,3.19,1.62,1.62,0,0,0,.93-.28.32.32,0,0,0,.08-.45.34.34,0,0,0-.46-.08,1.06,1.06,0,0,1-.55.15.94.94,0,1,1,0-1.87Z"/><path d="M62.4,39a1.53,1.53,0,0,0-1.59,1.58A1.6,1.6,0,1,0,62.4,39Zm0,2.53a.94.94,0,1,1,.93-1A.91.91,0,0,1,62.4,41.57Z"/><path d="M8.84,39.44a5.06,5.06,0,0,0,3.5-3.51.49.49,0,0,0-.41-.6.5.5,0,0,0-.55.38A4,4,0,0,1,8.55,38.5a.49.49,0,0,0,.29.94Z"/><path d="M7,24.11v8.35a.5.5,0,1,0,1,0V24.11a.5.5,0,0,0-1,0Z"/><path d="M1.76,24.11v8.35a.5.5,0,1,0,1,0V24.11a.5.5,0,0,0-1,0Z"/><path d="M5.25,22.71v9.75a.51.51,0,0,0,.51.51.5.5,0,0,0,.5-.51V22.71a.5.5,0,0,0-.5-.5A.5.5,0,0,0,5.25,22.71Z"/><path d="M3.51,20.83V32.46a.5.5,0,1,0,1,0V20.83a.5.5,0,0,0-1,0Z"/><path d="M7.51,42.21A7.48,7.48,0,0,0,8.7,27.34v1A6.48,6.48,0,1,1,1,34.68V27.41a.5.5,0,0,0-.5-.5.5.5,0,0,0-.5.5v7.43a7.51,7.51,0,0,0,7.5,7.37Z"/></g></svg>