<svg xmlns="http://www.w3.org/2000/svg" xmlns:xlink="http://www.w3.org/1999/xlink" viewBox="0 0 64 64"><defs><style>.cls-1{fill:none;}.cls-2{fill:#4dae4a;}.cls-3{clip-path:url(#clip-path);}.cls-4{fill:#4cae4a;}</style><clipPath id="clip-path"><rect class="cls-1" x="0.01" y="20.33" width="15" height="21.88"/></clipPath></defs><title>H 64x64 GreenSVG</title><g id="V"><g id="_Group_" data-name="&lt;Group&gt;"><path id="_Path_" data-name="&lt;Path&gt;" class="cls-2" d="M26.51,31a.9.9,0,0,0-.92.89v5.6a.9.9,0,1,0,1.8,0v-5.6A.89.89,0,0,0,26.51,31Z"/><path id="_Compound_Path_" data-name="&lt;Compound Path&gt;" class="cls-2" d="M35,31a.91.91,0,0,0-.84.61,3.55,3.55,0,0,0-1.89-.54,3.63,3.63,0,1,0,0,7.26,3.58,3.58,0,0,0,1.84-.51v.64a2,2,0,0,1-2,2,1.93,1.93,0,0,1-1.48-.67.87.87,0,0,0-1.25-.08.9.9,0,0,0-.1,1.25,3.74,3.74,0,0,0,6.56-2.46V31.91A.89.89,0,0,0,35,31Zm-2.73,5.56a1.86,1.86,0,1,1,1.84-1.86A1.86,1.86,0,0,1,32.27,36.58Z"/><path id="_Compound_Path_2" data-name="&lt;Compound Path&gt;" class="cls-2" d="M41,31a3.76,3.76,0,0,0-2,.61v-3.4a.88.88,0,1,0-1.76,0v9.24a.88.88,0,0,0,.88.87.9.9,0,0,0,.85-.61A3.68,3.68,0,1,0,41,31Zm0,5.59a1.92,1.92,0,1,1,1.92-1.92A1.91,1.91,0,0,1,41,36.61Z"/><path id="_Compound_Path_3" data-name="&lt;Compound Path&gt;" class="cls-2" d="M20.72,31a3.8,3.8,0,0,0-2,.61v-3.4a.88.88,0,0,0-.87-.88.89.89,0,0,0-.89.88v9.24a.89.89,0,0,0,1.73.26A3.68,3.68,0,1,0,20.72,31Zm0,5.59a1.92,1.92,0,1,1,1.91-1.92A1.92,1.92,0,0,1,20.72,36.61Z"/><path id="_Compound_Path_4" data-name="&lt;Compound Path&gt;" class="cls-2" d="M49.47,31.06a3.65,3.65,0,1,0,3.65,3.66A3.66,3.66,0,0,0,49.47,31.06Zm0,5.51a1.86,1.86,0,1,1,1.85-1.86A1.85,1.85,0,0,1,49.47,36.57Z"/><path id="_Path_2" data-name="&lt;Path&gt;" class="cls-2" d="M61.15,31.15a2.85,2.85,0,0,0-2,.78,3,3,0,0,0-2-.78,3,3,0,0,0-1.34.32.82.82,0,0,0-.67-.35.9.9,0,0,0-.87.89v5.54a.88.88,0,0,0,.87.86.86.86,0,0,0,.88-.86V33.89a1.14,1.14,0,0,1,2.26,0v3.62a.87.87,0,1,0,1.73,0V33.89a1.13,1.13,0,0,1,2.25,0v3.62a.87.87,0,0,0,.88.87.86.86,0,0,0,.86-.87V33.89A2.81,2.81,0,0,0,61.15,31.15Z"/></g><path class="cls-2" d="M56.8,40.87H54.68a.88.88,0,0,0,.93.77,1,1,0,0,0,.73-.3.34.34,0,0,1,.43,0,.29.29,0,0,1,0,.42,1.65,1.65,0,0,1-1.2.49A1.54,1.54,0,0,1,54,40.62,1.52,1.52,0,0,1,55.58,39a1.49,1.49,0,0,1,1.53,1.53A.3.3,0,0,1,56.8,40.87Zm-.35-.49a.83.83,0,0,0-.87-.75.85.85,0,0,0-.9.75Z"/><path class="cls-2" d="M59.24,39a1.62,1.62,0,0,1,.93.28.32.32,0,0,1,.08.45.35.35,0,0,1-.46.08,1.06,1.06,0,0,0-.55-.15.94.94,0,1,0,0,1.87,1.06,1.06,0,0,0,.55-.15.34.34,0,0,1,.46.08.32.32,0,0,1-.08.45,1.62,1.62,0,0,1-.93.28,1.6,1.6,0,1,1,0-3.19Z"/><path class="cls-2" d="M60.8,40.62a1.6,1.6,0,0,1,3.2,0,1.6,1.6,0,1,1-3.2,0Zm2.53,0a.9.9,0,0,0-.94-.92.89.89,0,0,0-.92.92.91.91,0,0,0,.92,1A.92.92,0,0,0,63.33,40.62Z"/><g class="cls-3"><g class="cls-3"><path class="cls-4" d="M8.84,39.44a5.06,5.06,0,0,0,3.5-3.51.49.49,0,0,0-.41-.6.5.5,0,0,0-.55.38,4.06,4.06,0,0,1-2.83,2.8.48.48,0,0,0-.34.54.5.5,0,0,0,.63.39"/></g><g class="cls-3"><path class="cls-4" d="M7.5,33a.5.5,0,0,0,.5-.51V24.11a.5.5,0,0,0-1,0v8.35a.5.5,0,0,0,.5.51"/></g><g class="cls-3"><path class="cls-4" d="M2.26,33a.5.5,0,0,0,.5-.51V24.11a.5.5,0,0,0-1,0v8.35a.5.5,0,0,0,.5.51"/></g><g class="cls-3"><path class="cls-4" d="M5.76,33a.5.5,0,0,0,.5-.51V22.71a.5.5,0,0,0-.5-.5.5.5,0,0,0-.51.5v9.75a.51.51,0,0,0,.51.51"/></g><g class="cls-3"><path class="cls-4" d="M4,33a.5.5,0,0,0,.5-.51V20.83a.5.5,0,0,0-1,0V32.46A.5.5,0,0,0,4,33"/></g><g class="cls-3"><path class="cls-4" d="M7.51,42.21A7.48,7.48,0,0,0,8.7,27.34v1A6.48,6.48,0,1,1,1,34.68V27.41a.5.5,0,0,0-.5-.5.5.5,0,0,0-.5.5v7.43a7.51,7.51,0,0,0,7.5,7.37"/></g></g></g></svg>