<svg xmlns="http://www.w3.org/2000/svg" xmlns:xlink="http://www.w3.org/1999/xlink" viewBox="0 0 96 96"><defs><style>.cls-1{fill:none;}.cls-2{fill:#4dae4a;}.cls-3{clip-path:url(#clip-path);}.cls-4{fill:#4cae4a;}</style><clipPath id="clip-path"><rect class="cls-1" x="0.01" y="30.85" width="22.5" height="32.83"/></clipPath></defs><title>H 96x96 GreenSVG</title><g id="V"><g id="_Group_" data-name="&lt;Group&gt;"><path id="_Path_" data-name="&lt;Path&gt;" class="cls-2" d="M39.76,46.85a1.34,1.34,0,0,0-1.37,1.32v8.41a1.35,1.35,0,1,0,2.7,0V48.17A1.33,1.33,0,0,0,39.76,46.85Z"/><path id="_Compound_Path_" data-name="&lt;Compound Path&gt;" class="cls-2" d="M52.5,46.89a1.37,1.37,0,0,0-1.27.91A5.27,5.27,0,0,0,48.4,47a5.45,5.45,0,1,0,2.77,10.12v1A2.93,2.93,0,0,1,48.23,61,2.88,2.88,0,0,1,46,60a1.3,1.3,0,0,0-1.87-.13A1.34,1.34,0,0,0,44,61.76a5.61,5.61,0,0,0,9.85-3.68V48.22A1.34,1.34,0,0,0,52.5,46.89Zm-4.1,8.34a2.79,2.79,0,1,1,2.77-2.79A2.79,2.79,0,0,1,48.4,55.23Z"/><path id="_Compound_Path_2" data-name="&lt;Compound Path&gt;" class="cls-2" d="M61.53,46.89a5.79,5.79,0,0,0-3.07.91V42.71a1.32,1.32,0,1,0-2.63,0V56.56a1.31,1.31,0,0,0,1.33,1.3A1.34,1.34,0,0,0,58.42,57a5.43,5.43,0,0,0,3.11,1,5.51,5.51,0,1,0,0-11Zm0,8.38a2.88,2.88,0,0,1,0-5.75,2.88,2.88,0,1,1,0,5.75Z"/><path id="_Compound_Path_3" data-name="&lt;Compound Path&gt;" class="cls-2" d="M31.08,46.89A5.79,5.79,0,0,0,28,47.8V42.71a1.32,1.32,0,1,0-2.63,0V56.56a1.31,1.31,0,0,0,1.33,1.3A1.33,1.33,0,0,0,28,57a5.44,5.44,0,0,0,3.12,1,5.51,5.51,0,0,0,0-11Zm0,8.38A2.88,2.88,0,1,1,34,52.4,2.87,2.87,0,0,1,31.08,55.27Z"/><path id="_Compound_Path_4" data-name="&lt;Compound Path&gt;" class="cls-2" d="M74.2,47a5.47,5.47,0,1,0,5.49,5.48A5.48,5.48,0,0,0,74.2,47Zm0,8.25A2.79,2.79,0,1,1,77,52.42,2.78,2.78,0,0,1,74.2,55.21Z"/><path id="_Path_2" data-name="&lt;Path&gt;" class="cls-2" d="M91.73,47.09a4.22,4.22,0,0,0-3,1.17,4.41,4.41,0,0,0-3-1.17,4.49,4.49,0,0,0-2,.47,1.23,1.23,0,0,0-1-.52,1.35,1.35,0,0,0-1.31,1.33v8.32A1.32,1.32,0,0,0,82.72,58,1.28,1.28,0,0,0,84,56.69V51.2a1.71,1.71,0,0,1,3.4,0v5.42a1.3,1.3,0,1,0,2.59,0V51.2a1.7,1.7,0,0,1,3.38,0v5.42a1.32,1.32,0,0,0,1.32,1.31A1.29,1.29,0,0,0,96,56.62V51.2A4.22,4.22,0,0,0,91.73,47.09Z"/></g><path class="cls-2" d="M85.2,61.67H82a1.33,1.33,0,0,0,1.41,1.15,1.58,1.58,0,0,0,1.09-.44.51.51,0,0,1,.65,0,.45.45,0,0,1,0,.64,2.51,2.51,0,0,1-1.81.72,2.39,2.39,0,0,1,0-4.78,2.24,2.24,0,0,1,2.3,2.29A.47.47,0,0,1,85.2,61.67Zm-.53-.74a1.23,1.23,0,0,0-1.3-1.12A1.29,1.29,0,0,0,82,60.93Z"/><path class="cls-2" d="M88.86,58.92a2.44,2.44,0,0,1,1.4.42.49.49,0,0,1,.12.68.52.52,0,0,1-.7.11,1.63,1.63,0,0,0-.82-.23,1.41,1.41,0,1,0,0,2.82,1.73,1.73,0,0,0,.82-.22.53.53,0,0,1,.7.1.49.49,0,0,1-.12.68,2.42,2.42,0,1,1-1.4-4.36Z"/><path class="cls-2" d="M91.2,61.3a2.4,2.4,0,0,1,4.8,0,2.4,2.4,0,1,1-4.8,0Zm3.79,0a1.39,1.39,0,1,0-1.4,1.42A1.36,1.36,0,0,0,95,61.3Z"/><g class="cls-3"><g class="cls-3"><path class="cls-4" d="M13.26,59.51a7.58,7.58,0,0,0,5.25-5.25.74.74,0,0,0-1.44-.34,6,6,0,0,1-4.25,4.2.73.73,0,1,0,.44,1.39"/></g><g class="cls-3"><path class="cls-4" d="M11.25,49.81a.76.76,0,0,0,.75-.75V36.52a.76.76,0,0,0-1.51,0V49.06a.76.76,0,0,0,.76.75"/></g><g class="cls-3"><path class="cls-4" d="M3.39,49.81a.75.75,0,0,0,.75-.75V36.52a.75.75,0,0,0-1.5,0V49.06a.75.75,0,0,0,.75.75"/></g><g class="cls-3"><path class="cls-4" d="M8.64,49.81a.76.76,0,0,0,.75-.75V34.42a.76.76,0,0,0-1.51,0V49.06a.76.76,0,0,0,.76.75"/></g><g class="cls-3"><path class="cls-4" d="M6,49.81a.76.76,0,0,0,.76-.75V31.6a.76.76,0,0,0-1.51,0V49.06a.76.76,0,0,0,.75.75"/></g><g class="cls-3"><path class="cls-4" d="M11.26,63.67A11.23,11.23,0,0,0,13,41.36V42.9A9.72,9.72,0,1,1,1.52,52.38V41.48a.76.76,0,1,0-1.51,0V52.61A11.29,11.29,0,0,0,11.26,63.67"/></g></g></g></svg>