<svg xmlns="http://www.w3.org/2000/svg" viewBox="0 0 96 96"><title>H 96x96 BlackSVG</title><g id="V"><path d="M39.76,46.85a1.34,1.34,0,0,0-1.37,1.32v8.41a1.35,1.35,0,1,0,2.7,0V48.17A1.33,1.33,0,0,0,39.76,46.85Z"/><path d="M52.5,46.88a1.38,1.38,0,0,0-1.27.92A5.28,5.28,0,0,0,48.4,47a5.45,5.45,0,1,0,2.77,10.13v1A2.93,2.93,0,0,1,48.23,61,2.88,2.88,0,0,1,46,60a1.3,1.3,0,0,0-1.88-.13A1.34,1.34,0,0,0,44,61.76a5.61,5.61,0,0,0,9.85-3.68V48.21A1.34,1.34,0,0,0,52.5,46.88Zm-4.1,8.35a2.79,2.79,0,1,1,2.77-2.79A2.8,2.8,0,0,1,48.4,55.23Z"/><path d="M61.53,46.88a5.71,5.71,0,0,0-3.07.92V42.7a1.32,1.32,0,1,0-2.63,0V56.55a1.32,1.32,0,0,0,1.33,1.31A1.35,1.35,0,0,0,58.42,57a5.42,5.42,0,0,0,3.11.95,5.51,5.51,0,1,0,0-11Zm0,8.39a2.88,2.88,0,1,1,2.88-2.88A2.87,2.87,0,0,1,61.53,55.27Z"/><path d="M31.07,46.88A5.71,5.71,0,0,0,28,47.8V42.7a1.32,1.32,0,1,0-2.63,0V56.55A1.33,1.33,0,0,0,28,57a5.42,5.42,0,0,0,3.11.95,5.51,5.51,0,1,0,0-11Zm0,8.39A2.88,2.88,0,1,1,34,52.39,2.87,2.87,0,0,1,31.07,55.27Z"/><path d="M74.2,47a5.47,5.47,0,1,0,5.49,5.49A5.48,5.48,0,0,0,74.2,47Zm0,8.25A2.79,2.79,0,1,1,77,52.42,2.78,2.78,0,0,1,74.2,55.2Z"/><path d="M91.73,47.09a4.22,4.22,0,0,0-3,1.17,4.41,4.41,0,0,0-3-1.17,4.49,4.49,0,0,0-2,.47,1.23,1.23,0,0,0-1-.52,1.35,1.35,0,0,0-1.31,1.33v8.32A1.32,1.32,0,0,0,82.72,58,1.28,1.28,0,0,0,84,56.69V51.2a1.71,1.71,0,0,1,3.4,0v5.42a1.3,1.3,0,1,0,2.59,0V51.2a1.7,1.7,0,0,1,3.38,0v5.42a1.32,1.32,0,0,0,1.32,1.31A1.29,1.29,0,0,0,96,56.62V51.2A4.22,4.22,0,0,0,91.73,47.09Z"/><path d="M85.67,61.2a2.23,2.23,0,0,0-2.3-2.28A2.28,2.28,0,0,0,81,61.29a2.3,2.3,0,0,0,2.36,2.41,2.5,2.5,0,0,0,1.8-.73.44.44,0,0,0,0-.64.52.52,0,0,0-.64,0,1.53,1.53,0,0,1-1.09.44A1.33,1.33,0,0,1,82,61.67H85.2A.47.47,0,0,0,85.67,61.2ZM82,60.93a1.29,1.29,0,0,1,1.36-1.13,1.24,1.24,0,0,1,1.3,1.13Z"/><path d="M88.86,59.9a1.63,1.63,0,0,1,.82.23.52.52,0,0,0,.7-.11.49.49,0,0,0-.12-.68,2.44,2.44,0,0,0-1.4-.42,2.39,2.39,0,1,0,1.4,4.36.49.49,0,0,0,.12-.68.53.53,0,0,0-.7-.1,1.73,1.73,0,0,1-.82.22,1.41,1.41,0,1,1,0-2.82Z"/><path d="M93.59,58.92a2.31,2.31,0,0,0-2.39,2.37,2.4,2.4,0,1,0,2.39-2.37Zm0,3.8a1.37,1.37,0,0,1-1.39-1.43,1.4,1.4,0,0,1,2.79,0A1.37,1.37,0,0,1,93.59,62.72Z"/><path d="M13.26,59.51a7.58,7.58,0,0,0,5.25-5.25.74.74,0,0,0-1.44-.34,6,6,0,0,1-4.25,4.2.73.73,0,1,0,.44,1.39Z"/><path d="M10.49,36.52V49.06a.76.76,0,0,0,1.51,0V36.52a.76.76,0,0,0-1.51,0Z"/><path d="M2.64,36.52V49.06a.75.75,0,0,0,1.5,0V36.52a.75.75,0,0,0-1.5,0Z"/><path d="M7.88,34.42V49.06a.76.76,0,0,0,1.51,0V34.42a.76.76,0,0,0-1.51,0Z"/><path d="M5.26,31.6V49.06a.76.76,0,0,0,1.51,0V31.6a.76.76,0,0,0-1.51,0Z"/><path d="M11.26,63.67A11.23,11.23,0,0,0,13,41.36V42.9A9.72,9.72,0,1,1,1.52,52.38V41.48a.76.76,0,1,0-1.51,0V52.61A11.27,11.27,0,0,0,11.26,63.67Z"/></g></svg>