<svg id="Layer_1" data-name="Layer 1" xmlns="http://www.w3.org/2000/svg" viewBox="0 0 24 24"><defs><style>.cls-1{fill:none;}</style></defs><title>V    24x24 blackSVG</title><path class="cls-1" d="M12.4,19.9a.82.82,0,0,0-.81.83.82.82,0,1,0,1.63,0A.82.82,0,0,0,12.4,19.9Z"/><path class="cls-1" d="M16.13,19.94a.81.81,0,0,0-.82.8.82.82,0,0,0,.82.82.81.81,0,0,0,.8-.82A.8.8,0,0,0,16.13,19.94Z"/><path class="cls-1" d="M3.62,19.88a.83.83,0,0,0-.83.83.83.83,0,1,0,.83-.83Z"/><path class="cls-1" d="M18.78,22.91a.37.37,0,0,0-.39.34h.77A.37.37,0,0,0,18.78,22.91Z"/><path class="cls-1" d="M8.65,19.93a.81.81,0,1,0,0,1.61.81.81,0,0,0,0-1.61Z"/><path class="cls-1" d="M21.74,22.94a.39.39,0,0,0-.39.41.4.4,0,0,0,.39.41.4.4,0,0,0,.41-.41A.39.39,0,0,0,21.74,22.94Z"/><path d="M6.14,19.11a.39.39,0,0,0-.4.39v2.43a.39.39,0,1,0,.78,0V19.5A.39.39,0,0,0,6.14,19.11Z"/><path d="M9.84,19.13a.38.38,0,0,0-.36.27,1.6,1.6,0,0,0-.83-.24,1.58,1.58,0,1,0,0,3.15,1.56,1.56,0,0,0,.79-.21v.27a.85.85,0,0,1-.85.86.79.79,0,0,1-.64-.3.36.36,0,0,0-.54,0,.38.38,0,0,0,0,.54,1.62,1.62,0,0,0,2.85-1.07V19.52A.38.38,0,0,0,9.84,19.13ZM8.65,21.54a.81.81,0,1,1,.79-.8A.81.81,0,0,1,8.65,21.54Z"/><path d="M12.42,19.14a1.57,1.57,0,0,0-.88.26V17.92a.38.38,0,0,0-.37-.38.37.37,0,0,0-.38.38v4a.38.38,0,0,0,.38.38.37.37,0,0,0,.35-.26,1.44,1.44,0,0,0,.88.28,1.6,1.6,0,0,0,0-3.19Zm0,2.43a.83.83,0,0,1-.81-.84.82.82,0,1,1,1.63,0A.84.84,0,0,1,12.4,21.57Z"/><path d="M3.62,19.11a1.69,1.69,0,0,0-.89.27V17.91a.39.39,0,0,0-.38-.4.38.38,0,0,0-.37.4l0,4a.38.38,0,0,0,.39.38A.39.39,0,0,0,2.72,22a1.65,1.65,0,0,0,.9.27,1.6,1.6,0,0,0,1.6-1.6A1.62,1.62,0,0,0,3.62,19.11Zm0,2.45a.85.85,0,0,1-.83-.85.83.83,0,0,1,.83-.83.84.84,0,0,1,0,1.68Z"/><path d="M16.13,19.16a1.59,1.59,0,1,0,1.58,1.6A1.59,1.59,0,0,0,16.13,19.16Zm0,2.4a.82.82,0,0,1-.82-.82.81.81,0,0,1,.82-.8.8.8,0,0,1,.8.8A.81.81,0,0,1,16.13,21.56Z"/><path d="M21.69,20.4V22a.38.38,0,1,0,.76,0V20.4a1.25,1.25,0,0,0-2.11-.85,1.25,1.25,0,0,0-.87-.34,1.41,1.41,0,0,0-.58.13.38.38,0,0,0-.29-.15.4.4,0,0,0-.38.39V22a.38.38,0,0,0,.38.37A.37.37,0,0,0,19,22V20.4a.49.49,0,0,1,1,0V22a.37.37,0,0,0,.38.38.37.37,0,0,0,.37-.38V20.4a.46.46,0,0,1,.5-.43A.46.46,0,0,1,21.69,20.4Z"/><path d="M18.78,22.66a.66.66,0,0,0-.67.69.67.67,0,0,0,.67.7.73.73,0,0,0,.53-.22.13.13,0,0,0,0-.19.15.15,0,0,0-.18,0,.45.45,0,0,1-.32.14.4.4,0,0,1-.41-.33h.92a.14.14,0,0,0,.14-.14A.64.64,0,0,0,18.78,22.66Zm-.39.59a.39.39,0,0,1,.77,0Z"/><path d="M20.38,22.94a.51.51,0,0,1,.24.07.16.16,0,0,0,.2,0,.13.13,0,0,0,0-.19.69.69,0,1,0,0,1.14.14.14,0,0,0,0-.2.15.15,0,0,0-.2,0,.51.51,0,0,1-.24.07.41.41,0,1,1,0-.82Z"/><path d="M21.74,22.66a.67.67,0,0,0-.68.69.7.7,0,1,0,1.39,0A.68.68,0,0,0,21.74,22.66Zm0,1.1a.4.4,0,0,1-.39-.41.39.39,0,0,1,.39-.41.39.39,0,0,1,.41.41A.4.4,0,0,1,21.74,23.76Z"/><path d="M13.41,14.94a4,4,0,0,0,2.74-2.74.39.39,0,0,0-.32-.47.39.39,0,0,0-.43.3,3.16,3.16,0,0,1-2.22,2.18.39.39,0,0,0-.26.43A.38.38,0,0,0,13.41,14.94Z"/><path d="M12.36,9.88a.38.38,0,0,0,.39-.39V3A.39.39,0,1,0,12,3V9.49A.38.38,0,0,0,12.36,9.88Z"/><path d="M8.27,9.88a.39.39,0,0,0,.39-.39V3a.4.4,0,0,0-.79,0V9.49A.39.39,0,0,0,8.27,9.88Z"/><path d="M11,9.88a.38.38,0,0,0,.39-.39V1.86a.39.39,0,0,0-.78,0V9.49A.38.38,0,0,0,11,9.88Z"/><path d="M9.63,9.88a.39.39,0,0,0,.4-.39V.39a.4.4,0,0,0-.79,0v9.1A.39.39,0,0,0,9.63,9.88Z"/><path d="M12.37,17.11A5.85,5.85,0,0,0,13.3,5.48v.8a5.06,5.06,0,1,1-6,4.94V5.54a.39.39,0,0,0-.78,0v5.8a5.87,5.87,0,0,0,5.86,5.77Z"/></svg>