<svg id="Layer_1" data-name="Layer 1" xmlns="http://www.w3.org/2000/svg" xmlns:xlink="http://www.w3.org/1999/xlink" viewBox="0 0 1024 1024"><defs><style>.cls-1{fill:none;}.cls-2{clip-path:url(#clip-path);}.cls-3{fill:#4cae4a;}.cls-4{clip-path:url(#clip-path-3);}</style><clipPath id="clip-path"><rect class="cls-1" x="76.36" width="871.27" height="1024"/></clipPath><clipPath id="clip-path-3"><rect class="cls-1" x="234.81" width="567.22" height="743.08"/></clipPath></defs><title>V 1024x1024 GreenSVG</title><g id="logo_BB_ECO_Shape_Text" data-name="logo BB ECO Shape + Text"><g class="cls-2"><g class="cls-2"><path class="cls-3" d="M254.1,814.25c-9.4,0-16.94,7.22-17,16.35l-.2,103.68a16.66,16.66,0,0,0,33.31.06l.2-103.68a16.44,16.44,0,0,0-16.35-16.41"/><path class="cls-3" d="M411.23,815.09a16.83,16.83,0,0,0-15.61,11.25,65.28,65.28,0,0,0-34.89-10c-37.07-.07-67.48,29.94-67.55,67s30.22,67.21,67.29,67.28a67.08,67.08,0,0,0,34.13-9.33l0,11.82a36.11,36.11,0,0,1-36.34,36.18,35.53,35.53,0,0,1-27.37-12.4,16,16,0,0,0-23.1-1.66c-7,5.63-7.55,16.1-1.92,23.1a68.82,68.82,0,0,0,52.33,24c38.13.08,69.09-31,69.16-69.16l.24-121.67a16.46,16.46,0,0,0-16.35-16.42m-50.7,102.77a34.38,34.38,0,1,1,34.18-34.31,34.43,34.43,0,0,1-34.18,34.31"/><path class="cls-3" d="M522.68,815.31a70.36,70.36,0,0,0-37.89,11.21l.12-62.85a16.25,16.25,0,1,0-32.5-.07l-.34,170.83a16.23,16.23,0,0,0,16.35,16.14A16.56,16.56,0,0,0,484,939.32a67,67,0,0,0,38.39,11.89,68,68,0,1,0,.26-135.9m-.2,103.41A35.46,35.46,0,1,1,558,883.33a35.43,35.43,0,0,1-35.52,35.39"/><path class="cls-3" d="M147,814.58a70.39,70.39,0,0,0-37.89,11.21l.13-62.86a16.26,16.26,0,1,0-32.51-.06L76.4,933.7a16.22,16.22,0,0,0,16.35,16.14,16.57,16.57,0,0,0,15.61-11.25,67,67,0,0,0,38.38,11.89,68,68,0,1,0,.26-135.9M146.8,918a35.46,35.46,0,1,1,35.53-35.39A35.42,35.42,0,0,1,146.8,918"/><path class="cls-3" d="M678.88,816.42a67.42,67.42,0,1,0,67.55,67.81c-.2-37.34-30.49-67.74-67.55-67.81m-.2,101.79a34.38,34.38,0,1,1,34.44-34.31,34.27,34.27,0,0,1-34.44,34.31"/><path class="cls-3" d="M895.12,818.45c-14.77,0-27.67,5.31-37.1,14.43a54.33,54.33,0,0,0-37-14.58,55.09,55.09,0,0,0-24.72,5.86,15,15,0,0,0-12.35-6.47c-8.59,0-16.13,7.49-16.14,16.36l-.2,102.6c0,8.59,7.49,15.86,16.08,15.88a15.93,15.93,0,0,0,16.15-15.81l.13-67.7c0-10.47,9.44-18.51,21-18.48s20.93,8.09,20.91,18.57L841.71,936a16,16,0,1,0,32,.06l.13-66.88c0-10.48,9.43-18.51,21.25-18.49,11,0,20.39,8.1,20.37,18.57l-.13,66.88a16.22,16.22,0,0,0,16.35,16.15,15.78,15.78,0,0,0,15.89-16.08l.13-66.89c.05-27.93-23.81-50.81-52.55-50.86"/><path class="cls-3" d="M814.49,998.92H775.13c1.21,8.72,8.24,14.17,17.32,14.17,5.93,0,9.32-2.06,13.44-5.45,2.06-1.7,5.45-2.55,8-.49a5.44,5.44,0,0,1,.24,7.87c-5.69,5.94-13.92,9-22.28,9-16.1,0-29.06-11.75-29.06-29.67s13-29.31,29.06-29.31c15.75,0,27.86,10.9,28.34,28.22a5.68,5.68,0,0,1-5.69,5.69M808,989.84c-1.21-8.84-7.63-13.93-16.11-13.93-8.72,0-15.5,5.21-16.71,13.93Z"/><path class="cls-3" d="M859.54,965a29.89,29.89,0,0,1,17.32,5.21c2.66,1.81,3.27,5.33,1.45,8.35-1.7,2.79-5.94,2.91-8.6,1.34a20.6,20.6,0,0,0-10.17-2.79c-9.45,0-17.8,6.9-17.8,17.44s8.35,17.32,17.8,17.32a20.6,20.6,0,0,0,10.17-2.79c2.66-1.57,6.9-1.45,8.6,1.33,1.82,3,1.21,6.54-1.45,8.36a29.89,29.89,0,0,1-17.32,5.21c-16.23,0-30.16-11.51-30.16-29.43S843.31,965,859.54,965"/><path class="cls-3" d="M888.48,994.32c0-17.93,13.44-29.31,29.43-29.31s29.67,11.38,29.67,29.31S934,1024,917.91,1024s-29.43-11.75-29.43-29.67m46.75,0c0-10.42-7.87-17.2-17.32-17.2s-17.08,6.78-17.08,17.2c0,10.65,7.75,17.56,17.08,17.56s17.32-6.91,17.32-17.56"/></g><g class="cls-4"><path class="cls-3" d="M563.4,636.88c32-10.3,97-40.19,116.23-116.5a16.36,16.36,0,0,0-31.86-7.47c-15.83,61.88-68.82,85.24-94.22,93a16.24,16.24,0,1,0,9.85,30.94"/><path class="cls-3" d="M518.7,421.81a16.71,16.71,0,0,0,16.71-16.71V127.27a16.72,16.72,0,0,0-33.43,0V405.1a16.72,16.72,0,0,0,16.72,16.71"/><path class="cls-3" d="M344.54,421.81a16.71,16.71,0,0,0,16.71-16.71V127.27a16.72,16.72,0,0,0-33.43,0V405.1a16.72,16.72,0,0,0,16.72,16.71"/><path class="cls-3" d="M460.83,421.81a16.71,16.71,0,0,0,16.71-16.71V80.74a16.71,16.71,0,1,0-33.42,0V405.1a16.71,16.71,0,0,0,16.71,16.71"/><path class="cls-3" d="M402.68,421.81a16.71,16.71,0,0,0,16.71-16.71V18.23a16.71,16.71,0,1,0-33.42,0V405.1a16.71,16.71,0,0,0,16.71,16.71"/><path class="cls-3" d="M519,729.11c137.15,0,248.74-111.58,248.74-248.74a248.15,248.15,0,0,0-209.17-245.8l0,34.17A214.22,214.22,0,0,1,734.31,480.37c0,118.73-96.6,215.33-215.33,215.33s-215.88-98.25-215.88-217V237.07a16.71,16.71,0,0,0-33.42,0V484c.94,65.57,27.88,127.12,74.68,173.35A247.09,247.09,0,0,0,519,729.11"/></g></g></g></svg>