<svg id="Layer_1" data-name="Layer 1" xmlns="http://www.w3.org/2000/svg" viewBox="0 0 128 128"><defs><style>.cls-1{fill:none;}</style></defs><title>V 128x128 BlackSVG</title><path class="cls-1" d="M65.25,106a4.46,4.46,0,0,0,0,8.92,4.46,4.46,0,0,0,0-8.92Z"/><path class="cls-1" d="M85.1,106.19a4.3,4.3,0,1,0,4.25,4.26A4.23,4.23,0,0,0,85.1,106.19Z"/><path class="cls-1" d="M18.49,105.87a4.41,4.41,0,0,0-4.42,4.42,4.42,4.42,0,1,0,4.42-4.42Z"/><path class="cls-1" d="M99.24,122a2,2,0,0,0-2.09,1.77h4.1A1.93,1.93,0,0,0,99.24,122Z"/><path class="cls-1" d="M45.24,106.11a4.3,4.3,0,1,0,4.26,4.34A4.31,4.31,0,0,0,45.24,106.11Z"/><path class="cls-1" d="M115,122.18a2,2,0,0,0-2.09,2.17,2.1,2.1,0,0,0,2.09,2.17,2.12,2.12,0,0,0,2.17-2.17A2.07,2.07,0,0,0,115,122.18Z"/><path d="M31.9,101.76a2.08,2.08,0,0,0-2.12,2l0,13a2.09,2.09,0,1,0,4.17,0l0-13A2.05,2.05,0,0,0,31.9,101.76Z"/><path d="M51.59,101.85a2.09,2.09,0,0,0-1.93,1.45A8.28,8.28,0,0,0,45.24,102a8.4,8.4,0,1,0,0,16.8,8.69,8.69,0,0,0,4.26-1.13v1.45a4.53,4.53,0,0,1-4.58,4.58,4.24,4.24,0,0,1-3.37-1.61,2,2,0,0,0-2.9-.16,2,2,0,0,0-.24,2.89,8.45,8.45,0,0,0,6.51,3,8.65,8.65,0,0,0,8.68-8.68V103.94A2.07,2.07,0,0,0,51.59,101.85Zm-6.35,12.86a4.3,4.3,0,1,1,4.26-4.26A4.3,4.3,0,0,1,45.24,114.71Z"/><path d="M65.32,101.93a8.68,8.68,0,0,0-4.68,1.37l.08-7.88a2,2,0,0,0-2-2,1.93,1.93,0,0,0-2,2l-.08,21.38a2,2,0,0,0,2,2,2,2,0,0,0,1.88-1.37,8,8,0,0,0,4.69,1.45,8.48,8.48,0,0,0,.07-17Zm-.07,12.94a4.46,4.46,0,1,1,4.37-4.42A4.46,4.46,0,0,1,65.25,114.87Z"/><path d="M18.49,101.77a8.61,8.61,0,0,0-4.74,1.45V95.35a2,2,0,1,0-4,0l-.08,21.37a2.07,2.07,0,0,0,4,.64,8.76,8.76,0,0,0,4.82,1.45A8.52,8.52,0,0,0,27,110.29,8.62,8.62,0,0,0,18.49,101.77Zm0,13a4.48,4.48,0,0,1-4.42-4.5,4.42,4.42,0,1,1,8.83,0A4.47,4.47,0,0,1,18.49,114.79Z"/><path d="M85.1,102a8.44,8.44,0,1,0,8.43,8.52A8.44,8.44,0,0,0,85.1,102Zm0,12.78a4.3,4.3,0,1,1,0-8.6,4.23,4.23,0,0,1,4.25,4.26A4.3,4.3,0,0,1,85.1,114.79Z"/><path d="M114.71,108.65V117a2,2,0,0,0,2,2,2,2,0,0,0,2-2v-8.39a6.51,6.51,0,0,0-6.57-6.35,6.61,6.61,0,0,0-4.65,1.81,6.75,6.75,0,0,0-4.63-1.83,7.07,7.07,0,0,0-3.1.73,1.87,1.87,0,0,0-1.54-.8,2.07,2.07,0,0,0-2,2l0,12.85a2.05,2.05,0,0,0,2,2,2,2,0,0,0,2-2l0-8.48a2.65,2.65,0,0,1,5.25,0l0,8.38a2,2,0,0,0,2,2,2,2,0,0,0,2-2v-8.37a2.49,2.49,0,0,1,2.66-2.32A2.45,2.45,0,0,1,114.71,108.65Z"/><path d="M99.24,120.66a3.52,3.52,0,0,0-3.62,3.69,3.58,3.58,0,0,0,3.62,3.7,4,4,0,0,0,2.81-1.13.75.75,0,0,0-.08-1,.82.82,0,0,0-1,.08,2.34,2.34,0,0,1-1.69.72,2.1,2.1,0,0,1-2.17-1.77h4.9a.72.72,0,0,0,.72-.72A3.41,3.41,0,0,0,99.24,120.66Zm-2.09,3.13A2,2,0,0,1,99.24,122a1.93,1.93,0,0,1,2,1.77Z"/><path d="M107.72,122.16a2.63,2.63,0,0,1,1.27.35.83.83,0,0,0,1.08-.17.75.75,0,0,0-.19-1,3.68,3.68,0,0,0-2.16-.66,3.7,3.7,0,1,0,0,7.39,3.68,3.68,0,0,0,2.16-.66.75.75,0,0,0,.19-1,.82.82,0,0,0-1.08-.17,2.63,2.63,0,0,1-1.27.35,2.18,2.18,0,1,1,0-4.35Z"/><path d="M115,120.66a3.57,3.57,0,0,0-3.62,3.69,3.7,3.7,0,1,0,3.62-3.69Zm0,5.86a2.1,2.1,0,0,1-2.09-2.17,2,2,0,0,1,2.09-2.17,2.07,2.07,0,0,1,2.17,2.17A2.12,2.12,0,0,1,115,126.52Z"/><path d="M70.63,79.55c4-1.29,12.15-5,14.56-14.58a2,2,0,0,0-4-.94c-2,7.75-8.62,10.68-11.8,11.65a2,2,0,1,0,1.23,3.87Z"/><path d="M65,52.62a2.09,2.09,0,0,0,2.09-2.09V15.74a2.1,2.1,0,0,0-4.19,0V50.53A2.09,2.09,0,0,0,65,52.62Z"/><path d="M43.23,52.62a2.08,2.08,0,0,0,2.09-2.09V15.74a2.09,2.09,0,0,0-4.18,0V50.53A2.08,2.08,0,0,0,43.23,52.62Z"/><path d="M57.79,52.62a2.09,2.09,0,0,0,2.09-2.09V9.92a2.09,2.09,0,1,0-4.18,0V50.53A2.08,2.08,0,0,0,57.79,52.62Z"/><path d="M50.51,52.62a2.08,2.08,0,0,0,2.09-2.09V2.09a2.09,2.09,0,0,0-4.18,0V50.53A2.08,2.08,0,0,0,50.51,52.62Z"/><path d="M65.07,91.1a31.16,31.16,0,0,0,5-61.92v4.28a27,27,0,0,1-5,53.46A27.23,27.23,0,0,1,38,59.75V29.49a2.1,2.1,0,0,0-4.19,0V60.41A31.33,31.33,0,0,0,65.07,91.1Z"/></svg>