<svg id="Layer_1" data-name="Layer 1" xmlns="http://www.w3.org/2000/svg" viewBox="0 0 16 16"><defs><style>.cls-1{fill:none;}</style></defs><title>V 16x16 blackSVG</title><path class="cls-1" d="M8.13,13.23a.56.56,0,0,0,0,1.11.56.56,0,0,0,0-1.11Z"/><path class="cls-1" d="M10.6,13.26a.54.54,0,1,0,.53.53A.53.53,0,0,0,10.6,13.26Z"/><path class="cls-1" d="M2.31,13.22a.55.55,0,0,0-.55.55.55.55,0,1,0,.55-.55Z"/><path class="cls-1" d="M12.36,15.23a.24.24,0,0,0-.26.22h.51A.24.24,0,0,0,12.36,15.23Z"/><path class="cls-1" d="M5.64,13.25a.54.54,0,1,0,.53.54A.54.54,0,0,0,5.64,13.25Z"/><path class="cls-1" d="M14.32,15.25a.25.25,0,0,0-.26.27.27.27,0,1,0,.53,0A.26.26,0,0,0,14.32,15.25Z"/><path d="M4,12.71a.25.25,0,0,0-.26.26v1.61a.27.27,0,0,0,.27.26.26.26,0,0,0,.25-.26V13A.26.26,0,0,0,4,12.71Z"/><path d="M6.43,12.72a.26.26,0,0,0-.24.18,1,1,0,1,0-.55,1.93,1.08,1.08,0,0,0,.53-.14v.18a.56.56,0,0,1-.57.57.53.53,0,0,1-.42-.2.25.25,0,0,0-.36,0,.25.25,0,0,0,0,.36A1.05,1.05,0,0,0,5.6,16a1.08,1.08,0,0,0,1.08-1.08V13A.26.26,0,0,0,6.43,12.72Zm-.79,1.6a.54.54,0,1,1,.53-.53A.54.54,0,0,1,5.64,14.32Z"/><path d="M8.14,12.73a1.06,1.06,0,0,0-.58.17v-1a.25.25,0,0,0-.25-.25.24.24,0,0,0-.25.25v2.66a.25.25,0,0,0,.25.25.25.25,0,0,0,.24-.17,1,1,0,0,0,.58.18,1.06,1.06,0,0,0,0-2.11Zm0,1.61a.56.56,0,0,1,0-1.11.56.56,0,0,1,0,1.11Z"/><path d="M2.31,12.71a1.08,1.08,0,0,0-.59.18v-1a.25.25,0,1,0-.5,0v2.66a.26.26,0,0,0,.5.08,1.09,1.09,0,0,0,.6.18,1.06,1.06,0,0,0,1.06-1.06A1.07,1.07,0,0,0,2.31,12.71Zm0,1.62a.56.56,0,0,1-.55-.56.55.55,0,0,1,.55-.55.56.56,0,0,1,0,1.11Z"/><path d="M10.6,12.74a1.05,1.05,0,1,0,1.05,1.06A1,1,0,0,0,10.6,12.74Zm0,1.59a.54.54,0,1,1,0-1.07.53.53,0,0,1,.53.53A.54.54,0,0,1,10.6,14.33Z"/><path d="M14.29,13.57v1a.26.26,0,0,0,.26.25.25.25,0,0,0,.25-.25v-1a.8.8,0,0,0-.82-.79.83.83,0,0,0-.58.22.84.84,0,0,0-.57-.23,1,1,0,0,0-.39.09A.24.24,0,0,0,12,13v1.6a.25.25,0,0,0,.25.24.23.23,0,0,0,.25-.24V13.56a.3.3,0,0,1,.32-.28.31.31,0,0,1,.33.29v1a.25.25,0,0,0,.25.25.25.25,0,0,0,.25-.25v-1a.31.31,0,0,1,.33-.29A.3.3,0,0,1,14.29,13.57Z"/><path d="M12.36,15.06a.44.44,0,0,0-.45.46.44.44,0,0,0,.45.46.5.5,0,0,0,.35-.14.09.09,0,0,0,0-.13.1.1,0,0,0-.12,0,.29.29,0,0,1-.21.09.26.26,0,0,1-.27-.22h.61a.09.09,0,0,0,.09-.09A.43.43,0,0,0,12.36,15.06Zm-.26.39a.24.24,0,0,1,.26-.22.24.24,0,0,1,.25.22Z"/><path d="M13.42,15.25a.37.37,0,0,1,.15,0,.11.11,0,0,0,.14,0,.09.09,0,0,0,0-.13.5.5,0,0,0-.27-.08.46.46,0,1,0,0,.92.5.5,0,0,0,.27-.08.09.09,0,0,0,0-.13.1.1,0,0,0-.14,0,.37.37,0,0,1-.15,0,.27.27,0,1,1,0-.54Z"/><path d="M14.32,15.06a.44.44,0,0,0-.45.46.45.45,0,0,0,.45.46.45.45,0,0,0,.47-.46A.45.45,0,0,0,14.32,15.06Zm0,.73a.26.26,0,0,1-.26-.27.27.27,0,1,1,.53,0A.26.26,0,0,1,14.32,15.79Z"/><path d="M8.8,10a2.63,2.63,0,0,0,1.81-1.82.25.25,0,0,0-.21-.31.25.25,0,0,0-.28.19A2.09,2.09,0,0,1,8.65,9.46.26.26,0,1,0,8.8,10Z"/><path d="M8.1,6.59a.25.25,0,0,0,.26-.26V2a.26.26,0,0,0-.26-.26A.26.26,0,0,0,7.84,2V6.33A.26.26,0,0,0,8.1,6.59Z"/><path d="M5.39,6.59a.26.26,0,0,0,.26-.26V2a.26.26,0,0,0-.52,0V6.33A.26.26,0,0,0,5.39,6.59Z"/><path d="M7.2,6.59a.25.25,0,0,0,.26-.26v-5A.26.26,0,0,0,7.2,1a.26.26,0,0,0-.26.26V6.33A.26.26,0,0,0,7.2,6.59Z"/><path d="M6.3,6.59a.26.26,0,0,0,.26-.26v-6A.26.26,0,0,0,6.3.05.25.25,0,0,0,6,.31v6A.25.25,0,0,0,6.3,6.59Z"/><path d="M8.11,11.38a3.88,3.88,0,0,0,.62-7.7v.53a3.35,3.35,0,0,1-.62,6.65A3.39,3.39,0,0,1,4.74,7.48V3.72a.25.25,0,0,0-.26-.26.26.26,0,0,0-.26.26V7.56a3.89,3.89,0,0,0,1.17,2.7A3.8,3.8,0,0,0,8.11,11.38Z"/></svg>