<svg id="Layer_1" data-name="Layer 1" xmlns="http://www.w3.org/2000/svg" viewBox="0 0 16 16"><defs><style>.cls-1{fill:#fff;}</style></defs><title>V 16x16 whiteSVG</title><path class="cls-1" d="M6.43,12.73a.27.27,0,0,0-.25.18,1,1,0,0,0-.54-.16,1.05,1.05,0,1,0,0,2.1,1.09,1.09,0,0,0,.54-.15v.19a.57.57,0,0,1-1,.37.26.26,0,0,0-.39.33A1.07,1.07,0,0,0,5.6,16a1.09,1.09,0,0,0,1.08-1.08V13A.26.26,0,0,0,6.43,12.73Zm-.8,1.61a.54.54,0,0,1,0-1.08.54.54,0,0,1,.53.54A.54.54,0,0,1,5.63,14.34Z"/><path class="cls-1" d="M8.17,12.74a1,1,0,0,0-.6.17v-1a.26.26,0,0,0-.26-.26.26.26,0,0,0-.25.26V14.6a.26.26,0,0,0,.26.25.26.26,0,0,0,.24-.18,1,1,0,0,0,.6.19A1.06,1.06,0,0,0,9.22,13.8,1,1,0,0,0,8.17,12.74Zm0,1.61a.56.56,0,1,1,.56-.55A.56.56,0,0,1,8.16,14.35Z"/><path class="cls-1" d="M4,12.72a.26.26,0,0,0-.26.26v1.61a.26.26,0,0,0,.27.26.25.25,0,0,0,.25-.26V13A.26.26,0,0,0,4,12.72Z"/><path class="cls-1" d="M2.3,12.72a1.08,1.08,0,0,0-.59.18v-1a.26.26,0,0,0-.25-.26.26.26,0,0,0-.26.26v2.66a.26.26,0,0,0,.25.26.27.27,0,0,0,.25-.18,1,1,0,0,0,.6.19,1.07,1.07,0,0,0,0-2.13Zm0,1.62a.56.56,0,1,1,.55-.55A.56.56,0,0,1,2.3,14.34Z"/><path class="cls-1" d="M10.6,12.75a1.06,1.06,0,1,0,1.06,1.06A1.07,1.07,0,0,0,10.6,12.75Zm0,1.59a.54.54,0,0,1,0-1.07.54.54,0,1,1,0,1.07Z"/><path class="cls-1" d="M14,12.79a.79.79,0,0,0-.58.22.84.84,0,0,0-.57-.23,1,1,0,0,0-.39.09.26.26,0,0,0-.19-.1A.26.26,0,0,0,12,13v1.6a.25.25,0,0,0,.25.25.25.25,0,0,0,.25-.25V13.57a.3.3,0,0,1,.32-.28.31.31,0,0,1,.33.29v1a.25.25,0,0,0,.25.25.25.25,0,0,0,.25-.25v-1a.31.31,0,0,1,.33-.29.31.31,0,0,1,.32.29v1a.26.26,0,0,0,.25.26.25.25,0,0,0,.25-.26v-1A.8.8,0,0,0,14,12.79Z"/><path class="cls-1" d="M12.81,15.51a.43.43,0,0,0-.44-.44.46.46,0,0,0,0,.92.46.46,0,0,0,.35-.14.08.08,0,0,0,0-.12.09.09,0,0,0-.12,0,.32.32,0,0,1-.21.08.25.25,0,0,1-.27-.22h.61A.09.09,0,0,0,12.81,15.51Zm-.7,0a.24.24,0,0,1,.26-.22.24.24,0,0,1,.25.22Z"/><path class="cls-1" d="M13.43,15.26a.33.33,0,0,1,.16.05.11.11,0,0,0,.13,0,.09.09,0,0,0,0-.13.44.44,0,0,0-.27-.09.46.46,0,0,0-.47.47.44.44,0,0,0,.47.45.43.43,0,0,0,.27-.08.09.09,0,0,0,0-.13.11.11,0,0,0-.13,0,.33.33,0,0,1-.16.05.28.28,0,1,1,0-.55Z"/><path class="cls-1" d="M14.34,15.07a.46.46,0,1,0,.46.46A.45.45,0,0,0,14.34,15.07Zm0,.73a.26.26,0,0,1-.27-.27.26.26,0,0,1,.27-.27.27.27,0,0,1,.27.27A.26.26,0,0,1,14.34,15.8Z"/><path class="cls-1" d="M8.8,10a2.64,2.64,0,0,0,1.82-1.82.26.26,0,0,0-.22-.31.25.25,0,0,0-.28.19A2.1,2.1,0,0,1,8.65,9.47a.25.25,0,0,0-.18.28A.26.26,0,0,0,8.8,10Z"/><path class="cls-1" d="M8.1,6.59a.27.27,0,0,0,.27-.26V2a.27.27,0,0,0-.53,0V6.33A.26.26,0,0,0,8.1,6.59Z"/><path class="cls-1" d="M5.38,6.59a.27.27,0,0,0,.27-.26V2a.27.27,0,0,0-.53,0V6.33A.26.26,0,0,0,5.38,6.59Z"/><path class="cls-1" d="M7.2,6.59a.26.26,0,0,0,.26-.26V1.27A.26.26,0,0,0,7.2,1a.27.27,0,0,0-.26.27V6.33A.26.26,0,0,0,7.2,6.59Z"/><path class="cls-1" d="M6.29,6.59a.26.26,0,0,0,.26-.26v-6A.26.26,0,0,0,6.29,0,.26.26,0,0,0,6,.29v6A.26.26,0,0,0,6.29,6.59Z"/><path class="cls-1" d="M8.11,11.39a3.89,3.89,0,0,0,.62-7.72V4.2a3.36,3.36,0,0,1-.62,6.67A3.4,3.4,0,0,1,4.74,7.48V3.71a.26.26,0,0,0-.26-.26.25.25,0,0,0-.26.26V7.56a3.89,3.89,0,0,0,3.89,3.83Z"/></svg>