<svg id="Layer_1" data-name="Layer 1" xmlns="http://www.w3.org/2000/svg" viewBox="0 0 256 256"><defs><style>.cls-1{fill:none;}</style></defs><title>V 256x256 blackSVG</title><path class="cls-1" d="M130.29,211.86a8.92,8.92,0,0,0,0,17.83,8.92,8.92,0,0,0,0-17.83Z"/><path class="cls-1" d="M170,212.34a8.6,8.6,0,1,0,8.51,8.52A8.47,8.47,0,0,0,170,212.34Z"/><path class="cls-1" d="M36.78,211.7a8.81,8.81,0,0,0-8.84,8.84,8.84,8.84,0,1,0,8.84-8.84Z"/><path class="cls-1" d="M198.26,244a3.92,3.92,0,0,0-4.18,3.54h8.19A3.86,3.86,0,0,0,198.26,244Z"/><path class="cls-1" d="M90.29,212.18a8.6,8.6,0,1,0,8.51,8.68A8.64,8.64,0,0,0,90.29,212.18Z"/><path class="cls-1" d="M229.75,244.32a4.1,4.1,0,0,0-4.18,4.34,4.26,4.26,0,1,0,8.52,0A4.13,4.13,0,0,0,229.75,244.32Z"/><path d="M63.62,203.49a4.15,4.15,0,0,0-4.25,4.1l0,25.95a4.17,4.17,0,1,0,8.34,0l0-26A4.11,4.11,0,0,0,63.62,203.49Z"/><path d="M103,203.66a4.16,4.16,0,0,0-3.86,2.9A16.64,16.64,0,0,0,90.29,204a16.79,16.79,0,1,0,0,33.58,17.33,17.33,0,0,0,8.51-2.25v2.89a9,9,0,0,1-9.15,9.16,8.49,8.49,0,0,1-6.75-3.22,4,4,0,0,0-5.79-.32,4.09,4.09,0,0,0-.48,5.79,16.91,16.91,0,0,0,13,5.95A17.28,17.28,0,0,0,107,238.21V207.85A4.12,4.12,0,0,0,103,203.66ZM90.29,229.37a8.6,8.6,0,1,1,8.51-8.51A8.6,8.6,0,0,1,90.29,229.37Z"/><path d="M130.44,203.83a17.3,17.3,0,0,0-9.37,2.73l.16-15.75a4,4,0,0,0-3.91-4,3.87,3.87,0,0,0-4.07,4l-.15,42.74a4.06,4.06,0,0,0,4.06,4,3.92,3.92,0,0,0,3.76-2.73,15.89,15.89,0,0,0,9.37,2.89,16.77,16.77,0,0,0,16.56-16.87C146.85,211.38,139.5,203.83,130.44,203.83Zm-.15,25.86a8.92,8.92,0,1,1,8.75-8.83A8.92,8.92,0,0,1,130.29,229.69Z"/><path d="M36.78,203.51a17.39,17.39,0,0,0-9.47,2.88V190.66a4,4,0,1,0-8,0l-.16,42.73a4.14,4.14,0,0,0,8,1.29,17.56,17.56,0,0,0,9.64,2.89,17,17,0,0,0,17-17A17.25,17.25,0,0,0,36.78,203.51Zm0,26a9,9,0,0,1-8.84-9,8.81,8.81,0,0,1,8.84-8.84,8.92,8.92,0,0,1,0,17.84Z"/><path d="M170,204a16.87,16.87,0,1,0,16.87,17A16.87,16.87,0,0,0,170,204Zm0,25.55a8.6,8.6,0,1,1,0-17.2,8.47,8.47,0,0,1,8.51,8.52A8.61,8.61,0,0,1,170,229.54Z"/><path d="M229.2,217.26l0,16.75a4.07,4.07,0,0,0,4.09,4,3.94,3.94,0,0,0,4-4l0-12.82v-4c0-7-6-12.68-13.15-12.7a13.15,13.15,0,0,0-9.28,3.61,13.62,13.62,0,0,0-9.28-3.65,13.93,13.93,0,0,0-6.19,1.47,3.73,3.73,0,0,0-3.09-1.62,4.16,4.16,0,0,0-4,4.1l0,25.69a4.09,4.09,0,0,0,4,4,4,4,0,0,0,4-4l0-16.94c0-2.63,2.36-4.64,5.25-4.63s5.24,2,5.24,4.65l0,16.74a4,4,0,1,0,8,0l0-16.75c0-2.62,2.36-4.63,5.32-4.63A4.89,4.89,0,0,1,229.2,217.26Z"/><path d="M198.26,241.27a7,7,0,0,0-7.23,7.39,7.14,7.14,0,0,0,7.23,7.39,8,8,0,0,0,5.62-2.25,1.5,1.5,0,0,0-.15-2.09,1.67,1.67,0,0,0-1.93.16,4.66,4.66,0,0,1-3.38,1.45,4.21,4.21,0,0,1-4.34-3.54h9.8a1.44,1.44,0,0,0,1.45-1.44C205.17,244,202.27,241.27,198.26,241.27Zm-4.18,6.27a3.92,3.92,0,0,1,4.18-3.54,3.86,3.86,0,0,1,4,3.54Z"/><path d="M215.21,244.27a5.19,5.19,0,0,1,2.54.7,1.64,1.64,0,0,0,2.16-.34,1.5,1.5,0,0,0-.37-2.08,7.39,7.39,0,0,0-4.33-1.31,7.39,7.39,0,1,0,0,14.77,7.47,7.47,0,0,0,4.33-1.31,1.52,1.52,0,0,0,.37-2.09,1.64,1.64,0,0,0-2.16-.34,5.09,5.09,0,0,1-2.54.7,4.35,4.35,0,1,1,0-8.7Z"/><path d="M229.75,241.27a7.13,7.13,0,0,0-7.23,7.39,7.39,7.39,0,1,0,7.23-7.39Zm0,11.73a4.2,4.2,0,0,1-4.18-4.34,4.26,4.26,0,1,1,8.52,0A4.23,4.23,0,0,1,229.75,253Z"/><path d="M141.06,159.08c8-2.58,24.29-10.06,29.1-29.17a4.08,4.08,0,0,0-3.41-5,4.13,4.13,0,0,0-4.57,3.11c-4,15.5-17.22,21.34-23.59,23.3a4.06,4.06,0,1,0,2.47,7.74Z"/><path d="M129.87,105.23a4.18,4.18,0,0,0,4.18-4.18V31.48a4.19,4.19,0,0,0-8.37,0v69.57A4.19,4.19,0,0,0,129.87,105.23Z"/><path d="M86.26,105.23a4.19,4.19,0,0,0,4.19-4.18V31.48a4.19,4.19,0,0,0-8.37,0v69.57A4.18,4.18,0,0,0,86.26,105.23Z"/><path d="M115.38,105.23a4.18,4.18,0,0,0,4.18-4.18V19.83a4.18,4.18,0,1,0-8.36,0v81.22A4.18,4.18,0,0,0,115.38,105.23Z"/><path d="M100.82,105.23a4.18,4.18,0,0,0,4.18-4.18V4.18a4.18,4.18,0,0,0-8.36,0v96.87A4.18,4.18,0,0,0,100.82,105.23Z"/><path d="M129.94,182.18a62.31,62.31,0,0,0,9.91-123.83V66.9a53.91,53.91,0,0,1-9.91,106.9c-29.73,0-54-24.59-54-54.32V59a4.19,4.19,0,0,0-8.38,0v61.82a62.67,62.67,0,0,0,62.43,61.39Z"/></svg>