<svg id="Layer_1" data-name="Layer 1" xmlns="http://www.w3.org/2000/svg" viewBox="0 0 256 256"><defs><style>.cls-1{fill:#fff;}</style></defs><title>V 256x256 WhiteSVG</title><path class="cls-1" d="M59.29,207.65l0,25.92a4.16,4.16,0,1,0,8.32,0l0-25.92a4.16,4.16,0,0,0-8.32,0Z"/><path class="cls-1" d="M102.81,203.77a4.22,4.22,0,0,0-3.91,2.82,16.19,16.19,0,0,0-8.72-2.5,16.79,16.79,0,1,0,8.47,31.24v2.95a9,9,0,0,1-9.08,9.05,8.91,8.91,0,0,1-6.84-3.1,4,4,0,0,0-5.78-.42,4.11,4.11,0,0,0-.48,5.77,17.27,17.27,0,0,0,30.37-11.28l.06-30.42A4.11,4.11,0,0,0,102.81,203.77Zm-12.68,25.7a8.6,8.6,0,1,1,8.55-8.58A8.61,8.61,0,0,1,90.13,229.47Z"/><path class="cls-1" d="M130.67,203.83a17.57,17.57,0,0,0-9.47,2.8l0-15.71a4.07,4.07,0,1,0-8.13,0L113,233.61a4,4,0,0,0,4.09,4,4.13,4.13,0,0,0,3.9-2.81,16.64,16.64,0,0,0,9.59,3,17,17,0,0,0,.07-34Zm0,25.85a8.87,8.87,0,1,1,8.88-8.85A8.86,8.86,0,0,1,130.62,229.68Z"/><path class="cls-1" d="M36.75,203.65a17.57,17.57,0,0,0-9.47,2.8l0-15.72a4.07,4.07,0,1,0-8.13,0l-.08,42.7a4,4,0,0,0,4.09,4,4.14,4.14,0,0,0,3.9-2.81,16.82,16.82,0,0,0,9.59,3,17,17,0,1,0,.07-34Zm0,25.85a8.87,8.87,0,1,1,8.88-8.85A8.86,8.86,0,0,1,36.7,229.5Z"/><path class="cls-1" d="M169.72,204.11a16.85,16.85,0,1,0,16.89,16.95A16.9,16.9,0,0,0,169.72,204.11Zm-.05,25.44a8.6,8.6,0,1,1,8.61-8.57A8.57,8.57,0,0,1,169.67,229.55Z"/><path class="cls-1" d="M236.91,217.17a13.31,13.31,0,0,0-22.4-8.95,13.53,13.53,0,0,0-9.26-3.64,13.72,13.72,0,0,0-6.18,1.46,3.77,3.77,0,0,0-3.09-1.62,4.16,4.16,0,0,0-4,4.09l-.05,25.65a4.08,4.08,0,0,0,4,4,4,4,0,0,0,4-3.95l0-16.92c0-2.62,2.35-4.63,5.24-4.63s5.23,2,5.23,4.65l0,16.72a4,4,0,1,0,8,0l0-16.72c0-2.62,2.36-4.63,5.31-4.62a4.89,4.89,0,0,1,5.1,4.64l0,16.72a4.05,4.05,0,0,0,4.08,4,3.94,3.94,0,0,0,4-4l0-12.66Z"/><path class="cls-1" d="M205,248.31a6.86,6.86,0,0,0-7.08-7.06,7,7,0,0,0-7.27,7.33A7.11,7.11,0,0,0,198,256a7.71,7.71,0,0,0,5.57-2.24,1.36,1.36,0,0,0-.06-2,1.59,1.59,0,0,0-2,.12,4.76,4.76,0,0,1-3.36,1.36,4.1,4.1,0,0,1-4.33-3.54h9.84A1.42,1.42,0,0,0,205,248.31Zm-11.26-.85A4,4,0,0,1,198,244a3.84,3.84,0,0,1,4,3.48Z"/><path class="cls-1" d="M214.88,244.28a5.13,5.13,0,0,1,2.55.7,1.63,1.63,0,0,0,2.15-.34,1.52,1.52,0,0,0-.37-2.09,7.51,7.51,0,0,0-4.33-1.3,7.38,7.38,0,1,0,0,14.75,7.44,7.44,0,0,0,4.33-1.31,1.5,1.5,0,0,0,.37-2.08,1.63,1.63,0,0,0-2.15-.34,5.13,5.13,0,0,1-2.55.7,4.35,4.35,0,1,1,0-8.69Z"/><path class="cls-1" d="M229.48,241.25a7.12,7.12,0,0,0-7.36,7.33,7.39,7.39,0,1,0,7.36-7.33Zm0,11.72a4.35,4.35,0,1,1,4.33-4.39A4.2,4.2,0,0,1,229.48,253Z"/><path class="cls-1" d="M135.59,156a4.08,4.08,0,0,0,5.26,3.21c8-2.57,24.26-10.05,29.06-29.12a4.09,4.09,0,0,0-8-1.87c-3.95,15.47-17.2,21.31-23.55,23.26A4.05,4.05,0,0,0,135.59,156Z"/><path class="cls-1" d="M125.5,31.82v69.46a4.18,4.18,0,0,0,8.35,0V31.82a4.18,4.18,0,1,0-8.35,0Z"/><path class="cls-1" d="M82,31.82v69.46a4.18,4.18,0,0,0,8.35,0V31.82a4.18,4.18,0,1,0-8.35,0Z"/><path class="cls-1" d="M111,20.18v81.1a4.18,4.18,0,0,0,8.36,0V20.18a4.18,4.18,0,0,0-8.36,0Z"/><path class="cls-1" d="M96.49,4.56v96.72a4.18,4.18,0,0,0,8.36,0V4.56a4.18,4.18,0,1,0-8.36,0Z"/><path class="cls-1" d="M129.74,182.28a62.22,62.22,0,0,0,9.9-123.64v8.54a53.83,53.83,0,0,1-9.9,106.75c-29.68,0-54-24.57-54-54.25V59.27a4.18,4.18,0,1,0-8.35,0V121a62.53,62.53,0,0,0,62.32,61.29Z"/></svg>