<svg id="Layer_1" data-name="Layer 1" xmlns="http://www.w3.org/2000/svg" xmlns:xlink="http://www.w3.org/1999/xlink" viewBox="0 0 32 32"><defs><style>.cls-1{fill:none;}.cls-2{clip-path:url(#clip-path);}.cls-3{fill:#4cae4a;}.cls-4{clip-path:url(#clip-path-3);}</style><clipPath id="clip-path"><rect class="cls-1" x="2.42" y="0.04" width="27.16" height="31.92"/></clipPath><clipPath id="clip-path-3"><rect class="cls-1" x="7.36" y="0.04" width="17.68" height="23.16"/></clipPath></defs><title>V 32x32 GreenSVG</title><g id="logo_BB_ECO_Shape_Text" data-name="logo BB ECO Shape + Text"><g class="cls-2"><g class="cls-2"><path class="cls-3" d="M8,25.42a.52.52,0,0,0-.53.51v3.23a.52.52,0,1,0,1,0V25.93A.51.51,0,0,0,8,25.42"/><path class="cls-3" d="M12.86,25.45a.53.53,0,0,0-.49.35,2,2,0,0,0-1.09-.31,2.09,2.09,0,1,0,0,4.18,2,2,0,0,0,1.06-.29v.37a1.13,1.13,0,0,1-2,.74.5.5,0,0,0-.72,0,.53.53,0,0,0-.06.72,2.16,2.16,0,0,0,3.79-1.41V26a.51.51,0,0,0-.51-.51m-1.58,3.2a1.07,1.07,0,1,1,1.06-1.07,1.07,1.07,0,0,1-1.06,1.07"/><path class="cls-3" d="M16.33,25.46a2.2,2.2,0,0,0-1.18.34V23.85a.51.51,0,1,0-1,0v5.33a.51.51,0,0,0,.51.5.52.52,0,0,0,.49-.35,2,2,0,0,0,1.19.37,2.12,2.12,0,1,0,0-4.23m0,3.22a1.11,1.11,0,1,1,0-2.21,1.11,1.11,0,0,1,0,2.21"/><path class="cls-3" d="M4.62,25.43a2.18,2.18,0,0,0-1.18.35v-2a.51.51,0,1,0-1,0v5.33a.51.51,0,0,0,.51.5.52.52,0,0,0,.49-.35,2.1,2.1,0,0,0,1.19.37,2.12,2.12,0,1,0,0-4.24m0,3.23a1.11,1.11,0,0,1-1.11-1.11,1.11,1.11,0,0,1,2.21,0,1.11,1.11,0,0,1-1.1,1.11"/><path class="cls-3" d="M21.2,25.49a2.1,2.1,0,1,0,2.11,2.11,2.11,2.11,0,0,0-2.11-2.11m0,3.17a1.07,1.07,0,1,1,1.07-1.07,1.06,1.06,0,0,1-1.07,1.07"/><path class="cls-3" d="M27.94,25.55a1.63,1.63,0,0,0-1.15.45,1.73,1.73,0,0,0-1.93-.27.44.44,0,0,0-.38-.2A.52.52,0,0,0,24,26v3.2a.5.5,0,0,0,.5.49.49.49,0,0,0,.5-.49V27.13a.61.61,0,0,1,.65-.58.62.62,0,0,1,.65.58v2.09a.5.5,0,1,0,1,0V27.13a.65.65,0,0,1,1.3,0v2.08a.52.52,0,0,0,.51.51.5.5,0,0,0,.5-.51V27.14a1.62,1.62,0,0,0-1.64-1.59"/><path class="cls-3" d="M25.43,31.18H24.2a.52.52,0,0,0,.54.44.57.57,0,0,0,.42-.17.2.2,0,0,1,.25,0,.16.16,0,0,1,0,.24,1,1,0,0,1-.7.28.92.92,0,0,1,0-1.84.86.86,0,0,1,.89.88.19.19,0,0,1-.18.18m-.2-.28a.49.49,0,0,0-.51-.44.49.49,0,0,0-.52.44Z"/><path class="cls-3" d="M26.83,30.12a1,1,0,0,1,.54.16.18.18,0,0,1,.05.26.2.2,0,0,1-.27.05.57.57,0,0,0-.32-.09.54.54,0,1,0,0,1.08.66.66,0,0,0,.32-.08.2.2,0,0,1,.27,0,.18.18,0,0,1-.05.26,1,1,0,0,1-.54.16.92.92,0,1,1,0-1.84"/><path class="cls-3" d="M27.74,31a.92.92,0,1,1,1.84,0,.92.92,0,1,1-1.84,0m1.45,0a.54.54,0,1,0-.54.54.52.52,0,0,0,.54-.54"/></g><g class="cls-4"><path class="cls-3" d="M17.6,19.89a5.25,5.25,0,0,0,3.63-3.63.51.51,0,0,0-.43-.62.51.51,0,0,0-.57.39,4.17,4.17,0,0,1-2.93,2.9.49.49,0,0,0-.35.56.5.5,0,0,0,.65.4"/><path class="cls-3" d="M16.21,13.19a.52.52,0,0,0,.52-.52V4a.52.52,0,0,0-1,0v8.66a.52.52,0,0,0,.52.52"/><path class="cls-3" d="M10.78,13.19a.52.52,0,0,0,.52-.52V4a.52.52,0,0,0-1,0v8.66a.52.52,0,0,0,.52.52"/><path class="cls-3" d="M14.4,13.19a.52.52,0,0,0,.53-.52V2.56a.53.53,0,1,0-1,0V12.67a.52.52,0,0,0,.52.52"/><path class="cls-3" d="M12.59,13.19a.52.52,0,0,0,.52-.52V.61a.52.52,0,1,0-1,0V12.67a.52.52,0,0,0,.52.52"/><path class="cls-3" d="M16.22,22.77A7.76,7.76,0,0,0,17.45,7.35V8.42a6.71,6.71,0,0,1-1.23,13.31A6.79,6.79,0,0,1,9.49,15V7.43A.52.52,0,0,0,9,6.91a.52.52,0,0,0-.52.52v7.7a7.79,7.79,0,0,0,7.77,7.64"/></g></g></g></svg>