<svg id="Layer_1" data-name="Layer 1" xmlns="http://www.w3.org/2000/svg" viewBox="0 0 32 32"><defs><style>.cls-1{fill:#fff;}</style></defs><title>V 32x32 whiteSVG</title><path class="cls-1" d="M7.42,26v3.23a.53.53,0,0,0,.53.53.52.52,0,0,0,.51-.52V26a.52.52,0,0,0-1,0Z"/><path class="cls-1" d="M12.85,25.46a.52.52,0,0,0-.48.35,2.06,2.06,0,0,0-1.09-.31,2.1,2.1,0,1,0,0,4.19,2,2,0,0,0,1.06-.29v.37A1.12,1.12,0,0,1,11.2,30.9a1.09,1.09,0,0,1-.86-.39.51.51,0,0,0-.72-.05.52.52,0,0,0-.06.72,2.16,2.16,0,0,0,3.8-1.41V26A.51.51,0,0,0,12.85,25.46Zm-1.58,3.21a1.08,1.08,0,1,1,1.07-1.07A1.07,1.07,0,0,1,11.27,28.67Z"/><path class="cls-1" d="M16.33,25.47a2.18,2.18,0,0,0-1.18.35v-2a.51.51,0,0,0-.5-.52.52.52,0,0,0-.51.51v5.34a.5.5,0,0,0,.51.5.53.53,0,0,0,.49-.35,2,2,0,0,0,1.19.37,2.12,2.12,0,1,0,0-4.24Zm0,3.23a1.11,1.11,0,1,1,0-2.22,1.11,1.11,0,1,1,0,2.22Z"/><path class="cls-1" d="M4.6,25.45a2.18,2.18,0,0,0-1.18.35v-2a.51.51,0,1,0-1,0v5.34a.5.5,0,0,0,.51.5.52.52,0,0,0,.49-.35,2.1,2.1,0,0,0,1.19.37,2.12,2.12,0,1,0,0-4.24Zm0,3.22a1.11,1.11,0,1,1,0-2.21,1.11,1.11,0,1,1,0,2.21Z"/><path class="cls-1" d="M21.21,25.5a2.11,2.11,0,1,0,2.11,2.12A2.14,2.14,0,0,0,21.21,25.5Zm0,3.18a1.07,1.07,0,1,1,1.08-1.07A1.07,1.07,0,0,1,21.2,28.68Z"/><path class="cls-1" d="M29.6,27.15A1.62,1.62,0,0,0,28,25.57,1.63,1.63,0,0,0,26.8,26a1.66,1.66,0,0,0-1.92-.27.51.51,0,0,0-.39-.21.52.52,0,0,0-.5.52v3.2a.5.5,0,0,0,.5.49.49.49,0,0,0,.51-.49V27.15a.62.62,0,0,1,.66-.58.61.61,0,0,1,.65.58v2.09a.5.5,0,0,0,.51.5.49.49,0,0,0,.49-.5V27.15a.61.61,0,0,1,.66-.58.63.63,0,0,1,.64.58v2.09a.51.51,0,0,0,.51.51.5.5,0,0,0,.5-.51V27.15Z"/><path class="cls-1" d="M25.62,31a.85.85,0,0,0-.88-.88.92.92,0,0,0,0,1.84.94.94,0,0,0,.69-.28.16.16,0,0,0,0-.24.18.18,0,0,0-.24,0,.59.59,0,0,1-.42.17.52.52,0,0,1-.55-.44h1.23A.17.17,0,0,0,25.62,31Zm-1.41-.1a.51.51,0,0,1,.53-.44.48.48,0,0,1,.5.44Z"/><path class="cls-1" d="M26.85,30.52a.7.7,0,0,1,.32.09.21.21,0,0,0,.27,0,.19.19,0,0,0-.05-.26.89.89,0,0,0-.54-.17.93.93,0,1,0,0,1.85.89.89,0,0,0,.54-.17.19.19,0,0,0,.05-.26.21.21,0,0,0-.27,0,.7.7,0,0,1-.32.09.53.53,0,0,1-.55-.54A.54.54,0,0,1,26.85,30.52Z"/><path class="cls-1" d="M28.67,30.14a.92.92,0,1,0,.93.92A.89.89,0,0,0,28.67,30.14Zm0,1.47a.53.53,0,0,1-.53-.55.54.54,0,1,1,1.07,0A.53.53,0,0,1,28.67,31.61Z"/><path class="cls-1" d="M17.61,19.9a5.25,5.25,0,0,0,3.62-3.64.5.5,0,0,0-.42-.62.51.51,0,0,0-.57.39,4.18,4.18,0,0,1-2.94,2.9.51.51,0,1,0,.31,1Z"/><path class="cls-1" d="M15.69,4v8.67a.52.52,0,0,0,1,0V4a.52.52,0,0,0-1,0Z"/><path class="cls-1" d="M10.25,4v8.67a.52.52,0,0,0,1,0V4a.52.52,0,0,0-1,0Z"/><path class="cls-1" d="M13.88,2.53V12.66a.52.52,0,0,0,1,0V2.53a.52.52,0,1,0-1,0Z"/><path class="cls-1" d="M12.07.58V12.66a.52.52,0,0,0,1,0V.58a.52.52,0,0,0-1,0Z"/><path class="cls-1" d="M16.22,22.78A7.77,7.77,0,0,0,17.45,7.34V8.4a6.73,6.73,0,0,1-1.23,13.34A6.79,6.79,0,0,1,9.48,15V7.42a.53.53,0,1,0-1.05,0v7.7a7.82,7.82,0,0,0,7.79,7.66Z"/></svg>