<svg id="Layer_1" data-name="Layer 1" xmlns="http://www.w3.org/2000/svg" viewBox="0 0 48 48"><defs><style>.cls-1{fill:#fff;}</style></defs><title>V 48x48 whiteSVG</title><path class="cls-1" d="M11.12,38.93v4.86a.78.78,0,1,0,1.56,0V38.94a.78.78,0,0,0-1.56,0Z"/><path class="cls-1" d="M19.28,38.2a.81.81,0,0,0-.74.53,3,3,0,0,0-1.63-.47,3.15,3.15,0,1,0,0,6.29,3.22,3.22,0,0,0,1.6-.43v.55a1.71,1.71,0,0,1-1.71,1.7,1.68,1.68,0,0,1-1.28-.58.75.75,0,0,0-1.08-.08.76.76,0,0,0-.09,1.08A3.23,3.23,0,0,0,20,44.67V39A.77.77,0,0,0,19.28,38.2ZM16.9,43a1.62,1.62,0,0,1-1.61-1.62,1.61,1.61,0,1,1,3.21,0A1.61,1.61,0,0,1,16.9,43Z"/><path class="cls-1" d="M24.5,38.21a3.32,3.32,0,0,0-1.78.53v-3a.76.76,0,1,0-1.52,0l0,8a.77.77,0,0,0,1.5.23,3.08,3.08,0,0,0,1.8.56,3.19,3.19,0,0,0,0-6.37Zm0,4.85a1.67,1.67,0,0,1,0-3.33,1.67,1.67,0,1,1,0,3.33Z"/><path class="cls-1" d="M6.89,38.18a3.34,3.34,0,0,0-1.77.52V35.76a.76.76,0,1,0-1.52,0l0,8a.76.76,0,0,0,.77.76A.78.78,0,0,0,5.08,44a3.15,3.15,0,0,0,1.8.56,3.19,3.19,0,0,0,0-6.37Zm0,4.84a1.66,1.66,0,1,1,1.67-1.65A1.66,1.66,0,0,1,6.88,43Z"/><path class="cls-1" d="M31.82,38.26A3.16,3.16,0,1,0,35,41.44,3.18,3.18,0,0,0,31.82,38.26Zm0,4.77a1.61,1.61,0,1,1,1.62-1.6A1.61,1.61,0,0,1,31.81,43Z"/><path class="cls-1" d="M44.42,40.73A2.49,2.49,0,0,0,40.22,39a2.55,2.55,0,0,0-1.74-.68,2.71,2.71,0,0,0-1.16.27.69.69,0,0,0-.58-.3.77.77,0,0,0-.75.76V43.9a.76.76,0,0,0,.75.75.75.75,0,0,0,.76-.74V40.73a1,1,0,0,1,2,0v3.13a.75.75,0,1,0,1.5,0V40.74a1,1,0,0,1,1.95,0v3.14a.77.77,0,0,0,.77.76.74.74,0,0,0,.74-.76V40.73Z"/><path class="cls-1" d="M38.44,46.55a1.28,1.28,0,0,0-1.33-1.32,1.32,1.32,0,0,0-1.36,1.37A1.33,1.33,0,0,0,37.11,48a1.44,1.44,0,0,0,1-.42.26.26,0,0,0,0-.37.32.32,0,0,0-.38,0,.92.92,0,0,1-.63.25.77.77,0,0,1-.81-.66h1.85A.27.27,0,0,0,38.44,46.55Z"/><path class="cls-1" d="M40.29,45.8a1,1,0,0,1,.48.13.31.31,0,0,0,.4-.06.28.28,0,0,0-.07-.39,1.39,1.39,0,0,0-.81-.25,1.39,1.39,0,1,0,0,2.77,1.39,1.39,0,0,0,.81-.25.28.28,0,0,0,.07-.39.3.3,0,0,0-.4-.06,1,1,0,0,1-.48.13.82.82,0,1,1,0-1.63Z"/><path class="cls-1" d="M43,45.23a1.33,1.33,0,0,0-1.38,1.37,1.39,1.39,0,1,0,2.77,0A1.33,1.33,0,0,0,43,45.23Zm0,2.19a.79.79,0,0,1-.8-.82.81.81,0,1,1,.8.82Z"/><path class="cls-1" d="M26.41,29.85a7.88,7.88,0,0,0,5.45-5.46.77.77,0,0,0-.64-.93.78.78,0,0,0-.86.58A6.27,6.27,0,0,1,26,28.4a.76.76,0,1,0,.46,1.45Z"/><path class="cls-1" d="M23.53,6V19a.79.79,0,0,0,1.57,0V6a.79.79,0,0,0-1.57,0Z"/><path class="cls-1" d="M15.37,6V19a.78.78,0,0,0,1.56,0V6a.78.78,0,1,0-1.56,0Z"/><path class="cls-1" d="M20.82,3.79V19a.78.78,0,1,0,1.56,0V3.79a.78.78,0,1,0-1.56,0Z"/><path class="cls-1" d="M18.09.86V19a.79.79,0,0,0,1.57,0V.86a.79.79,0,1,0-1.57,0Z"/><path class="cls-1" d="M24.33,34.18A11.67,11.67,0,0,0,26.18,11v1.6a10.09,10.09,0,1,1-12,9.84V11.11a.79.79,0,0,0-1.57,0V22.69A11.73,11.73,0,0,0,24.33,34.18Z"/></svg>