<svg id="Layer_1" data-name="Layer 1" xmlns="http://www.w3.org/2000/svg" viewBox="0 0 64 64"><defs><style>.cls-1{fill:none;}</style></defs><title>V 64x64 blackSVG</title><path class="cls-1" d="M32.6,47.76a1.67,1.67,0,0,0,0,3.34,1.67,1.67,0,0,0,0-3.34Z"/><path class="cls-1" d="M40.05,47.85a1.61,1.61,0,1,0,1.59,1.59A1.58,1.58,0,0,0,40.05,47.85Z"/><path class="cls-1" d="M15.05,47.73a1.65,1.65,0,0,0-1.66,1.65,1.66,1.66,0,1,0,1.66-1.65Z"/><path class="cls-1" d="M45.35,53.79a.73.73,0,0,0-.78.66H46.1A.72.72,0,0,0,45.35,53.79Z"/><path class="cls-1" d="M25.09,47.82a1.61,1.61,0,1,0,0,3.22,1.61,1.61,0,0,0,0-3.22Z"/><path class="cls-1" d="M51.26,53.85a.76.76,0,0,0-.78.81.8.8,0,1,0,1.59,0A.77.77,0,0,0,51.26,53.85Z"/><path d="M20.09,46.19a.76.76,0,0,0-.8.76v4.87a.79.79,0,0,0,.79.79.78.78,0,0,0,.77-.78V47A.77.77,0,0,0,20.09,46.19Z"/><path d="M27.47,46.22a.78.78,0,0,0-.72.54,3.15,3.15,0,1,0-1.66,5.82,3.26,3.26,0,0,0,1.6-.42v.54A1.7,1.7,0,0,1,25,54.42a1.63,1.63,0,0,1-1.27-.6.72.72,0,0,0-1.08-.06.76.76,0,0,0-.09,1.08A3.18,3.18,0,0,0,25,56a3.25,3.25,0,0,0,3.26-3.26V47A.78.78,0,0,0,27.47,46.22ZM25.09,51a1.61,1.61,0,1,1,1.6-1.6A1.62,1.62,0,0,1,25.09,51Z"/><path d="M32.63,46.25a3.24,3.24,0,0,0-1.76.51l0-2.95a.76.76,0,0,0-.74-.76.72.72,0,0,0-.76.76l0,8a.76.76,0,0,0,.76.75.74.74,0,0,0,.71-.51,3,3,0,0,0,1.76.54,3.18,3.18,0,0,0,0-6.36Zm0,4.85a1.67,1.67,0,1,1,1.64-1.66A1.66,1.66,0,0,1,32.6,51.1Z"/><path d="M15.05,46.19a3.28,3.28,0,0,0-1.78.54V43.78a.75.75,0,1,0-1.5,0l0,8a.76.76,0,0,0,.79.75.75.75,0,0,0,.72-.51,3.3,3.3,0,0,0,1.81.54,3.2,3.2,0,0,0,3.2-3.2A3.24,3.24,0,0,0,15.05,46.19Zm0,4.88a1.68,1.68,0,0,1-1.66-1.69,1.65,1.65,0,0,1,1.66-1.65,1.67,1.67,0,0,1,0,3.34Z"/><path d="M40.05,46.28a3.17,3.17,0,1,0,3.16,3.19A3.17,3.17,0,0,0,40.05,46.28Zm0,4.79a1.61,1.61,0,1,1,0-3.22,1.58,1.58,0,0,1,1.59,1.59A1.61,1.61,0,0,1,40.05,51.07Z"/><path d="M51.16,48.77v3.14a.76.76,0,0,0,.77.76.75.75,0,0,0,.75-.76V48.76a2.5,2.5,0,0,0-4.21-1.7,2.53,2.53,0,0,0-1.74-.68,2.64,2.64,0,0,0-1.16.27.69.69,0,0,0-.58-.3.78.78,0,0,0-.76.77v4.82a.76.76,0,0,0,.76.74.75.75,0,0,0,.76-.74V48.76a.93.93,0,0,1,1-.87.92.92,0,0,1,1,.87V51.9a.75.75,0,0,0,.76.76.76.76,0,0,0,.75-.75V48.77a.93.93,0,0,1,1-.87A.92.92,0,0,1,51.16,48.77Z"/><path d="M45.35,53.27A1.32,1.32,0,0,0,44,54.66a1.34,1.34,0,0,0,1.35,1.39,1.49,1.49,0,0,0,1.06-.43.28.28,0,0,0,0-.39.31.31,0,0,0-.36,0,.9.9,0,0,1-.64.27.79.79,0,0,1-.81-.66h1.84a.27.27,0,0,0,.27-.27A1.29,1.29,0,0,0,45.35,53.27Zm-.78,1.18a.73.73,0,0,1,.78-.66.72.72,0,0,1,.75.66Z"/><path d="M48.53,53.84A1,1,0,0,1,49,54a.31.31,0,0,0,.4-.06.29.29,0,0,0-.06-.4,1.41,1.41,0,0,0-.82-.24,1.39,1.39,0,1,0,0,2.77,1.42,1.42,0,0,0,.82-.25.28.28,0,0,0,.06-.39.31.31,0,0,0-.4-.06,1,1,0,0,1-.48.13.82.82,0,1,1,0-1.63Z"/><path d="M51.26,53.27a1.35,1.35,0,0,0-1.36,1.39,1.39,1.39,0,1,0,1.36-1.39Zm0,2.2a.78.78,0,0,1-.78-.81.8.8,0,1,1,1.59,0A.79.79,0,0,1,51.26,55.47Z"/><path d="M34.62,37.85a7.91,7.91,0,0,0,5.46-5.47.77.77,0,0,0-.64-.94.79.79,0,0,0-.86.59,6.32,6.32,0,0,1-4.42,4.37.75.75,0,0,0-.53.85A.77.77,0,0,0,34.62,37.85Z"/><path d="M32.52,27.75A.79.79,0,0,0,33.3,27v-13a.79.79,0,1,0-1.57,0V27A.79.79,0,0,0,32.52,27.75Z"/><path d="M24.33,27.75a.79.79,0,0,0,.79-.79v-13a.79.79,0,1,0-1.57,0V27A.79.79,0,0,0,24.33,27.75Z"/><path d="M29.8,27.75a.79.79,0,0,0,.78-.79V11.72a.79.79,0,0,0-1.57,0V27A.79.79,0,0,0,29.8,27.75Z"/><path d="M27.07,27.75a.79.79,0,0,0,.78-.79V8.78a.79.79,0,0,0-1.57,0V27A.79.79,0,0,0,27.07,27.75Z"/><path d="M32.53,42.19A11.69,11.69,0,0,0,34.39,19v1.6a10.12,10.12,0,0,1-1.86,20.06A10.21,10.21,0,0,1,22.39,30.42V19.07a.79.79,0,1,0-1.57,0v11.6A11.77,11.77,0,0,0,32.53,42.19Z"/></svg>