<svg id="Layer_1" data-name="Layer 1" xmlns="http://www.w3.org/2000/svg" xmlns:xlink="http://www.w3.org/1999/xlink" viewBox="0 0 64 64"><defs><style>.cls-1{fill:none;}.cls-2{font-size:3px;fill:#231f20;font-family:MyriadPro-Regular, Myriad Pro;}.cls-3{clip-path:url(#clip-path);}.cls-4{fill:#4cae4a;}.cls-5{clip-path:url(#clip-path-3);}</style><clipPath id="clip-path"><rect class="cls-1" x="4.77" width="54.45" height="64"/></clipPath><clipPath id="clip-path-3"><rect class="cls-1" x="14.68" width="35.45" height="46.44"/></clipPath></defs><title>V 64x64 greenSVG</title><text class="cls-2" transform="translate(1.33 -0.01)">64x64</text><g id="logo_BB_ECO_Shape_Text" data-name="logo BB ECO Shape + Text"><g class="cls-3"><g class="cls-3"><path class="cls-4" d="M15.88,50.89a1,1,0,0,0-1.06,1v6.48a1.06,1.06,0,0,0,1,1,1,1,0,0,0,1-1V51.92a1,1,0,0,0-1-1"/><path class="cls-4" d="M25.7,50.94a1,1,0,0,0-1,.71A4,4,0,0,0,22.55,51a4.2,4.2,0,1,0,0,8.39,4.08,4.08,0,0,0,2.13-.58v.74a2.27,2.27,0,0,1-4,1.49A1,1,0,0,0,19.24,61a1,1,0,0,0-.12,1.45,4.32,4.32,0,0,0,7.59-2.83V52a1,1,0,0,0-1-1m-3.17,6.43a2.15,2.15,0,0,1,0-4.3,2.15,2.15,0,0,1,0,4.3"/><path class="cls-4" d="M32.67,51a4.37,4.37,0,0,0-2.37.7V47.73a1,1,0,1,0-2,0l0,10.67a1,1,0,0,0,2,.31,4.19,4.19,0,0,0,2.4.74,4.25,4.25,0,1,0,0-8.49m0,6.46a2.22,2.22,0,1,1,2.23-2.21,2.22,2.22,0,0,1-2.23,2.21"/><path class="cls-4" d="M9.19,50.91a4.48,4.48,0,0,0-2.37.7V47.68a1,1,0,1,0-2,0l0,10.68a1,1,0,0,0,2,.3,4.25,4.25,0,1,0,2.42-7.75m0,6.46a2.22,2.22,0,1,1,2.22-2.21,2.21,2.21,0,0,1-2.22,2.21"/><path class="cls-4" d="M42.43,51a4.21,4.21,0,1,0,4.22,4.23A4.21,4.21,0,0,0,42.43,51m0,6.36a2.15,2.15,0,1,1,2.15-2.15,2.15,2.15,0,0,1-2.15,2.15"/><path class="cls-4" d="M56,51.15a3.28,3.28,0,0,0-2.32.91,3.42,3.42,0,0,0-2.32-.92,3.5,3.5,0,0,0-1.54.37,1,1,0,0,0-.77-.4,1,1,0,0,0-1,1l0,6.41a1,1,0,0,0,1,1,1,1,0,0,0,1-1V54.31a1.23,1.23,0,0,1,1.31-1.15,1.22,1.22,0,0,1,1.3,1.16V58.5a1,1,0,0,0,1,1,1,1,0,0,0,1-1V54.32a1.24,1.24,0,0,1,1.33-1.15,1.21,1.21,0,0,1,1.27,1.16v4.18a1,1,0,0,0,1,1,1,1,0,0,0,1-1V54.33A3.26,3.26,0,0,0,56,51.15"/><path class="cls-4" d="M50.91,62.43H48.45a1,1,0,0,0,1.08.89,1.2,1.2,0,0,0,.84-.34.39.39,0,0,1,.5,0,.34.34,0,0,1,0,.49,1.92,1.92,0,0,1-1.39.56,1.78,1.78,0,0,1-1.82-1.86,1.76,1.76,0,0,1,1.82-1.83,1.72,1.72,0,0,1,1.77,1.77.35.35,0,0,1-.35.35m-.41-.57a1,1,0,0,0-1-.87,1,1,0,0,0-1,.87Z"/><path class="cls-4" d="M53.72,60.31a1.87,1.87,0,0,1,1.08.33.37.37,0,0,1,.09.52.4.4,0,0,1-.53.08,1.35,1.35,0,0,0-.64-.17,1.09,1.09,0,1,0,0,2.17,1.35,1.35,0,0,0,.64-.17.4.4,0,0,1,.53.08.37.37,0,0,1-.09.52,1.89,1.89,0,0,1-3-1.51,1.82,1.82,0,0,1,1.88-1.85"/><path class="cls-4" d="M55.53,62.14a1.85,1.85,0,0,1,3.69,0,1.85,1.85,0,1,1-3.69,0m2.92,0a1.08,1.08,0,0,0-2.15,0,1.08,1.08,0,1,0,2.15,0"/></g><g class="cls-5"><path class="cls-4" d="M35.21,39.8a10.52,10.52,0,0,0,7.27-7.28,1,1,0,0,0-2-.46,8.42,8.42,0,0,1-5.89,5.81,1,1,0,1,0,.61,1.93"/><path class="cls-4" d="M32.42,26.36a1,1,0,0,0,1-1V8a1,1,0,0,0-2.09,0V25.32a1,1,0,0,0,1.05,1"/><path class="cls-4" d="M21.53,26.36a1,1,0,0,0,1-1V8a1,1,0,0,0-2.09,0V25.32a1,1,0,0,0,1,1"/><path class="cls-4" d="M28.8,26.36a1,1,0,0,0,1.05-1V5.05a1,1,0,1,0-2.09,0V25.32a1,1,0,0,0,1,1"/><path class="cls-4" d="M25.17,26.36a1,1,0,0,0,1-1V1.14a1,1,0,0,0-2.09,0V25.32a1,1,0,0,0,1.05,1"/><path class="cls-4" d="M32.44,45.57a15.55,15.55,0,0,0,2.47-30.91V16.8a13.45,13.45,0,0,1-2.47,26.68,13.6,13.6,0,0,1-13.5-13.56V14.82a1,1,0,1,0-2.09,0V30.25A15.64,15.64,0,0,0,32.44,45.57"/></g></g></g></svg>