<svg id="Layer_1" data-name="Layer 1" xmlns="http://www.w3.org/2000/svg" xmlns:xlink="http://www.w3.org/1999/xlink" viewBox="0 0 96 96"><defs><style>.cls-1{fill:none;}.cls-2{font-size:3px;fill:#231f20;font-family:MyriadPro-Regular, Myriad Pro;}.cls-3{clip-path:url(#clip-path);}.cls-4{fill:#4cae4a;}.cls-5{clip-path:url(#clip-path-3);}</style><clipPath id="clip-path"><rect class="cls-1" x="7.16" width="81.68" height="96"/></clipPath><clipPath id="clip-path-3"><rect class="cls-1" x="22.01" width="53.18" height="69.66"/></clipPath></defs><title>V 96x96 GreenSVG</title><text class="cls-2" transform="translate(2.11 0.24)">96x96</text><g id="logo_BB_ECO_Shape_Text" data-name="logo BB ECO Shape + Text"><g class="cls-3"><g class="cls-3"><path class="cls-4" d="M23.82,76.34a1.54,1.54,0,0,0-1.59,1.53l0,9.72a1.57,1.57,0,0,0,3.13,0V77.87a1.53,1.53,0,0,0-1.53-1.53"/><path class="cls-4" d="M38.55,76.41a1.59,1.59,0,0,0-1.46,1.06,6.08,6.08,0,0,0-3.27-.94A6.3,6.3,0,1,0,37,88.25v1.1a3.39,3.39,0,0,1-3.4,3.4A3.32,3.32,0,0,1,31,91.58a1.51,1.51,0,0,0-2.17-.15,1.55,1.55,0,0,0-.18,2.16,6.48,6.48,0,0,0,11.39-4.23l0-11.41a1.55,1.55,0,0,0-1.54-1.54M33.8,86.05A3.23,3.23,0,1,1,37,82.83a3.23,3.23,0,0,1-3.2,3.22"/><path class="cls-4" d="M49,76.44a6.46,6.46,0,0,0-3.55,1v-5.9a1.53,1.53,0,1,0-3.05,0l0,16a1.53,1.53,0,0,0,1.53,1.52,1.57,1.57,0,0,0,1.47-1.06A6.3,6.3,0,0,0,49,89.18a6.37,6.37,0,1,0,0-12.74m0,9.69a3.33,3.33,0,1,1,3.33-3.32A3.32,3.32,0,0,1,49,86.13"/><path class="cls-4" d="M13.78,76.37a6.46,6.46,0,0,0-3.55,1V71.53a1.53,1.53,0,1,0-3,0l0,16a1.54,1.54,0,0,0,3,.46,6.23,6.23,0,0,0,3.6,1.12,6.37,6.37,0,1,0,0-12.74m0,9.69a3.33,3.33,0,1,1,3.33-3.32,3.31,3.31,0,0,1-3.33,3.32"/><path class="cls-4" d="M63.64,76.54A6.32,6.32,0,1,0,70,82.9a6.34,6.34,0,0,0-6.34-6.36m0,9.54a3.22,3.22,0,1,1,3.23-3.21,3.21,3.21,0,0,1-3.23,3.21"/><path class="cls-4" d="M83.92,76.73a4.93,4.93,0,0,0-3.48,1.35A5.07,5.07,0,0,0,77,76.72a5,5,0,0,0-2.32.55,1.4,1.4,0,0,0-1.16-.61A1.55,1.55,0,0,0,72,78.19l0,9.62a1.52,1.52,0,0,0,1.51,1.49A1.5,1.5,0,0,0,75,87.82V81.47a2,2,0,0,1,3.93,0v6.27a1.5,1.5,0,1,0,3,0V81.48a2,2,0,0,1,3.9,0v6.27a1.53,1.53,0,0,0,1.53,1.52,1.49,1.49,0,0,0,1.49-1.51V81.5a4.87,4.87,0,0,0-4.92-4.77"/><path class="cls-4" d="M76.36,93.65H72.67A1.53,1.53,0,0,0,74.29,95a1.8,1.8,0,0,0,1.26-.51.6.6,0,0,1,.75,0,.5.5,0,0,1,0,.74,2.89,2.89,0,0,1-2.08.84,2.77,2.77,0,0,1,0-5.53,2.57,2.57,0,0,1,2.65,2.65.53.53,0,0,1-.53.53m-.61-.85a1.45,1.45,0,0,0-1.51-1.31,1.49,1.49,0,0,0-1.57,1.31Z"/><path class="cls-4" d="M80.58,90.47a2.83,2.83,0,0,1,1.63.49.57.57,0,0,1,.13.78.61.61,0,0,1-.8.13,2,2,0,0,0-1-.26,1.63,1.63,0,1,0,0,3.25,2,2,0,0,0,1-.26.6.6,0,0,1,.8.13.57.57,0,0,1-.13.78,2.83,2.83,0,0,1-1.63.49,2.77,2.77,0,1,1,0-5.53"/><path class="cls-4" d="M83.3,93.22a2.77,2.77,0,0,1,5.54,0,2.77,2.77,0,1,1-5.54,0m4.38,0a1.62,1.62,0,1,0-1.63,1.64,1.57,1.57,0,0,0,1.63-1.64"/></g><g class="cls-5"><path class="cls-4" d="M52.82,59.71c3-1,9.1-3.77,10.9-10.92a1.54,1.54,0,0,0-3-.7c-1.49,5.8-6.45,8-8.83,8.72a1.52,1.52,0,0,0-1,1.7,1.53,1.53,0,0,0,2,1.2"/><path class="cls-4" d="M48.63,39.55A1.57,1.57,0,0,0,50.19,38v-26a1.57,1.57,0,0,0-3.13,0V38a1.57,1.57,0,0,0,1.57,1.57"/><path class="cls-4" d="M32.3,39.55A1.57,1.57,0,0,0,33.87,38v-26a1.57,1.57,0,0,0-3.14,0V38a1.57,1.57,0,0,0,1.57,1.57"/><path class="cls-4" d="M43.2,39.55A1.57,1.57,0,0,0,44.77,38V7.57a1.57,1.57,0,1,0-3.13,0V38a1.57,1.57,0,0,0,1.56,1.57"/><path class="cls-4" d="M37.75,39.55A1.57,1.57,0,0,0,39.32,38V1.71a1.57,1.57,0,1,0-3.14,0V38a1.58,1.58,0,0,0,1.57,1.57"/><path class="cls-4" d="M48.65,68.35A23.33,23.33,0,0,0,52.36,22v3.2A20.19,20.19,0,1,1,28.42,44.88V22.23a1.57,1.57,0,1,0-3.14,0V45.37a23.44,23.44,0,0,0,23.37,23"/></g></g></g></svg>