<svg id="Layer_1" data-name="Layer 1" xmlns="http://www.w3.org/2000/svg" viewBox="0 0 96 96"><defs><style>.cls-1{fill:none;}</style></defs><title>V 96x96 blackSVG</title><path class="cls-1" d="M49,79.44a3.34,3.34,0,0,0,0,6.68,3.34,3.34,0,0,0,0-6.68Z"/><path class="cls-1" d="M63.86,79.62a3.22,3.22,0,1,0,3.19,3.19A3.17,3.17,0,0,0,63.86,79.62Z"/><path class="cls-1" d="M14,79.38a3.29,3.29,0,0,0-3.31,3.31A3.31,3.31,0,1,0,14,79.38Z"/><path class="cls-1" d="M74.45,91.48a1.47,1.47,0,0,0-1.56,1.32H76A1.45,1.45,0,0,0,74.45,91.48Z"/><path class="cls-1" d="M34,79.56a3.22,3.22,0,1,0,3.19,3.25A3.23,3.23,0,0,0,34,79.56Z"/><path class="cls-1" d="M86.25,91.6a1.53,1.53,0,0,0-1.56,1.62,1.6,1.6,0,1,0,3.19,0A1.55,1.55,0,0,0,86.25,91.6Z"/><path d="M24,76.3a1.56,1.56,0,0,0-1.59,1.54v9.72a1.56,1.56,0,1,0,3.12,0l0-9.73A1.54,1.54,0,0,0,24,76.3Z"/><path d="M38.76,76.37a1.55,1.55,0,0,0-1.45,1.08A6.29,6.29,0,1,0,34,89.07a6.52,6.52,0,0,0,3.19-.84v1.08a3.39,3.39,0,0,1-3.43,3.43,3.19,3.19,0,0,1-2.53-1.2,1.49,1.49,0,0,0-2.17-.12,1.54,1.54,0,0,0-.18,2.17,6.35,6.35,0,0,0,4.88,2.22,6.47,6.47,0,0,0,6.5-6.5V77.93A1.54,1.54,0,0,0,38.76,76.37ZM34,86a3.22,3.22,0,1,1,3.19-3.19A3.22,3.22,0,0,1,34,86Z"/><path d="M49,76.43a6.54,6.54,0,0,0-3.51,1l.06-5.9a1.5,1.5,0,0,0-1.46-1.5,1.45,1.45,0,0,0-1.53,1.5l-.05,16a1.52,1.52,0,0,0,1.52,1.5,1.48,1.48,0,0,0,1.41-1A5.93,5.93,0,0,0,49,89.13a6.35,6.35,0,0,0,0-12.7Zm0,9.69a3.34,3.34,0,1,1,3.28-3.31A3.35,3.35,0,0,1,49,86.12Z"/><path d="M14,76.31a6.52,6.52,0,0,0-3.55,1.08v-5.9a1.51,1.51,0,1,0-3,0l-.06,16a1.55,1.55,0,0,0,3,.49A6.57,6.57,0,0,0,14,89.07a6.38,6.38,0,0,0,6.38-6.38A6.46,6.46,0,0,0,14,76.31Zm0,9.75a3.35,3.35,0,0,1-3.31-3.37A3.29,3.29,0,0,1,14,79.38a3.34,3.34,0,0,1,0,6.68Z"/><path d="M63.86,76.49a6.32,6.32,0,1,0,6.32,6.38A6.32,6.32,0,0,0,63.86,76.49Zm0,9.57a3.22,3.22,0,1,1,0-6.44,3.17,3.17,0,0,1,3.19,3.19A3.22,3.22,0,0,1,63.86,86.06Z"/><path d="M86.05,81.46v6.28a1.52,1.52,0,0,0,1.53,1.51,1.48,1.48,0,0,0,1.49-1.51V81.45a5,5,0,0,0-8.41-3.4,5.06,5.06,0,0,0-3.47-1.37,5.21,5.21,0,0,0-2.32.55,1.42,1.42,0,0,0-1.16-.61,1.55,1.55,0,0,0-1.51,1.54l0,9.62a1.52,1.52,0,0,0,1.51,1.49,1.48,1.48,0,0,0,1.51-1.48l0-6.35a2,2,0,0,1,3.93,0l0,6.27a1.5,1.5,0,1,0,3,0V81.45a1.87,1.87,0,0,1,2-1.73A1.83,1.83,0,0,1,86.05,81.46Z"/><path d="M74.45,90.46a2.63,2.63,0,0,0-2.7,2.76A2.67,2.67,0,0,0,74.45,96a3,3,0,0,0,2.11-.84.56.56,0,0,0-.06-.78.63.63,0,0,0-.72.06,1.73,1.73,0,0,1-1.26.54,1.57,1.57,0,0,1-1.63-1.33h3.67a.54.54,0,0,0,.54-.54A2.55,2.55,0,0,0,74.45,90.46ZM72.89,92.8a1.47,1.47,0,0,1,1.56-1.32A1.45,1.45,0,0,1,76,92.8Z"/><path d="M80.81,91.58a1.9,1.9,0,0,1,1,.26.61.61,0,0,0,.81-.12.59.59,0,0,0-.14-.79,2.77,2.77,0,0,0-1.62-.49,2.77,2.77,0,1,0,0,5.54,2.77,2.77,0,0,0,1.62-.49.57.57,0,0,0,.14-.78.6.6,0,0,0-.81-.13,1.9,1.9,0,0,1-1,.26,1.61,1.61,0,0,1-1.68-1.62A1.63,1.63,0,0,1,80.81,91.58Z"/><path d="M86.25,90.46a2.67,2.67,0,0,0-2.7,2.76A2.7,2.7,0,0,0,86.25,96a2.73,2.73,0,0,0,2.83-2.77A2.7,2.7,0,0,0,86.25,90.46Zm0,4.39a1.57,1.57,0,0,1-1.56-1.63,1.53,1.53,0,0,1,1.56-1.62,1.55,1.55,0,0,1,1.63,1.62A1.58,1.58,0,0,1,86.25,94.85Z"/><path d="M53,59.66c3-1,9.11-3.77,10.91-10.93a1.54,1.54,0,0,0-3-.7c-1.49,5.81-6.46,8-8.84,8.73a1.52,1.52,0,1,0,.92,2.9Z"/><path d="M48.83,39.48a1.57,1.57,0,0,0,1.57-1.56V11.85a1.57,1.57,0,1,0-3.14,0V37.92A1.56,1.56,0,0,0,48.83,39.48Z"/><path d="M32.49,39.48a1.56,1.56,0,0,0,1.57-1.56V11.85a1.57,1.57,0,0,0-3.14,0V37.92A1.56,1.56,0,0,0,32.49,39.48Z"/><path d="M43.4,39.48A1.57,1.57,0,0,0,45,37.92V7.48a1.57,1.57,0,0,0-3.14,0V37.92A1.56,1.56,0,0,0,43.4,39.48Z"/><path d="M37.94,39.48a1.56,1.56,0,0,0,1.57-1.56V1.62a1.57,1.57,0,1,0-3.13,0v36.3A1.56,1.56,0,0,0,37.94,39.48Z"/><path d="M48.86,68.31a23.34,23.34,0,0,0,3.71-46.39v3.2a20.21,20.21,0,1,1-24,19.7V22.15a1.57,1.57,0,1,0-3.13,0V45.31a23.44,23.44,0,0,0,23.39,23Z"/></svg>