<svg id="Layer_1" data-name="Layer 1" xmlns="http://www.w3.org/2000/svg" viewBox="0 0 1024 1024"><defs><style>.cls-1{fill:none;}</style></defs><title>V 1024x1024 BlackSVG</title><path class="cls-1" d="M520.55,847.33c-18.76,0-34.39,16.07-34.39,35.33,0,19.93,15.63,36,34.39,36s35-16.06,35-35.33C555.54,863.4,539.91,847.33,520.55,847.33Z"/><path class="cls-1" d="M679.29,849.25c-19.3,0-34.7,15.43-34.7,34.07a34.55,34.55,0,0,0,34.7,34.7c18.64,0,34-15.43,34-34.7A33.87,33.87,0,0,0,679.29,849.25Z"/><path class="cls-1" d="M146.57,846.67A35.26,35.26,0,0,0,111.21,882c0,19.92,15.44,35.33,35.36,36,19.27,0,35.33-16.06,35.33-36A35.66,35.66,0,0,0,146.57,846.67Z"/><path class="cls-1" d="M792.37,975.85c-9,0-15.41,5.15-16.69,14.15h32.76C807.15,981,800.75,975.85,792.37,975.85Z"/><path class="cls-1" d="M360.56,848.62a34.53,34.53,0,0,0-34.7,34.7c0,18.64,15.4,34,34.7,34a34.26,34.26,0,0,0,34.05-34C394.61,864,379.2,848.62,360.56,848.62Z"/><path class="cls-1" d="M918.32,977.14c-9,0-16.7,6.43-16.7,17.35,0,10.26,7.72,17.35,16.7,17.35,9.66,0,17.35-7.09,17.35-17.35C935.67,983.57,928,977.14,918.32,977.14Z"/><path d="M253.88,813.85c-9.41,0-17,7.22-17,16.38L236.72,934a16.66,16.66,0,1,0,33.32.06l.22-103.79A16.47,16.47,0,0,0,253.88,813.85Z"/><path d="M411.33,814.54a16.63,16.63,0,0,0-15.44,11.58,66.77,66.77,0,0,0-35.33-10.29,67.49,67.49,0,0,0-67.49,67.49c0,36.62,30.22,66.83,67.49,66.83a69.29,69.29,0,0,0,34.05-9v11.58A36.2,36.2,0,0,1,358,989.34a34,34,0,0,1-27-12.86c-6.43-7.06-16.72-7.69-23.15-1.29-7.06,5.81-7.69,16.07-1.92,23.16,12.87,15.41,32.13,23.78,52.06,23.78a69.12,69.12,0,0,0,69.4-69.4V831.27C427.39,822.26,420.3,814.54,411.33,814.54ZM360.56,917.37c-19.3,0-34.7-15.41-34.7-34a34.53,34.53,0,0,1,34.7-34.7c18.64,0,34.05,15.41,34.05,34.7A34.26,34.26,0,0,1,360.56,917.37Z"/><path d="M521.15,815.2a69.55,69.55,0,0,0-37.5,10.92l.66-63c0-9-7.53-16.07-15.62-16.07-9.39-.62-16.29,7.06-16.29,16.07l-.59,170.94A16.22,16.22,0,0,0,468,950.15a15.68,15.68,0,0,0,15-10.91c10.6,7.68,23.72,11.54,37.49,11.54,36.24,0,66.24-30.18,66.24-67.46C586.79,845.42,557.39,815.2,521.15,815.2Zm-.6,103.45c-18.76,0-34.39-16.06-34.39-36,0-19.26,15.63-35.33,34.39-35.33,19.36,0,35,16.07,35,36C555.54,902.59,539.28,918.65,520.55,918.65Z"/><path d="M146.57,813.92a69.41,69.41,0,0,0-37.9,11.54V762.52c0-9-7.09-16.72-16.07-16.72s-16.06,7.72-16.06,16.72l-.66,170.91c0,9,7.06,16.07,16.72,16.07,7.06,0,13.5-4.49,15.41-10.92a70,70,0,0,0,38.56,11.57A68.15,68.15,0,0,0,214.69,882C214.69,844.76,183.85,814.54,146.57,813.92Zm0,104.1c-19.92-.65-35.36-16.06-35.36-36a35.26,35.26,0,0,1,35.36-35.37A35.66,35.66,0,0,1,181.9,882C181.9,902,165.84,918,146.57,918Z"/><path d="M679.29,815.83a67.48,67.48,0,1,0,0,134.95c36.61,0,67.46-29.55,67.46-66.83S716.56,815.83,679.29,815.83Zm0,102.19a34.55,34.55,0,0,1-34.7-34.7c0-18.64,15.4-34.07,34.7-34.07a33.87,33.87,0,0,1,34,34.07C713.33,902.59,697.93,918,679.29,918Z"/><path d="M916.12,868.92l-.12,67a16.26,16.26,0,0,0,16.37,16.16A15.78,15.78,0,0,0,948.28,936l.1-51.24v-15.9c0-27.9-23.85-50.71-52.59-50.77-14.78,0-27.71,5.33-37.15,14.43a54.35,54.35,0,0,0-37.09-14.59,55.49,55.49,0,0,0-24.76,5.87,14.92,14.92,0,0,0-12.36-6.47c-8.6,0-16.13,7.5-16.16,16.38l-.19,102.73c0,8.6,7.5,15.88,16.1,15.91a15.94,15.94,0,0,0,16.16-15.85l.16-67.77c0-10.48,9.44-18.54,21-18.51s21,8.09,21,18.6l-.16,67a16,16,0,1,0,32,.07l.12-67c0-10.51,9.45-18.55,21.28-18.55C906.77,850.34,916.15,858.44,916.12,868.92Z"/><path d="M792.37,964.93c-16.06,0-28.9,11.55-28.9,29.56,0,17.35,12.84,29.56,28.9,29.56a32.11,32.11,0,0,0,22.5-9c1.94-2.57,1.94-6.43-.63-8.34s-5.8-.63-7.72.62c-4.52,3.86-7.72,5.81-13.49,5.81-9,0-16.07-5.81-17.35-14.15h39.19a5.76,5.76,0,0,0,5.77-5.78C820,975.85,808.44,964.93,792.37,964.93ZM775.68,990c1.28-9,7.72-14.15,16.69-14.15,8.38,0,14.78,5.15,16.07,14.15Z"/><path d="M860.18,977a20.66,20.66,0,0,1,10.16,2.79c2.67,1.57,6.9,1.45,8.63-1.35,1.79-3,1.19-6.52-1.47-8.34a29.72,29.72,0,0,0-17.32-5.24c-16.26,0-30.22,11.64-30.22,29.59s14,29.49,30.22,29.49a29.72,29.72,0,0,0,17.32-5.24c2.66-1.82,3.26-5.33,1.47-8.35-1.73-2.79-6-2.91-8.63-1.35a20.57,20.57,0,0,1-10.16,2.8c-9.48,0-17.86-6.78-17.86-17.35S850.7,977,860.18,977Z"/><path d="M918.32,964.93c-15.41,0-28.9,11.55-28.9,29.56,0,17.35,13.49,29.56,28.9,29.56,16.72,0,30.21-12.21,30.21-29.56C948.53,976.48,935,964.93,918.32,964.93Zm0,46.91c-9,0-16.7-7.09-16.7-17.35,0-10.92,7.72-17.35,16.7-17.35,9.66,0,17.35,6.43,17.35,17.35C935.67,1004.75,928,1011.84,918.32,1011.84Z"/><path d="M563.6,636.23C595.67,625.91,660.78,596,680,519.57a16.39,16.39,0,0,0-31.91-7.47c-15.85,62-68.9,85.35-94.35,93.16a16.25,16.25,0,1,0,9.85,31Z"/><path d="M518.86,420.86a16.74,16.74,0,0,0,16.72-16.73V125.92a16.74,16.74,0,0,0-33.48,0V404.13A16.75,16.75,0,0,0,518.86,420.86Z"/><path d="M344.43,420.86a16.75,16.75,0,0,0,16.76-16.73V125.92a16.74,16.74,0,0,0-33.48,0V404.13A16.74,16.74,0,0,0,344.43,420.86Z"/><path d="M460.9,420.86a16.74,16.74,0,0,0,16.73-16.73V79.32a16.73,16.73,0,1,0-33.45,0V404.13A16.72,16.72,0,0,0,460.9,420.86Z"/><path d="M402.67,420.86a16.71,16.71,0,0,0,16.72-16.73V16.72a16.72,16.72,0,1,0-33.44,0V404.13A16.71,16.71,0,0,0,402.67,420.86Z"/><path d="M519.14,728.6c137.34,0,249.07-111.73,249.07-249.1A248.48,248.48,0,0,0,558.77,233.38v34.2a214.53,214.53,0,0,1,176,211.92c0,118.89-96.73,215.62-215.62,215.62S303,596.76,303,477.87v-242a16.74,16.74,0,0,0-33.48,0V483.11c.95,65.64,27.93,127.3,74.81,173.58A247.37,247.37,0,0,0,519.14,728.6Z"/></svg>