<svg xmlns="http://www.w3.org/2000/svg" viewBox="0 0 1024 1024"><defs><style>.cls-1{fill:#fff;}</style></defs><title>V 1024x1024 Black_1SVG</title><g id="V"><path class="cls-1" d="M424,506.69a14.34,14.34,0,0,0-14.64,14.17v89.67a14.41,14.41,0,0,0,28.81,0V520.86A14.22,14.22,0,0,0,424,506.69Z"/><path class="cls-1" d="M559.93,507.15a14.57,14.57,0,0,0-13.48,9.76,56.52,56.52,0,0,0-30.19-8.59,58.08,58.08,0,1,0,29.5,108v10.22a31.23,31.23,0,0,1-31.36,31.36,30.73,30.73,0,0,1-23.7-10.68,13.87,13.87,0,0,0-20-1.4c-6,4.88-6.5,13.94-1.62,20a59.78,59.78,0,0,0,105-39.26V521.32A14.23,14.23,0,0,0,559.93,507.15Zm-43.67,89a29.74,29.74,0,1,1,29.5-29.74A29.79,29.79,0,0,1,516.26,596.13Z"/><path class="cls-1" d="M656.33,507.15a60.92,60.92,0,0,0-32.75,9.76V462.55a14.06,14.06,0,1,0-28.12,0V610.3a14,14,0,0,0,14.17,13.94,14.31,14.31,0,0,0,13.48-9.76,57.94,57.94,0,0,0,33.22,10.22,58.78,58.78,0,0,0,0-117.55Zm0,89.44A30.67,30.67,0,1,1,687,565.93,30.64,30.64,0,0,1,656.33,596.59Z"/><path class="cls-1" d="M331.4,507.15a60.94,60.94,0,0,0-32.75,9.76V462.55a14.06,14.06,0,1,0-28.12,0V610.3a14,14,0,0,0,14.17,13.94,14.31,14.31,0,0,0,13.48-9.76A57.94,57.94,0,0,0,331.4,624.7a58.78,58.78,0,0,0,0-117.55Zm0,89.44a30.67,30.67,0,1,1,30.67-30.66A30.63,30.63,0,0,1,331.4,596.59Z"/><path class="cls-1" d="M791.43,507.85A58.31,58.31,0,1,0,850,566.39C849.73,534.1,823.48,507.85,791.43,507.85Zm0,88a29.74,29.74,0,1,1,29.73-29.74A29.64,29.64,0,0,1,791.43,595.9Z"/><path class="cls-1" d="M978.47,509.24c-12.78,0-23.93,4.65-32.07,12.55a47,47,0,0,0-32-12.55A47.59,47.59,0,0,0,893,514.35a12.94,12.94,0,0,0-10.68-5.57A14.34,14.34,0,0,0,868.35,523v88.74a14.1,14.1,0,0,0,13.94,13.71,13.79,13.79,0,0,0,13.94-13.71V553.15c0-9.06,8.13-16,18.12-16s18.12,7,18.12,16V611a13.83,13.83,0,1,0,27.65,0V553.15c0-9.06,8.12-16,18.35-16,9.52,0,17.65,7,17.65,16V611a14,14,0,0,0,14.17,13.93A13.64,13.64,0,0,0,1024,611V553.15C1024,529,1003.32,509.24,978.47,509.24Z"/><path class="cls-1" d="M913.76,659.91c-.42-15-10.89-24.4-24.51-24.4-13.93,0-25.14,9.84-25.14,25.34s11.21,25.66,25.14,25.66a26.59,26.59,0,0,0,19.27-7.75,4.69,4.69,0,0,0-.21-6.8c-2.2-1.79-5.13-1.05-6.91.41-3.56,2.94-6.49,4.72-11.63,4.72-7.85,0-13.93-4.72-15-12.26h34A4.91,4.91,0,0,0,913.76,659.91Zm-39-2.93c1-7.54,6.91-12.05,14.45-12.05,7.33,0,12.88,4.4,13.93,12.05Z"/><path class="cls-1" d="M947.8,646a17.81,17.81,0,0,1,8.8,2.41c2.3,1.36,6,1.25,7.44-1.16a5.23,5.23,0,0,0-1.26-7.22,25.85,25.85,0,0,0-15-4.51c-14,0-26.08,10.06-26.08,25.56s12,25.45,26.08,25.45a25.84,25.84,0,0,0,15-4.5,5.24,5.24,0,0,0,1.26-7.23c-1.47-2.41-5.14-2.51-7.44-1.15a17.81,17.81,0,0,1-8.8,2.41c-8.17,0-15.4-5.87-15.4-15S939.63,646,947.8,646Z"/><path class="cls-1" d="M998.29,635.51c-13.83,0-25.46,9.84-25.46,25.34s11.63,25.66,25.46,25.66S1024,676.35,1024,660.85,1012.22,635.51,998.29,635.51Zm0,40.53c-8.07,0-14.77-6-14.77-15.19A14.39,14.39,0,0,1,998.29,646c8.17,0,15,5.87,15,14.87C1013.26,670.07,1006.46,676,998.29,676Z"/><path class="cls-1" d="M141.4,641.82c15.41-5,46.7-19.34,55.94-56.07a7.86,7.86,0,0,0-6.56-9.58,7.94,7.94,0,0,0-8.78,6c-7.62,29.78-33.12,41-45.35,44.77a7.81,7.81,0,1,0,4.75,14.89Z"/><path class="cls-1" d="M127.92,530.27V396.56a8,8,0,1,0-16.08,0V530.27a8,8,0,0,0,16.08,0Z"/><path class="cls-1" d="M44.1,530.27V396.56a8,8,0,1,0-16.08,0V530.27a8,8,0,0,0,16.08,0Z"/><path class="cls-1" d="M100.07,530.27V374.16a8,8,0,1,0-16.08,0V530.27a8,8,0,0,0,16.08,0Z"/><path class="cls-1" d="M72.09,530.27V344.08a8,8,0,1,0-16.09,0V530.27a8,8,0,0,0,16.09,0Z"/><path class="cls-1" d="M139.06,448.2l0,16.44A103.63,103.63,0,0,1,120,670.13c-57.15,0-103.9-47.29-103.9-104.43V449.4A8,8,0,0,0,0,449.4V568.22a119.86,119.86,0,1,0,139-120Z"/></g></svg>