<svg id="Layer_1" data-name="Layer 1" xmlns="http://www.w3.org/2000/svg" viewBox="0 0 128 128"><defs><style>.cls-1{fill:#fff;}</style></defs><title>V 128x128 whiteSVG</title><path class="cls-1" d="M99,122a2,2,0,0,0-2.09,1.74H101A1.91,1.91,0,0,0,99,122Z"/><path class="cls-1" d="M29.64,103.83l0,13a2.08,2.08,0,1,0,4.16,0l0-13a2.06,2.06,0,0,0-2.05-2A2.08,2.08,0,0,0,29.64,103.83Z"/><path class="cls-1" d="M51.4,101.88a2.11,2.11,0,0,0-1.95,1.41A8.1,8.1,0,0,0,45.09,102a8.4,8.4,0,1,0,4.23,15.62v1.48a4.51,4.51,0,0,1-4.54,4.52,4.43,4.43,0,0,1-3.42-1.55,2,2,0,0,0-2.89-.21,2.07,2.07,0,0,0-.24,2.89,8.57,8.57,0,0,0,6.54,3,8.66,8.66,0,0,0,8.65-8.65l0-15.2A2.07,2.07,0,0,0,51.4,101.88Zm-6.33,12.85a4.3,4.3,0,1,1,4.27-4.29A4.3,4.3,0,0,1,45.07,114.73Z"/><path class="cls-1" d="M65.33,101.91a8.84,8.84,0,0,0-4.73,1.4V95.46a2,2,0,1,0-4.06,0l0,21.35a2,2,0,0,0,2,2,2.06,2.06,0,0,0,2-1.41,8.31,8.31,0,0,0,4.8,1.49,8.5,8.5,0,0,0,0-17Zm0,12.93a4.44,4.44,0,1,1,4.44-4.43A4.43,4.43,0,0,1,65.31,114.84Z"/><path class="cls-1" d="M18.37,101.82a8.84,8.84,0,0,0-4.73,1.4V95.36a2,2,0,1,0-4.06,0l0,21.35a2,2,0,0,0,2,2,2.06,2.06,0,0,0,1.95-1.41,8.5,8.5,0,1,0,4.83-15.5Zm0,12.93a4.44,4.44,0,1,1,4.44-4.43A4.43,4.43,0,0,1,18.35,114.75Z"/><path class="cls-1" d="M84.86,102.05a8.43,8.43,0,1,0,8.44,8.48A8.44,8.44,0,0,0,84.86,102.05Zm0,12.72a4.3,4.3,0,1,1,4.31-4.29A4.28,4.28,0,0,1,84.83,114.77Z"/><path class="cls-1" d="M118.45,108.59a6.66,6.66,0,0,0-11.2-4.48,6.79,6.79,0,0,0-4.63-1.82,6.89,6.89,0,0,0-3.09.73,1.86,1.86,0,0,0-1.54-.81,2.08,2.08,0,0,0-2,2.05l0,12.82a2,2,0,0,0,2,2,2,2,0,0,0,2-2v-8.46a2.64,2.64,0,0,1,5.24,0l0,8.36a2,2,0,1,0,4,0l0-8.36a2.62,2.62,0,0,1,5.2,0l0,8.36a2,2,0,0,0,2,2,2,2,0,0,0,2-2v-8.43Z"/><path class="cls-1" d="M102.52,124.15A3.43,3.43,0,0,0,99,120.62,3.69,3.69,0,0,0,99,128a3.85,3.85,0,0,0,2.78-1.12.68.68,0,0,0,0-1,.78.78,0,0,0-1,.06,2.37,2.37,0,0,1-1.68.68,2.05,2.05,0,0,1-2.17-1.77h4.92A.71.71,0,0,0,102.52,124.15Zm-5.63-.42A2,2,0,0,1,99,122a1.91,1.91,0,0,1,2,1.74Z"/><path class="cls-1" d="M107.44,122.14a2.57,2.57,0,0,1,1.27.35.82.82,0,0,0,1.08-.17.75.75,0,0,0-.18-1,3.71,3.71,0,0,0-2.17-.65,3.69,3.69,0,1,0,0,7.37,3.78,3.78,0,0,0,2.17-.65.76.76,0,0,0,.18-1,.81.81,0,0,0-1.08-.16,2.56,2.56,0,0,1-1.27.34,2.17,2.17,0,1,1,0-4.34Z"/><path class="cls-1" d="M114.74,120.62a3.69,3.69,0,0,0,0,7.38,3.69,3.69,0,1,0,0-7.38Zm0,5.86a2.17,2.17,0,1,1,2.16-2.19A2.1,2.1,0,0,1,114.74,126.48Z"/><path class="cls-1" d="M67.8,78a2,2,0,0,0,2.62,1.6c4-1.29,12.13-5,14.53-14.56a2,2,0,0,0-1.7-2.49A2.06,2.06,0,0,0,81,64.11c-2,7.74-8.6,10.66-11.78,11.63A2,2,0,0,0,67.8,78Z"/><path class="cls-1" d="M62.75,15.91V50.64a2.09,2.09,0,1,0,4.18,0V15.91a2.09,2.09,0,0,0-4.18,0Z"/><path class="cls-1" d="M41,15.91V50.64a2.09,2.09,0,1,0,4.18,0V15.91a2.09,2.09,0,1,0-4.18,0Z"/><path class="cls-1" d="M55.52,10.09V50.64a2.09,2.09,0,1,0,4.17,0V10.09a2.09,2.09,0,1,0-4.17,0Z"/><path class="cls-1" d="M48.25,2.28V50.64a2.09,2.09,0,1,0,4.17,0V2.28a2.09,2.09,0,1,0-4.17,0Z"/><path class="cls-1" d="M64.87,91.14a31.11,31.11,0,0,0,4.95-61.82v4.27A26.92,26.92,0,1,1,37.89,59.84V29.63a2.09,2.09,0,0,0-4.18,0V60.49A31.27,31.27,0,0,0,64.87,91.14Z"/></svg>