<svg id="Layer_1" data-name="Layer 1" xmlns="http://www.w3.org/2000/svg" xmlns:xlink="http://www.w3.org/1999/xlink" viewBox="0 0 128 128"><defs><style>.cls-1{fill:none;}.cls-2{font-size:3px;fill:#231f20;font-family:MyriadPro-Regular, Myriad Pro;}.cls-3{clip-path:url(#clip-path);}.cls-4{fill:#4cae4a;}.cls-5{clip-path:url(#clip-path-3);}</style><clipPath id="clip-path"><rect class="cls-1" x="9.55" width="108.91" height="128"/></clipPath><clipPath id="clip-path-3"><rect class="cls-1" x="29.35" width="70.9" height="92.88"/></clipPath></defs><title>V 128x128 greenSVG</title><text class="cls-2" transform="translate(2.11 -0.59)"><tspan xml:space="preserve"> 128x128</tspan></text><g id="logo_BB_ECO_Shape_Text" data-name="logo BB ECO Shape + Text"><g class="cls-3"><g class="cls-3"><path class="cls-4" d="M31.76,101.78a2.08,2.08,0,0,0-2.12,2l0,13a2.08,2.08,0,1,0,4.16,0l0-13a2.06,2.06,0,0,0-2.05-2"/><path class="cls-4" d="M51.4,101.89a2.1,2.1,0,0,0-1.95,1.4A8.18,8.18,0,0,0,45.09,102a8.4,8.4,0,1,0,4.23,15.62v1.48a4.5,4.5,0,0,1-4.54,4.52,4.43,4.43,0,0,1-3.42-1.55,2,2,0,0,0-2.89-.2,2.06,2.06,0,0,0-.24,2.88,8.57,8.57,0,0,0,6.54,3,8.66,8.66,0,0,0,8.65-8.64l0-15.21a2.06,2.06,0,0,0-2.05-2m-6.33,12.84a4.3,4.3,0,1,1,4.27-4.29,4.29,4.29,0,0,1-4.27,4.29"/><path class="cls-4" d="M65.33,101.91a8.84,8.84,0,0,0-4.73,1.4V95.46a2,2,0,1,0-4.06,0l0,21.35a2,2,0,0,0,2,2,2.07,2.07,0,0,0,2-1.4,8.37,8.37,0,0,0,4.8,1.48,8.5,8.5,0,0,0,0-17m0,12.93a4.43,4.43,0,1,1,4.44-4.42,4.43,4.43,0,0,1-4.44,4.42"/><path class="cls-4" d="M18.38,101.82a8.84,8.84,0,0,0-4.74,1.4V95.37a2,2,0,1,0-4.06,0l0,21.35a2,2,0,0,0,2,2,2.06,2.06,0,0,0,1.95-1.41,8.33,8.33,0,0,0,4.8,1.49,8.5,8.5,0,0,0,0-17m0,12.93a4.44,4.44,0,1,1,4.44-4.42,4.43,4.43,0,0,1-4.44,4.42"/><path class="cls-4" d="M84.86,102.05a8.43,8.43,0,1,0,8.44,8.48,8.45,8.45,0,0,0-8.44-8.48m0,12.73a4.3,4.3,0,1,1,4.31-4.29,4.28,4.28,0,0,1-4.31,4.29"/><path class="cls-4" d="M111.89,102.31a6.52,6.52,0,0,0-4.64,1.8,6.79,6.79,0,0,0-4.63-1.82,6.89,6.89,0,0,0-3.09.73,1.86,1.86,0,0,0-1.54-.81,2.08,2.08,0,0,0-2,2.05l0,12.82a2,2,0,0,0,2,2,2,2,0,0,0,2-2v-8.46a2.64,2.64,0,0,1,5.24,0l0,8.36a2,2,0,1,0,4,0l0-8.36a2.62,2.62,0,0,1,5.2,0l0,8.36a2,2,0,0,0,2,2,2,2,0,0,0,2-2l0-8.36a6.49,6.49,0,0,0-6.57-6.35"/><path class="cls-4" d="M101.81,124.86H96.89a2.06,2.06,0,0,0,2.17,1.78,2.37,2.37,0,0,0,1.68-.69.81.81,0,0,1,1-.06.7.7,0,0,1,0,1A3.89,3.89,0,0,1,99,128a3.55,3.55,0,0,1-3.63-3.71A3.51,3.51,0,0,1,99,120.63a3.42,3.42,0,0,1,3.54,3.52.71.71,0,0,1-.71.71m-.82-1.13A1.91,1.91,0,0,0,99,122a2,2,0,0,0-2.09,1.74Z"/><path class="cls-4" d="M107.44,120.63a3.71,3.71,0,0,1,2.17.65.75.75,0,0,1,.18,1,.81.81,0,0,1-1.08.17,2.57,2.57,0,0,0-1.27-.35,2.17,2.17,0,1,0,0,4.34,2.56,2.56,0,0,0,1.27-.34.81.81,0,0,1,1.08.16.76.76,0,0,1-.18,1,3.78,3.78,0,0,1-2.17.65,3.69,3.69,0,1,1,0-7.37"/><path class="cls-4" d="M111.06,124.29a3.7,3.7,0,0,1,7.39,0,3.7,3.7,0,1,1-7.39,0m5.84,0a2.15,2.15,0,1,0-2.16,2.19,2.09,2.09,0,0,0,2.16-2.19"/></g><g class="cls-5"><path class="cls-4" d="M70.43,79.61c4-1.29,12.12-5,14.52-14.56a2,2,0,0,0-1.7-2.49A2.06,2.06,0,0,0,81,64.11c-2,7.74-8.6,10.66-11.78,11.63a2,2,0,1,0,1.24,3.87"/><path class="cls-4" d="M64.84,52.73a2.1,2.1,0,0,0,2.09-2.09V15.91a2.09,2.09,0,0,0-4.18,0V50.64a2.09,2.09,0,0,0,2.09,2.09"/><path class="cls-4" d="M43.07,52.73a2.1,2.1,0,0,0,2.09-2.09V15.91a2.09,2.09,0,1,0-4.18,0V50.64a2.09,2.09,0,0,0,2.09,2.09"/><path class="cls-4" d="M57.6,52.73a2.09,2.09,0,0,0,2.09-2.09V10.09a2.09,2.09,0,1,0-4.17,0V50.64a2.09,2.09,0,0,0,2.08,2.09"/><path class="cls-4" d="M50.34,52.73a2.09,2.09,0,0,0,2.08-2.09V2.28a2.09,2.09,0,1,0-4.17,0V50.64a2.09,2.09,0,0,0,2.09,2.09"/><path class="cls-4" d="M64.87,91.14a31.11,31.11,0,0,0,4.95-61.82v4.27A26.92,26.92,0,1,1,37.89,59.84V29.63a2.09,2.09,0,0,0-4.18,0V60.5A31.28,31.28,0,0,0,64.87,91.14"/></g></g></g></svg>