<svg id="Layer_1" data-name="Layer 1" xmlns="http://www.w3.org/2000/svg" xmlns:xlink="http://www.w3.org/1999/xlink" viewBox="0 0 16 16"><defs><style>.cls-1{fill:none;}.cls-2{clip-path:url(#clip-path);}.cls-3{fill:#4cae4a;}.cls-4{clip-path:url(#clip-path-3);}</style><clipPath id="clip-path"><rect class="cls-1" x="1.15" y="-0.05" width="13.65" height="16.05"/></clipPath><clipPath id="clip-path-3"><rect class="cls-1" x="3.63" y="-0.05" width="8.89" height="11.65"/></clipPath></defs><title>V 16x16 greenSVG</title><g id="logo_BB_ECO_Shape_Text" data-name="logo BB ECO Shape + Text"><g class="cls-2"><g class="cls-2"><path class="cls-3" d="M3.93,12.71a.26.26,0,0,0-.26.26v1.62a.26.26,0,0,0,.26.26.26.26,0,0,0,.26-.26V13a.26.26,0,0,0-.26-.26"/><path class="cls-3" d="M6.4,12.72a.27.27,0,0,0-.25.18,1,1,0,0,0-.54-.16,1.06,1.06,0,1,0,0,2.11,1.12,1.12,0,0,0,.54-.15v.19a.57.57,0,0,1-.57.56.56.56,0,0,1-.43-.19.26.26,0,1,0-.39.33,1.07,1.07,0,0,0,.82.38,1.09,1.09,0,0,0,1.08-1.08V13a.26.26,0,0,0-.25-.26m-.8,1.61a.54.54,0,1,1,.54-.53.54.54,0,0,1-.54.53"/><path class="cls-3" d="M8.14,12.73a1.07,1.07,0,0,0-.59.17v-1a.26.26,0,0,0-.25-.26.26.26,0,0,0-.26.26v2.67a.26.26,0,0,0,.25.26.27.27,0,0,0,.25-.18,1,1,0,0,0,.6.19,1.08,1.08,0,0,0,1.07-1.07,1.06,1.06,0,0,0-1.07-1.06m0,1.62a.55.55,0,0,1-.55-.56.56.56,0,0,1,.55-.56.56.56,0,0,1,0,1.12"/><path class="cls-3" d="M2.26,12.71a1.11,1.11,0,0,0-.6.18v-1a.26.26,0,0,0-.51,0v2.68a.26.26,0,0,0,.5.08,1,1,0,0,0,.6.18,1.06,1.06,0,0,0,1.07-1.06,1.08,1.08,0,0,0-1.06-1.07m0,1.62a.55.55,0,0,1-.55-.55.56.56,0,1,1,1.11,0,.54.54,0,0,1-.56.55"/><path class="cls-3" d="M10.59,12.74a1.06,1.06,0,1,0,1.06,1.07,1.07,1.07,0,0,0-1.06-1.07m0,1.6a.54.54,0,1,1,.54-.54.54.54,0,0,1-.54.54"/><path class="cls-3" d="M14,12.77a.84.84,0,0,0-.58.23.88.88,0,0,0-.58-.23,1,1,0,0,0-.39.09.26.26,0,0,0-.19-.1A.27.27,0,0,0,12,13v1.61a.26.26,0,0,0,.25.25.26.26,0,0,0,.26-.25V13.57a.33.33,0,0,1,.66,0v1a.25.25,0,0,0,.26.25.25.25,0,0,0,.24-.25v-1a.31.31,0,0,1,.33-.29.31.31,0,0,1,.32.29v1a.25.25,0,1,0,.5,0v-1a.81.81,0,0,0-.82-.8"/><path class="cls-3" d="M12.72,15.6H12.1a.26.26,0,0,0,.27.23.31.31,0,0,0,.21-.09.1.1,0,0,1,.13,0,.09.09,0,0,1,0,.13.5.5,0,0,1-.35.14.45.45,0,0,1-.45-.47.44.44,0,0,1,.45-.46.43.43,0,0,1,.45.44.09.09,0,0,1-.09.09m-.11-.14a.24.24,0,0,0-.25-.22.25.25,0,0,0-.26.22Z"/><path class="cls-3" d="M13.42,15.07a.46.46,0,0,1,.27.08.09.09,0,0,1,0,.13.11.11,0,0,1-.14,0,.28.28,0,0,0-.16-.05.28.28,0,1,0,0,.55.28.28,0,0,0,.16-.05.12.12,0,0,1,.14,0,.09.09,0,0,1,0,.13.4.4,0,0,1-.27.09.47.47,0,1,1,0-.93"/><path class="cls-3" d="M13.88,15.53a.46.46,0,0,1,.92,0,.46.46,0,1,1-.92,0m.73,0a.27.27,0,1,0-.27.28.26.26,0,0,0,.27-.28"/></g><g class="cls-4"><path class="cls-3" d="M8.78,9.93A2.63,2.63,0,0,0,10.6,8.1a.25.25,0,0,0-.21-.31.27.27,0,0,0-.29.2A2.06,2.06,0,0,1,8.63,9.44a.26.26,0,0,0-.18.29.26.26,0,0,0,.33.2"/><path class="cls-3" d="M8.08,6.56a.26.26,0,0,0,.26-.26V1.94a.26.26,0,0,0-.26-.26.26.26,0,0,0-.26.26V6.3a.26.26,0,0,0,.26.26"/><path class="cls-3" d="M5.35,6.56a.26.26,0,0,0,.26-.26V1.94a.26.26,0,0,0-.26-.26.26.26,0,0,0-.26.26V6.3a.26.26,0,0,0,.26.26"/><path class="cls-3" d="M7.17,6.56a.27.27,0,0,0,.27-.26V1.21a.27.27,0,0,0-.53,0V6.3a.26.26,0,0,0,.26.26"/><path class="cls-3" d="M6.26,6.56a.26.26,0,0,0,.26-.26V.23A.26.26,0,0,0,6.26,0,.26.26,0,0,0,6,.23V6.3a.26.26,0,0,0,.26.26"/><path class="cls-3" d="M8.09,11.37a3.9,3.9,0,0,0,.62-7.75v.54a3.35,3.35,0,0,1,2,1.15,3.41,3.41,0,0,1,.78,2.17,3.37,3.37,0,0,1-3.37,3.37A3.41,3.41,0,0,1,4.7,7.45V3.66a.26.26,0,0,0-.26-.26.26.26,0,0,0-.26.26V7.53a3.89,3.89,0,0,0,1.17,2.72,3.85,3.85,0,0,0,2.74,1.12"/></g></g></g></svg>