<svg id="Layer_1" data-name="Layer 1" xmlns="http://www.w3.org/2000/svg" viewBox="0 0 24 24"><defs><style>.cls-1{fill:#fff;}</style></defs><title>V 24x24 whiteSVG</title><path class="cls-1" d="M6,19.08a.39.39,0,0,0-.4.39V21.9a.4.4,0,0,0,.4.39.39.39,0,0,0,.38-.39V19.47A.39.39,0,0,0,6,19.08Z"/><path class="cls-1" d="M9.64,19.11a.4.4,0,0,0-.37.26,1.53,1.53,0,0,0-.82-.23,1.57,1.57,0,1,0,.8,2.92v.28a.86.86,0,0,1-1.5.56.36.36,0,0,0-.54,0,.39.39,0,0,0,0,.54A1.62,1.62,0,0,0,10,22.34V19.49A.38.38,0,0,0,9.64,19.11Zm-1.19,2.4a.8.8,0,0,1-.81-.8.81.81,0,0,1,.81-.81.8.8,0,0,1,.8.81A.8.8,0,0,1,8.45,21.51Z"/><path class="cls-1" d="M12.25,19.11a1.69,1.69,0,0,0-.89.26V17.9a.38.38,0,0,0-.37-.38.38.38,0,0,0-.39.38v4a.39.39,0,0,0,.75.12,1.63,1.63,0,0,0,.9.28,1.6,1.6,0,1,0,0-3.19Zm0,2.42a.82.82,0,0,1-.82-.83.83.83,0,0,1,.83-.83.84.84,0,0,1,.83.84A.83.83,0,0,1,12.24,21.53Z"/><path class="cls-1" d="M3.44,19.09a1.58,1.58,0,0,0-.88.27V17.88a.39.39,0,0,0-.38-.38.38.38,0,0,0-.38.38v4a.38.38,0,0,0,.38.37A.39.39,0,0,0,2.54,22a1.53,1.53,0,0,0,.9.28,1.6,1.6,0,0,0,0-3.19Zm0,2.43a.84.84,0,0,1-.83-.84.82.82,0,0,1,.83-.82.83.83,0,1,1,0,1.66Z"/><path class="cls-1" d="M15.91,19.14a1.58,1.58,0,1,0,1.58,1.59A1.58,1.58,0,0,0,15.91,19.14Zm0,2.38a.81.81,0,1,1,.8-.8A.8.8,0,0,1,15.91,21.52Z"/><path class="cls-1" d="M21,19.18a1.24,1.24,0,0,0-.87.34,1.28,1.28,0,0,0-1.45-.2.35.35,0,0,0-.29-.16.4.4,0,0,0-.38.39V22a.4.4,0,0,0,.38.38.38.38,0,0,0,.38-.38V20.37a.49.49,0,0,1,1,0v1.57a.37.37,0,0,0,.37.38.38.38,0,0,0,.38-.38V20.37a.46.46,0,0,1,.5-.43.46.46,0,0,1,.48.43v1.57a.39.39,0,0,0,.39.38.37.37,0,0,0,.37-.38V20.37A1.22,1.22,0,0,0,21,19.18Z"/><path class="cls-1" d="M19.22,23.28a.64.64,0,0,0-.66-.66.69.69,0,0,0,0,1.38.72.72,0,0,0,.52-.21.12.12,0,0,0,0-.18.14.14,0,0,0-.18,0,.46.46,0,0,1-.32.13.38.38,0,0,1-.4-.34h.92A.13.13,0,0,0,19.22,23.28Zm-1-.08a.36.36,0,0,1,.39-.32.36.36,0,0,1,.38.32Z"/><path class="cls-1" d="M20.15,22.9a.45.45,0,0,1,.23.07.18.18,0,0,0,.21,0,.15.15,0,0,0,0-.2.68.68,0,0,0-.4-.12.69.69,0,1,0,0,1.38.68.68,0,0,0,.4-.12.16.16,0,0,0,0-.2.16.16,0,0,0-.21,0,.45.45,0,0,1-.23.07.41.41,0,1,1,0-.82Z"/><path class="cls-1" d="M21.51,22.62a.69.69,0,1,0,.7.69A.67.67,0,0,0,21.51,22.62Zm0,1.1a.41.41,0,0,1,0-.82.41.41,0,0,1,0,.82Z"/><path class="cls-1" d="M13.2,14.93a3.93,3.93,0,0,0,2.73-2.73.39.39,0,0,0-.75-.18A3.13,3.13,0,0,1,13,14.2a.39.39,0,0,0-.26.43A.38.38,0,0,0,13.2,14.93Z"/><path class="cls-1" d="M12.16,9.89a.4.4,0,0,0,.39-.4V3a.4.4,0,0,0-.39-.39.39.39,0,0,0-.39.39V9.49A.39.39,0,0,0,12.16,9.89Z"/><path class="cls-1" d="M8.08,9.89a.4.4,0,0,0,.39-.4V3a.4.4,0,0,0-.79,0V9.49A.4.4,0,0,0,8.08,9.89Z"/><path class="cls-1" d="M10.8,9.89a.39.39,0,0,0,.39-.4V1.89a.39.39,0,0,0-.78,0v7.6A.39.39,0,0,0,10.8,9.89Z"/><path class="cls-1" d="M9.44,9.89a.4.4,0,0,0,.39-.4V.43A.39.39,0,0,0,9.44,0a.38.38,0,0,0-.39.39V9.49A.39.39,0,0,0,9.44,9.89Z"/><path class="cls-1" d="M12.16,17.09A5.83,5.83,0,0,0,13.09,5.5v.8a5,5,0,0,1-.93,10A5.1,5.1,0,0,1,7.1,11.22V5.56a.39.39,0,0,0-.39-.4.4.4,0,0,0-.39.4v5.78a5.86,5.86,0,0,0,5.84,5.75Z"/></svg>