<svg id="Layer_1" data-name="Layer 1" xmlns="http://www.w3.org/2000/svg" xmlns:xlink="http://www.w3.org/1999/xlink" viewBox="0 0 24 24"><defs><style>.cls-1{fill:none;}.cls-2{clip-path:url(#clip-path);}.cls-3{fill:#4cae4a;}.cls-4{clip-path:url(#clip-path-3);}</style><clipPath id="clip-path"><rect class="cls-1" x="1.77" y="-0.03" width="20.46" height="24.05"/></clipPath><clipPath id="clip-path-3"><rect class="cls-1" x="5.49" y="-0.03" width="13.32" height="17.45"/></clipPath></defs><title>V 24x24 GreenSVG</title><g id="logo_BB_ECO_Shape_Text" data-name="logo BB ECO Shape + Text"><g class="cls-2"><g class="cls-2"><path class="cls-3" d="M5.94,19.1a.39.39,0,0,0-.4.38v2.44a.39.39,0,1,0,.78,0V19.48a.39.39,0,0,0-.39-.38"/><path class="cls-3" d="M9.63,19.12a.38.38,0,0,0-.36.26,1.56,1.56,0,0,0-.82-.23,1.58,1.58,0,1,0,0,3.15,1.55,1.55,0,0,0,.8-.22v.28a.85.85,0,0,1-.85.85.81.81,0,0,1-.64-.29.39.39,0,0,0-.59.5A1.62,1.62,0,0,0,10,22.36V19.5a.39.39,0,0,0-.39-.38M8.44,21.53a.81.81,0,1,1,.81-.8.82.82,0,0,1-.81.8"/><path class="cls-3" d="M12.25,19.12a1.61,1.61,0,0,0-.89.27V17.91a.38.38,0,0,0-.37-.38.38.38,0,0,0-.39.38v4a.39.39,0,0,0,.75.12,1.65,1.65,0,0,0,.9.28,1.6,1.6,0,0,0,0-3.2m0,2.43a.83.83,0,1,1,.83-.83.84.84,0,0,1-.83.83"/><path class="cls-3" d="M3.43,19.11a1.69,1.69,0,0,0-.89.26V17.89a.39.39,0,0,0-.38-.38.38.38,0,0,0-.38.38v4a.38.38,0,0,0,.38.38A.39.39,0,0,0,2.52,22a1.55,1.55,0,0,0,.9.28,1.6,1.6,0,0,0,0-3.19m0,2.43a.84.84,0,0,1,0-1.67.83.83,0,0,1,.83.83.85.85,0,0,1-.84.84"/><path class="cls-3" d="M15.92,19.15a1.59,1.59,0,1,0,1.59,1.59,1.59,1.59,0,0,0-1.59-1.59m0,2.39a.81.81,0,1,1,.81-.8.8.8,0,0,1-.81.8"/><path class="cls-3" d="M21,19.2a1.2,1.2,0,0,0-.87.34,1.28,1.28,0,0,0-.87-.35,1.24,1.24,0,0,0-.58.14.35.35,0,0,0-.29-.15.39.39,0,0,0-.38.38V22a.39.39,0,0,0,.38.38.37.37,0,0,0,.38-.37V20.39a.5.5,0,0,1,1,0V22a.38.38,0,1,0,.75,0V20.39a.49.49,0,0,1,1,0V22a.38.38,0,0,0,.39.38.37.37,0,0,0,.37-.38V20.39A1.22,1.22,0,0,0,21,19.2"/><path class="cls-3" d="M19.1,23.44h-.92a.39.39,0,0,0,.41.33.42.42,0,0,0,.31-.13.15.15,0,0,1,.19,0,.13.13,0,0,1,0,.18.75.75,0,0,1-.53.22.67.67,0,0,1-.68-.7.66.66,0,0,1,.68-.69.65.65,0,0,1,.67.66.14.14,0,0,1-.14.14M19,23.22a.36.36,0,0,0-.38-.32.37.37,0,0,0-.39.32Z"/><path class="cls-3" d="M20.16,22.64a.69.69,0,0,1,.41.12.14.14,0,0,1,0,.2.15.15,0,0,1-.2,0,.48.48,0,0,0-.24-.07.41.41,0,0,0-.42.41.41.41,0,0,0,.42.41.48.48,0,0,0,.24-.06.14.14,0,0,1,.2,0,.13.13,0,0,1,0,.19.71.71,0,0,1-1.12-.57.68.68,0,0,1,.71-.69"/><path class="cls-3" d="M20.84,23.33a.7.7,0,0,1,1.39,0,.7.7,0,1,1-1.39,0m1.1,0a.41.41,0,1,0-.41.41.39.39,0,0,0,.41-.41"/></g><g class="cls-4"><path class="cls-3" d="M13.21,14.93a4,4,0,0,0,2.73-2.73.39.39,0,0,0-.75-.18A3.19,3.19,0,0,1,13,14.21a.37.37,0,0,0-.27.42.39.39,0,0,0,.5.3"/><path class="cls-3" d="M12.16,9.88a.39.39,0,0,0,.39-.39V3a.4.4,0,0,0-.79,0V9.49a.39.39,0,0,0,.4.39"/><path class="cls-3" d="M8.07,9.88a.39.39,0,0,0,.39-.39V3a.4.4,0,0,0-.79,0V9.49a.39.39,0,0,0,.4.39"/><path class="cls-3" d="M10.8,9.88a.39.39,0,0,0,.39-.39V1.87a.39.39,0,0,0-.39-.39.38.38,0,0,0-.39.39V9.49a.38.38,0,0,0,.39.39"/><path class="cls-3" d="M9.43,9.88a.38.38,0,0,0,.39-.39V.4A.39.39,0,0,0,9.43,0,.4.4,0,0,0,9,.4V9.49a.39.39,0,0,0,.39.39"/><path class="cls-3" d="M12.16,17.1a5.85,5.85,0,0,0,.93-11.62v.81a5.05,5.05,0,0,1-.93,10,5.11,5.11,0,0,1-5.07-5.09V5.54a.39.39,0,0,0-.78,0v5.8a5.87,5.87,0,0,0,5.85,5.76"/></g></g></g></svg>