<svg id="Layer_1" data-name="Layer 1" xmlns="http://www.w3.org/2000/svg" xmlns:xlink="http://www.w3.org/1999/xlink" viewBox="0 0 256 256"><defs><style>.cls-1{fill:none;}.cls-2{clip-path:url(#clip-path);}.cls-3{fill:#4cae4a;}.cls-4{clip-path:url(#clip-path-3);}</style><clipPath id="clip-path"><rect class="cls-1" x="19.09" width="217.82" height="256"/></clipPath><clipPath id="clip-path-3"><rect class="cls-1" x="58.7" width="141.81" height="185.77"/></clipPath></defs><title>V 256x256 GreenSVG</title><g id="logo_BB_ECO_Shape_Text" data-name="logo BB ECO Shape + Text"><g class="cls-2"><g class="cls-2"><path class="cls-3" d="M63.52,203.56a4.14,4.14,0,0,0-4.23,4.09l0,25.92a4.16,4.16,0,1,0,8.32,0l0-25.92a4.11,4.11,0,0,0-4.09-4.11"/><path class="cls-3" d="M102.81,203.77a4.22,4.22,0,0,0-3.91,2.82,16.19,16.19,0,0,0-8.72-2.5,16.79,16.79,0,1,0,8.47,31.23v3a9,9,0,0,1-9.08,9.05,8.88,8.88,0,0,1-6.84-3.11,4,4,0,0,0-5.78-.41,4.11,4.11,0,0,0-.48,5.77,17.28,17.28,0,0,0,30.38-11.28l0-30.42a4.11,4.11,0,0,0-4.08-4.11m-12.68,25.7a8.6,8.6,0,1,1,8.55-8.58,8.62,8.62,0,0,1-8.55,8.58"/><path class="cls-3" d="M130.67,203.83a17.57,17.57,0,0,0-9.47,2.8l0-15.71a4.07,4.07,0,1,0-8.13,0L113,233.61a4,4,0,0,0,4.09,4,4.13,4.13,0,0,0,3.9-2.81,16.67,16.67,0,0,0,9.59,3,17,17,0,0,0,.07-34m0,25.85a8.87,8.87,0,1,1,8.88-8.85,8.86,8.86,0,0,1-8.88,8.85"/><path class="cls-3" d="M36.75,203.64a17.66,17.66,0,0,0-9.47,2.81l0-15.72a4.07,4.07,0,1,0-8.13,0l-.08,42.7a4.06,4.06,0,0,0,4.09,4,4.14,4.14,0,0,0,3.9-2.81,16.82,16.82,0,0,0,9.59,3,17,17,0,1,0,.07-34m0,25.86a8.87,8.87,0,1,1,8.88-8.85,8.86,8.86,0,0,1-8.88,8.85"/><path class="cls-3" d="M169.72,204.1a16.86,16.86,0,1,0,16.89,17,16.92,16.92,0,0,0-16.89-17m-.05,25.45a8.6,8.6,0,1,1,8.61-8.57,8.57,8.57,0,0,1-8.61,8.57"/><path class="cls-3" d="M223.78,204.61a13.07,13.07,0,0,0-9.27,3.61,13.53,13.53,0,0,0-9.26-3.64,13.72,13.72,0,0,0-6.18,1.46,3.77,3.77,0,0,0-3.09-1.62,4.16,4.16,0,0,0-4,4.09l-.05,25.65a4.08,4.08,0,0,0,4,4,4,4,0,0,0,4-3.95l0-16.92c0-2.62,2.35-4.63,5.24-4.63s5.23,2,5.23,4.65l0,16.72a4,4,0,1,0,8,0l0-16.72c0-2.62,2.36-4.63,5.31-4.62a4.89,4.89,0,0,1,5.1,4.64l0,16.72a4,4,0,0,0,4.08,4,3.94,3.94,0,0,0,4-4l0-16.72a13,13,0,0,0-13.14-12.72"/><path class="cls-3" d="M203.62,249.73h-9.84a4.11,4.11,0,0,0,4.33,3.54,4.74,4.74,0,0,0,3.36-1.36,1.59,1.59,0,0,1,2-.12,1.35,1.35,0,0,1,.06,2A7.71,7.71,0,0,1,198,256a7.11,7.11,0,0,1-7.27-7.42,7,7,0,0,1,7.27-7.33,6.87,6.87,0,0,1,7.09,7.06,1.43,1.43,0,0,1-1.43,1.42M202,247.46a3.84,3.84,0,0,0-4-3.48,4,4,0,0,0-4.18,3.48Z"/><path class="cls-3" d="M214.88,241.25a7.51,7.51,0,0,1,4.33,1.3,1.52,1.52,0,0,1,.37,2.09,1.63,1.63,0,0,1-2.15.34,5.13,5.13,0,0,0-2.55-.7,4.35,4.35,0,1,0,0,8.69,5.13,5.13,0,0,0,2.55-.7,1.63,1.63,0,0,1,2.15.34,1.5,1.5,0,0,1-.37,2.08,7.44,7.44,0,0,1-4.33,1.31,7.38,7.38,0,1,1,0-14.75"/><path class="cls-3" d="M222.12,248.58a7.39,7.39,0,0,1,14.77,0,7.39,7.39,0,1,1-14.77,0m11.69,0a4.3,4.3,0,1,0-4.33,4.39,4.2,4.2,0,0,0,4.33-4.39"/></g><g class="cls-4"><path class="cls-3" d="M140.85,159.22c8-2.57,24.26-10.05,29.06-29.12a4.09,4.09,0,0,0-8-1.87c-3.95,15.47-17.2,21.31-23.55,23.26a4.06,4.06,0,1,0,2.46,7.73"/><path class="cls-3" d="M129.67,105.45a4.18,4.18,0,0,0,4.18-4.17V31.82a4.18,4.18,0,1,0-8.35,0v69.46a4.17,4.17,0,0,0,4.17,4.17"/><path class="cls-3" d="M86.13,105.45a4.18,4.18,0,0,0,4.18-4.17V31.82a4.18,4.18,0,1,0-8.35,0v69.46a4.17,4.17,0,0,0,4.17,4.17"/><path class="cls-3" d="M115.21,105.45a4.18,4.18,0,0,0,4.18-4.17V20.18a4.18,4.18,0,0,0-8.36,0v81.1a4.18,4.18,0,0,0,4.18,4.17"/><path class="cls-3" d="M100.67,105.45a4.18,4.18,0,0,0,4.18-4.17V4.56a4.18,4.18,0,1,0-8.36,0v96.72a4.18,4.18,0,0,0,4.18,4.17"/><path class="cls-3" d="M129.74,182.28a62.22,62.22,0,0,0,9.9-123.64v8.54a53.83,53.83,0,0,1-9.9,106.75c-29.68,0-54-24.57-54-54.25V59.27a4.18,4.18,0,1,0-8.35,0V121a62.53,62.53,0,0,0,62.32,61.29"/></g></g></g></svg>