<svg id="Layer_1" data-name="Layer 1" xmlns="http://www.w3.org/2000/svg" viewBox="0 0 32 32"><defs><style>.cls-1{fill:none;}</style></defs><title>V 32x32 blackSVG</title><path class="cls-1" d="M16.47,26.49a1.12,1.12,0,1,0,1.09,1.13A1.11,1.11,0,0,0,16.47,26.49Z"/><path class="cls-1" d="M21.42,26.55a1.08,1.08,0,1,0,1.07,1.07A1.06,1.06,0,0,0,21.42,26.55Z"/><path class="cls-1" d="M4.79,26.47a1.12,1.12,0,1,0,1.1,1.11A1.11,1.11,0,0,0,4.79,26.47Z"/><path class="cls-1" d="M25,30.51a.5.5,0,0,0-.53.44h1A.48.48,0,0,0,25,30.51Z"/><path class="cls-1" d="M11.47,26.54a1.07,1.07,0,1,0,1.06,1.08A1.08,1.08,0,0,0,11.47,26.54Z"/><path class="cls-1" d="M28.89,30.55a.51.51,0,0,0-.52.54.53.53,0,1,0,1.06,0A.51.51,0,0,0,28.89,30.55Z"/><path d="M8.14,25.45a.51.51,0,0,0-.53.51V29.2a.52.52,0,0,0,.53.52.51.51,0,0,0,.51-.52V26A.51.51,0,0,0,8.14,25.45Z"/><path d="M13.06,25.47a.52.52,0,0,0-.49.36,2.08,2.08,0,0,0-1.1-.32,2.1,2.1,0,1,0,0,4.2,2.06,2.06,0,0,0,1.06-.29v.37a1.13,1.13,0,0,1-1.14,1.14,1.06,1.06,0,0,1-.84-.4.5.5,0,0,0-.73,0,.51.51,0,0,0-.06.72,2.14,2.14,0,0,0,1.63.74,2.16,2.16,0,0,0,2.17-2.16V26A.51.51,0,0,0,13.06,25.47Zm-1.59,3.21a1.07,1.07,0,1,1,1.06-1.06A1.07,1.07,0,0,1,11.47,28.68Z"/><path d="M16.49,25.49a2.22,2.22,0,0,0-1.18.34l0-2a.51.51,0,0,0-.49-.51.48.48,0,0,0-.51.51l0,5.33a.5.5,0,0,0,1,.17,2,2,0,0,0,1.17.36,2.12,2.12,0,0,0,0-4.24Zm0,3.23a1.12,1.12,0,1,1,1.09-1.1A1.1,1.1,0,0,1,16.47,28.72Z"/><path d="M4.79,25.45a2.22,2.22,0,0,0-1.19.36v-2a.52.52,0,0,0-.5-.53.52.52,0,0,0-.5.53l0,5.33a.51.51,0,0,0,.52.51.5.5,0,0,0,.48-.35,2.22,2.22,0,0,0,1.21.37,2.13,2.13,0,0,0,0-4.26Zm0,3.25a1.12,1.12,0,1,1,1.1-1.12A1.12,1.12,0,0,1,4.79,28.7Z"/><path d="M21.42,25.51a2.11,2.11,0,1,0,2.11,2.13A2.1,2.1,0,0,0,21.42,25.51Zm0,3.19a1.08,1.08,0,1,1,0-2.15,1.08,1.08,0,0,1,0,2.15Z"/><path d="M28.82,27.17v2.09a.51.51,0,0,0,.51.51.5.5,0,0,0,.49-.51V27.17a1.63,1.63,0,0,0-1.64-1.59A1.68,1.68,0,0,0,27,26a1.69,1.69,0,0,0-1.15-.45,1.72,1.72,0,0,0-.78.18.44.44,0,0,0-.38-.2.52.52,0,0,0-.51.51v3.21a.5.5,0,0,0,.5.49.49.49,0,0,0,.5-.49V27.16a.61.61,0,0,1,.65-.58.63.63,0,0,1,.66.59v2.09a.5.5,0,1,0,1,0V27.17a.61.61,0,0,1,.66-.58A.61.61,0,0,1,28.82,27.17Z"/><path d="M25,30.17a.88.88,0,0,0-.91.92A.89.89,0,0,0,25,32a1,1,0,0,0,.7-.28.19.19,0,0,0,0-.26.21.21,0,0,0-.24,0,.58.58,0,0,1-.42.18.53.53,0,0,1-.55-.44h1.23a.18.18,0,0,0,.18-.18A.85.85,0,0,0,25,30.17Zm-.53.78a.5.5,0,0,1,.53-.44.48.48,0,0,1,.5.44Z"/><path d="M27.07,30.54a.66.66,0,0,1,.32.09.2.2,0,0,0,.27,0,.18.18,0,0,0-.05-.26.89.89,0,0,0-.54-.17.93.93,0,1,0,0,1.85,1,1,0,0,0,.54-.16.19.19,0,0,0,.05-.27.21.21,0,0,0-.27,0,.57.57,0,0,1-.32.09.53.53,0,0,1-.55-.54A.54.54,0,0,1,27.07,30.54Z"/><path d="M28.89,30.17a.89.89,0,0,0-.9.92.9.9,0,0,0,.9.92.91.91,0,0,0,.94-.92A.9.9,0,0,0,28.89,30.17Zm0,1.46a.52.52,0,0,1-.52-.54.53.53,0,1,1,1.06,0A.53.53,0,0,1,28.89,31.63Z"/><path d="M17.81,19.9a5.25,5.25,0,0,0,3.64-3.64.51.51,0,0,0-.43-.62.51.51,0,0,0-.57.39,4.21,4.21,0,0,1-2.95,2.91.5.5,0,0,0-.35.56A.51.51,0,0,0,17.81,19.9Z"/><path d="M16.41,13.18a.53.53,0,0,0,.53-.53V4a.53.53,0,0,0-.53-.53.52.52,0,0,0-.52.53v8.68A.52.52,0,0,0,16.41,13.18Z"/><path d="M11,13.18a.52.52,0,0,0,.52-.53V4A.52.52,0,0,0,11,3.44a.53.53,0,0,0-.53.53v8.68A.53.53,0,0,0,11,13.18Z"/><path d="M14.6,13.18a.53.53,0,0,0,.53-.53V2.51A.52.52,0,0,0,14.6,2a.52.52,0,0,0-.52.52V12.65A.52.52,0,0,0,14.6,13.18Z"/><path d="M12.79,13.18a.53.53,0,0,0,.52-.53V.56a.53.53,0,1,0-1.05,0V12.65A.53.53,0,0,0,12.79,13.18Z"/><path d="M16.42,22.79A7.79,7.79,0,0,0,17.66,7.32V8.39a6.73,6.73,0,1,1-8,6.57V7.4a.52.52,0,1,0-1,0v7.72a7.82,7.82,0,0,0,7.79,7.67Z"/></svg>