<svg id="Layer_1" data-name="Layer 1" xmlns="http://www.w3.org/2000/svg" xmlns:xlink="http://www.w3.org/1999/xlink" viewBox="0 0 48 48"><defs><style>.cls-1{fill:none;}.cls-2{font-size:3px;fill:#231f20;font-family:MyriadPro-Regular, Myriad Pro;}.cls-3{clip-path:url(#clip-path);}.cls-4{fill:#4cae4a;}.cls-5{clip-path:url(#clip-path-3);}</style><clipPath id="clip-path"><rect class="cls-1" x="3.59" y="0.01" width="40.83" height="47.98"/></clipPath><clipPath id="clip-path-3"><rect class="cls-1" x="11.01" y="0.01" width="26.58" height="34.82"/></clipPath></defs><title>V 48x48 GreenSVG</title><text class="cls-2" transform="translate(1.33 0.83)">48x48</text><g id="logo_BB_ECO_Shape_Text" data-name="logo BB ECO Shape + Text"><g class="cls-3"><g class="cls-3"><path class="cls-4" d="M11.91,38.16a.77.77,0,0,0-.79.77v4.86a.78.78,0,1,0,1.56,0V38.93a.77.77,0,0,0-.77-.77"/><path class="cls-4" d="M19.28,38.2a.79.79,0,0,0-.73.53,3.1,3.1,0,0,0-1.64-.47,3.15,3.15,0,1,0,0,6.29,3.12,3.12,0,0,0,1.6-.43v.55a1.7,1.7,0,0,1-1.7,1.7,1.67,1.67,0,0,1-1.29-.59.75.75,0,0,0-1.08-.07.77.77,0,0,0-.09,1.08A3.24,3.24,0,0,0,20,44.67V39a.77.77,0,0,0-.76-.77M16.9,43a1.61,1.61,0,1,1,0-3.22,1.59,1.59,0,0,1,1.59,1.61A1.61,1.61,0,0,1,16.9,43"/><path class="cls-4" d="M24.5,38.21a3.32,3.32,0,0,0-1.78.53v-3a.76.76,0,1,0-1.52,0l0,8a.77.77,0,0,0,1.5.23,3.08,3.08,0,0,0,1.8.56,3.19,3.19,0,0,0,0-6.37m0,4.85a1.66,1.66,0,1,1,1.67-1.66,1.66,1.66,0,0,1-1.67,1.66"/><path class="cls-4" d="M6.9,38.18a3.37,3.37,0,0,0-1.78.52V35.76a.77.77,0,1,0-1.53,0v8a.76.76,0,0,0,.76.76A.8.8,0,0,0,5.09,44a3.14,3.14,0,0,0,1.79.56,3.19,3.19,0,0,0,0-6.37m0,4.84a1.66,1.66,0,1,1,1.66-1.65A1.66,1.66,0,0,1,6.89,43"/><path class="cls-4" d="M31.82,38.26A3.16,3.16,0,1,0,35,41.44a3.18,3.18,0,0,0-3.17-3.18m0,4.77a1.61,1.61,0,1,1,1.61-1.6A1.61,1.61,0,0,1,31.81,43"/><path class="cls-4" d="M42,38.36a2.47,2.47,0,0,0-1.74.68,2.52,2.52,0,0,0-2.89-.41.72.72,0,0,0-.58-.31.78.78,0,0,0-.75.77V43.9a.76.76,0,0,0,.75.74.75.75,0,0,0,.76-.74V40.73a.93.93,0,0,1,1-.87.92.92,0,0,1,1,.87v3.14a.75.75,0,0,0,1.5,0V40.74a.94.94,0,0,1,1-.87.9.9,0,0,1,.95.87v3.13a.76.76,0,0,0,.76.76.74.74,0,0,0,.75-.75V40.74A2.44,2.44,0,0,0,42,38.36"/><path class="cls-4" d="M38.17,46.82H36.33a.77.77,0,0,0,.81.66.92.92,0,0,0,.63-.25.32.32,0,0,1,.38,0,.27.27,0,0,1,0,.37,1.46,1.46,0,0,1-1,.42,1.33,1.33,0,0,1-1.36-1.39,1.32,1.32,0,0,1,1.36-1.37,1.28,1.28,0,0,1,1.33,1.32.27.27,0,0,1-.27.27m-.3-.43a.73.73,0,0,0-.76-.65.74.74,0,0,0-.78.65Z"/><path class="cls-4" d="M40.29,45.23a1.4,1.4,0,0,1,.81.24.29.29,0,0,1,.07.39.32.32,0,0,1-.41.07.92.92,0,0,0-.47-.13.81.81,0,1,0,0,1.62.92.92,0,0,0,.47-.13.32.32,0,0,1,.41.07.29.29,0,0,1-.07.39,1.4,1.4,0,0,1-.81.24,1.38,1.38,0,1,1,0-2.76"/><path class="cls-4" d="M41.64,46.6a1.39,1.39,0,0,1,2.77,0,1.39,1.39,0,1,1-2.77,0m2.19,0a.78.78,0,0,0-.81-.8.77.77,0,0,0-.8.8.78.78,0,0,0,.8.82.79.79,0,0,0,.81-.82"/></g><g class="cls-5"><path class="cls-4" d="M26.41,29.85a7.88,7.88,0,0,0,5.45-5.46.77.77,0,0,0-1.5-.35A6.27,6.27,0,0,1,26,28.4a.76.76,0,0,0-.53.85.77.77,0,0,0,1,.6"/><path class="cls-4" d="M24.31,19.77A.78.78,0,0,0,25.1,19V6a.79.79,0,0,0-1.57,0V19a.78.78,0,0,0,.78.78"/><path class="cls-4" d="M16.15,19.77a.78.78,0,0,0,.79-.78V6a.79.79,0,0,0-1.57,0V19a.78.78,0,0,0,.78.78"/><path class="cls-4" d="M21.6,19.77a.79.79,0,0,0,.79-.78V3.79A.79.79,0,0,0,21.6,3a.78.78,0,0,0-.78.78V19a.78.78,0,0,0,.78.78"/><path class="cls-4" d="M18.88,19.77a.78.78,0,0,0,.78-.78V.86a.79.79,0,0,0-1.57,0V19a.78.78,0,0,0,.79.78"/><path class="cls-4" d="M24.33,34.17A11.66,11.66,0,0,0,26.18,11v1.6a10.09,10.09,0,1,1-12,9.84V11.12a.78.78,0,0,0-.78-.79.79.79,0,0,0-.79.79V22.69A11.71,11.71,0,0,0,24.33,34.17"/></g></g></g></svg>