<svg id="Layer_1" data-name="Layer 1" xmlns="http://www.w3.org/2000/svg" xmlns:xlink="http://www.w3.org/1999/xlink" viewBox="0 0 512 512"><defs><style>.cls-1{fill:none;}.cls-2{font-size:3px;fill:#231f20;font-family:MyriadPro-Regular, Myriad Pro;}.cls-3{clip-path:url(#clip-path);}.cls-4{fill:#4cae4a;}.cls-5{clip-path:url(#clip-path-3);}</style><clipPath id="clip-path"><rect class="cls-1" x="38.18" width="435.64" height="512"/></clipPath><clipPath id="clip-path-3"><rect class="cls-1" x="117.4" width="283.61" height="371.54"/></clipPath></defs><title>V 512x512  GreenSVG</title><text class="cls-2" transform="translate(2.18 0.33)">512X512</text><g id="logo_BB_ECO_Shape_Text" data-name="logo BB ECO Shape + Text"><g class="cls-3"><g class="cls-3"><path class="cls-4" d="M127.05,407.12a8.3,8.3,0,0,0-8.48,8.18l-.1,51.84a8.33,8.33,0,1,0,16.65,0l.1-51.84a8.23,8.23,0,0,0-8.17-8.21"/><path class="cls-4" d="M205.61,407.55a8.41,8.41,0,0,0-7.8,5.62,32.67,32.67,0,0,0-17.45-5,33.57,33.57,0,1,0,16.94,62.48v5.91a18.06,18.06,0,0,1-18.17,18.09,17.76,17.76,0,0,1-13.68-6.2,8,8,0,0,0-11.55-.83,8.25,8.25,0,0,0-1,11.55,34.57,34.57,0,0,0,60.75-22.58l.12-60.84a8.21,8.21,0,0,0-8.18-8.2m-25.34,51.38a17.19,17.19,0,1,1,17.09-17.15,17.22,17.22,0,0,1-17.09,17.15"/><path class="cls-4" d="M261.34,407.65a35.31,35.31,0,0,0-18.95,5.61l.07-31.43a8.13,8.13,0,1,0-16.26,0L226,467.21a8.12,8.12,0,0,0,8.17,8.08,8.31,8.31,0,0,0,7.81-5.63,33.55,33.55,0,0,0,19.19,5.95,34,34,0,0,0,.13-68m-.1,51.71A17.73,17.73,0,1,1,279,441.67a17.7,17.7,0,0,1-17.76,17.69"/><path class="cls-4" d="M73.5,407.29a35.25,35.25,0,0,0-18.94,5.6l.06-31.42a8.13,8.13,0,1,0-16.25,0l-.17,85.41a8.11,8.11,0,0,0,8.18,8.07,8.27,8.27,0,0,0,7.8-5.63,33.4,33.4,0,0,0,19.19,5.95,34,34,0,1,0,.13-67.95M73.4,459A17.73,17.73,0,1,1,91.16,441.3,17.71,17.71,0,0,1,73.4,459"/><path class="cls-4" d="M339.44,408.21a33.71,33.71,0,1,0,33.77,33.91,33.82,33.82,0,0,0-33.77-33.91m-.1,50.9A17.19,17.19,0,1,1,356.56,442a17.14,17.14,0,0,1-17.22,17.16"/><path class="cls-4" d="M447.56,409.22A26.21,26.21,0,0,0,429,416.44a27.16,27.16,0,0,0-18.51-7.29,27.52,27.52,0,0,0-12.37,2.93,7.48,7.48,0,0,0-6.17-3.23,8.29,8.29,0,0,0-8.07,8.18l-.1,51.3a8.13,8.13,0,0,0,8,7.93,8,8,0,0,0,8.08-7.9l.06-33.85c0-5.23,4.72-9.25,10.49-9.24s10.47,4.05,10.46,9.28L420.85,468a8,8,0,1,0,16,0l.06-33.45c0-5.23,4.72-9.25,10.63-9.24,5.5,0,10.2,4.05,10.19,9.28l-.07,33.45a8.12,8.12,0,0,0,8.18,8.07,7.89,7.89,0,0,0,7.94-8l.06-33.44c0-14-11.9-25.41-26.27-25.44"/><path class="cls-4" d="M407.24,499.46H387.57c.6,4.36,4.11,7.08,8.65,7.08,3,0,4.67-1,6.72-2.72a3.18,3.18,0,0,1,4-.24,2.71,2.71,0,0,1,.12,3.93A15.37,15.37,0,0,1,395.92,512c-8.05,0-14.53-5.87-14.53-14.83s6.48-14.65,14.53-14.65c7.87,0,13.93,5.45,14.17,14.1a2.84,2.84,0,0,1-2.85,2.85M404,494.92a7.67,7.67,0,0,0-8.05-7c-4.36,0-7.75,2.6-8.35,7Z"/><path class="cls-4" d="M429.77,482.51a14.89,14.89,0,0,1,8.66,2.6,3,3,0,0,1,.72,4.18c-.84,1.39-3,1.45-4.29.66a10.42,10.42,0,0,0-5.09-1.39,8.69,8.69,0,1,0,0,17.38,10.42,10.42,0,0,0,5.09-1.39c1.33-.79,3.45-.73,4.29.66a3,3,0,0,1-.72,4.18,15,15,0,0,1-8.66,2.6c-8.11,0-15.08-5.75-15.08-14.71s7-14.77,15.08-14.77"/><path class="cls-4" d="M444.24,497.16c0-9,6.72-14.65,14.71-14.65s14.84,5.69,14.84,14.65S467,512,459,512a14.38,14.38,0,0,1-14.71-14.83m23.37,0a8.6,8.6,0,1,0-8.66,8.78,8.38,8.38,0,0,0,8.66-8.78"/></g><g class="cls-5"><path class="cls-4" d="M281.7,318.44c16-5.15,48.52-20.09,58.12-58.25a8.18,8.18,0,0,0-15.93-3.73C316,287.39,289.47,299.07,276.77,303a8.12,8.12,0,1,0,4.93,15.47"/><path class="cls-4" d="M259.35,210.91a8.35,8.35,0,0,0,8.35-8.36V63.64a8.36,8.36,0,1,0-16.71,0V202.55a8.36,8.36,0,0,0,8.36,8.36"/><path class="cls-4" d="M172.27,210.91a8.35,8.35,0,0,0,8.35-8.36V63.64a8.36,8.36,0,1,0-16.71,0V202.55a8.36,8.36,0,0,0,8.36,8.36"/><path class="cls-4" d="M230.42,210.91a8.35,8.35,0,0,0,8.35-8.36V40.37a8.36,8.36,0,1,0-16.71,0V202.55a8.36,8.36,0,0,0,8.36,8.36"/><path class="cls-4" d="M201.34,210.91a8.36,8.36,0,0,0,8.36-8.36V9.12a8.36,8.36,0,1,0-16.71,0V202.55a8.35,8.35,0,0,0,8.35,8.36"/><path class="cls-4" d="M259.49,364.55a124.43,124.43,0,0,0,19.79-247.26v17.08a107.66,107.66,0,0,1-19.8,213.48c-59.37,0-107.94-49.12-107.94-108.49V118.54a8.36,8.36,0,1,0-16.71,0V242A125.06,125.06,0,0,0,259.49,364.55"/></g></g></g></svg>