<svg id="Layer_1" data-name="Layer 1" xmlns="http://www.w3.org/2000/svg" viewBox="0 0 512 512"><defs><style>.cls-1{fill:none;}</style></defs><title>V 512x512  blackSVG</title><path class="cls-1" d="M260.38,423.65c-9.38,0-17.19,8-17.19,17.67,0,10,7.81,18,17.19,18a17.83,17.83,0,0,0,0-35.66Z"/><path class="cls-1" d="M339.74,424.61a17.2,17.2,0,1,0,17,17A16.94,16.94,0,0,0,339.74,424.61Z"/><path class="cls-1" d="M73.41,423.33A17.62,17.62,0,0,0,55.74,441a17.67,17.67,0,1,0,17.67-17.67Z"/><path class="cls-1" d="M396.27,487.91c-4.49,0-7.7,2.57-8.35,7.07H404.3A7.74,7.74,0,0,0,396.27,487.91Z"/><path class="cls-1" d="M180.39,424.3a17.19,17.19,0,1,0,17,17.35A17.26,17.26,0,0,0,180.39,424.3Z"/><path class="cls-1" d="M459.23,488.55c-4.48,0-8.34,3.21-8.34,8.67a8.51,8.51,0,1,0,17,0C467.91,491.76,464.06,488.55,459.23,488.55Z"/><path d="M127.06,406.92a8.29,8.29,0,0,0-8.49,8.19L118.48,467a8.33,8.33,0,1,0,16.66,0l.11-51.89A8.23,8.23,0,0,0,127.06,406.92Z"/><path d="M205.77,407.26a8.31,8.31,0,0,0-7.71,5.79,33.57,33.57,0,1,0-17.67,62,34.64,34.64,0,0,0,17-4.5v5.79a18.1,18.1,0,0,1-18.3,18.3,17,17,0,0,1-13.49-6.43c-3.22-3.53-8.36-3.84-11.58-.64a8.18,8.18,0,0,0-1,11.57,33.83,33.83,0,0,0,26,11.89,34.56,34.56,0,0,0,34.7-34.69V415.62A8.25,8.25,0,0,0,205.77,407.26Zm-25.38,51.41a17.19,17.19,0,1,1,17-17A17.2,17.2,0,0,1,180.39,458.67Z"/><path d="M260.68,407.59a34.75,34.75,0,0,0-18.75,5.46l.33-31.48a8.05,8.05,0,0,0-7.81-8c-4.69-.32-8.14,3.53-8.14,8L226,467a8.12,8.12,0,0,0,8.11,8,7.83,7.83,0,0,0,7.51-5.46,31.79,31.79,0,0,0,18.75,5.77c18.12,0,33.11-15.09,33.11-33.72C293.49,422.7,278.79,407.59,260.68,407.59Zm-.3,51.72c-9.38,0-17.19-8-17.19-18,0-9.63,7.81-17.67,17.19-17.67a17.83,17.83,0,0,1,0,35.66Z"/><path d="M73.41,407a34.66,34.66,0,0,0-18.94,5.77V381.25a8,8,0,1,0-16.07,0l-.33,85.45a8.29,8.29,0,0,0,16.07,2.57,35,35,0,0,0,19.27,5.79A34.08,34.08,0,0,0,107.47,441C107.47,422.37,92.05,407.26,73.41,407Zm0,52.05a17.91,17.91,0,0,1-17.67-18,17.62,17.62,0,0,1,17.67-17.67,17.84,17.84,0,0,1,0,35.67Z"/><path d="M339.74,407.91a33.73,33.73,0,1,0,0,67.46c18.3,0,33.72-14.77,33.72-33.41S358.37,407.91,339.74,407.91Zm0,51.09a17.2,17.2,0,1,1,0-34.39,16.94,16.94,0,0,1,17,17A17.21,17.21,0,0,1,339.74,459Z"/><path d="M458.14,434.45l-.07,33.49a8.14,8.14,0,0,0,8.19,8.08,7.89,7.89,0,0,0,7.95-8l.05-25.62v-8c0-13.95-11.92-25.35-26.29-25.38a26.27,26.27,0,0,0-18.57,7.22,27.16,27.16,0,0,0-18.54-7.3,27.86,27.86,0,0,0-12.38,2.93,7.47,7.47,0,0,0-6.18-3.23,8.31,8.31,0,0,0-8.08,8.19l-.09,51.36a8.15,8.15,0,0,0,8,7.95,8,8,0,0,0,8.08-7.92l.08-33.88c0-5.24,4.72-9.27,10.5-9.26s10.47,4.05,10.47,9.3l-.07,33.48a8,8,0,1,0,16,0l.06-33.47c0-5.26,4.73-9.27,10.64-9.27C453.46,425.16,458.15,429.21,458.14,434.45Z"/><path d="M396.27,482.45c-8,0-14.45,5.77-14.45,14.77,0,8.68,6.42,14.78,14.45,14.78a16.09,16.09,0,0,0,11.25-4.5,3,3,0,0,0-.32-4.17c-1.28-1-2.9-.32-3.86.31-2.26,1.93-3.86,2.9-6.74,2.9a8.43,8.43,0,0,1-8.68-7.07h19.6a2.88,2.88,0,0,0,2.88-2.89C410.09,487.91,404.3,482.45,396.27,482.45ZM387.92,495c.65-4.5,3.86-7.07,8.35-7.07a7.74,7.74,0,0,1,8,7.07Z"/><path d="M430.17,488.45a10.28,10.28,0,0,1,5.08,1.4c1.33.79,3.45.72,4.31-.67a3,3,0,0,0-.73-4.18,14.86,14.86,0,0,0-8.66-2.62c-8.13,0-15.11,5.82-15.11,14.8s7,14.74,15.11,14.74a14.86,14.86,0,0,0,8.66-2.62,3,3,0,0,0,.73-4.17c-.86-1.4-3-1.46-4.31-.68a10.28,10.28,0,0,1-5.08,1.4,8.7,8.7,0,1,1,0-17.4Z"/><path d="M459.23,482.45c-7.7,0-14.44,5.77-14.44,14.77A14.46,14.46,0,0,0,459.23,512c8.36,0,15.11-6.1,15.11-14.78C474.34,488.22,467.59,482.45,459.23,482.45Zm0,23.45a8.38,8.38,0,0,1-8.34-8.68c0-5.46,3.86-8.67,8.34-8.67,4.83,0,8.68,3.21,8.68,8.67A8.45,8.45,0,0,1,459.23,505.9Z"/><path d="M281.9,318.12c16-5.16,48.58-20.11,58.2-58.32a8.2,8.2,0,0,0-16-3.74c-7.92,31-34.44,42.67-47.17,46.58a8.12,8.12,0,1,0,4.93,15.48Z"/><path d="M259.53,210.45a8.37,8.37,0,0,0,8.36-8.36V63a8.37,8.37,0,0,0-16.73,0V202.09A8.36,8.36,0,0,0,259.53,210.45Z"/><path d="M172.33,210.45a8.37,8.37,0,0,0,8.38-8.36V63A8.37,8.37,0,0,0,164,63V202.09A8.37,8.37,0,0,0,172.33,210.45Z"/><path d="M230.56,210.45a8.37,8.37,0,0,0,8.36-8.36V39.7a8.36,8.36,0,1,0-16.72,0V202.09A8.36,8.36,0,0,0,230.56,210.45Z"/><path d="M201.45,210.45a8.36,8.36,0,0,0,8.36-8.36V8.41a8.37,8.37,0,0,0-16.73,0V202.09A8.36,8.36,0,0,0,201.45,210.45Z"/><path d="M259.67,364.3a124.59,124.59,0,0,0,19.81-247.58v17.1a107.79,107.79,0,0,1-19.81,213.74c-59.45,0-108.08-49.18-108.08-108.61V118a8.37,8.37,0,0,0-16.73,0V241.57A125.23,125.23,0,0,0,259.67,364.3Z"/></svg>