<svg id="Layer_1" data-name="Layer 1" xmlns="http://www.w3.org/2000/svg" viewBox="0 0 64 64"><defs><style>.cls-1{fill:#fff;}</style></defs><title>V 64x64 whiteSVG</title><path class="cls-1" d="M14.82,51.91v6.48a1.06,1.06,0,0,0,1,1,1,1,0,0,0,1-1V51.92a1,1,0,0,0-2.08,0Z"/><path class="cls-1" d="M25.7,50.94a1,1,0,0,0-1,.71A4.06,4.06,0,0,0,22.54,51a4.2,4.2,0,1,0,2.12,7.81v.74a2.25,2.25,0,0,1-2.27,2.26,2.22,2.22,0,0,1-1.71-.77A1,1,0,0,0,19.23,61a1,1,0,0,0-.12,1.45,4.39,4.39,0,0,0,3.28,1.5,4.34,4.34,0,0,0,4.32-4.33V52A1,1,0,0,0,25.7,50.94Zm-3.17,6.43a2.15,2.15,0,0,1,0-4.3,2.15,2.15,0,0,1,0,4.3Z"/><path class="cls-1" d="M32.67,51a4.37,4.37,0,0,0-2.37.7V47.73a1,1,0,1,0-2,0l0,10.67a1,1,0,0,0,2,.31,4.19,4.19,0,0,0,2.4.74,4.25,4.25,0,1,0,0-8.49Zm0,6.46a2.22,2.22,0,1,1,2.22-2.21A2.21,2.21,0,0,1,32.65,57.42Z"/><path class="cls-1" d="M9.19,50.91a4.45,4.45,0,0,0-2.37.7V47.68a1,1,0,0,0-1-1,1,1,0,0,0-1,1l0,10.68a1,1,0,0,0,2,.3,4.25,4.25,0,1,0,2.42-7.75Zm0,6.46a2.22,2.22,0,1,1,2.22-2.21A2.21,2.21,0,0,1,9.17,57.37Z"/><path class="cls-1" d="M42.43,51a4.21,4.21,0,1,0,4.22,4.24A4.22,4.22,0,0,0,42.43,51Zm0,6.36a2.15,2.15,0,1,1,2.15-2.15A2.14,2.14,0,0,1,42.42,57.39Z"/><path class="cls-1" d="M59.23,54.31a3.32,3.32,0,0,0-5.6-2.25,3.42,3.42,0,0,0-2.32-.92,3.5,3.5,0,0,0-1.54.37.93.93,0,0,0-.77-.4,1,1,0,0,0-1,1l0,6.41a1,1,0,0,0,1,1,1,1,0,0,0,1-1V54.31a1.23,1.23,0,0,1,1.31-1.15,1.22,1.22,0,0,1,1.3,1.16V58.5a1,1,0,0,0,1,1,1,1,0,0,0,1-1V54.32a1.24,1.24,0,0,1,1.33-1.15,1.21,1.21,0,0,1,1.27,1.16v4.18a1,1,0,0,0,1,1,1,1,0,0,0,1-1v-4.2Z"/><path class="cls-1" d="M51.26,62.08a1.72,1.72,0,0,0-1.77-1.77,1.85,1.85,0,0,0,0,3.69,1.92,1.92,0,0,0,1.39-.56.34.34,0,0,0,0-.49.39.39,0,0,0-.5,0,1.2,1.2,0,0,1-.84.34,1,1,0,0,1-1.09-.89H50.9A.36.36,0,0,0,51.26,62.08Zm-2.82-.21A1,1,0,0,1,49.49,61a1,1,0,0,1,1,.88Z"/><path class="cls-1" d="M53.72,61.07a1.35,1.35,0,0,1,.64.17.4.4,0,0,0,.53-.08.37.37,0,0,0-.09-.52,1.87,1.87,0,0,0-1.08-.33,1.85,1.85,0,1,0,0,3.69,1.8,1.8,0,0,0,1.08-.33.37.37,0,0,0,.09-.52.4.4,0,0,0-.53-.08,1.35,1.35,0,0,1-.64.17,1.09,1.09,0,1,1,0-2.17Z"/><path class="cls-1" d="M57.37,60.31a1.85,1.85,0,1,0,1.85,1.84A1.79,1.79,0,0,0,57.37,60.31Zm0,2.93a1.09,1.09,0,1,1,1.08-1.09A1.05,1.05,0,0,1,57.37,63.24Z"/><path class="cls-1" d="M35.21,39.8a10.52,10.52,0,0,0,7.27-7.28,1,1,0,0,0-2-.46,8.42,8.42,0,0,1-5.89,5.81,1,1,0,1,0,.61,1.93Z"/><path class="cls-1" d="M31.37,8V25.32a1,1,0,0,0,2.09,0V8a1,1,0,0,0-2.09,0Z"/><path class="cls-1" d="M20.49,8V25.32a1,1,0,0,0,2.09,0V8a1,1,0,0,0-2.09,0Z"/><path class="cls-1" d="M27.76,5.05V25.32a1,1,0,0,0,2.09,0V5.05a1,1,0,1,0-2.09,0Z"/><path class="cls-1" d="M24.12,1.14V25.32a1,1,0,0,0,2.09,0V1.14a1,1,0,0,0-2.09,0Z"/><path class="cls-1" d="M32.44,45.57a15.55,15.55,0,0,0,2.47-30.91V16.8a13.45,13.45,0,0,1-2.47,26.68,13.6,13.6,0,0,1-13.5-13.56V14.82a1,1,0,1,0-2.08,0V30.25A15.62,15.62,0,0,0,32.44,45.57Z"/></svg>