<svg id="Layer_1" data-name="Layer 1" xmlns="http://www.w3.org/2000/svg" viewBox="0 0 96 96"><defs><style>.cls-1{fill:#fff;}</style></defs><title>V 96x96 whiteSVG</title><path class="cls-1" d="M22.23,77.87l0,9.72a1.57,1.57,0,0,0,3.13,0V77.87a1.56,1.56,0,0,0-3.12,0Z"/><path class="cls-1" d="M38.55,76.42a1.58,1.58,0,0,0-1.47,1,6,6,0,0,0-3.27-.94A6.3,6.3,0,1,0,37,88.25v1.11a3.4,3.4,0,0,1-3.41,3.39A3.36,3.36,0,0,1,31,91.59a1.49,1.49,0,0,0-2.16-.16,1.53,1.53,0,0,0-.18,2.16,6.47,6.47,0,0,0,11.39-4.23l0-11.41A1.54,1.54,0,0,0,38.55,76.42ZM33.8,86.05A3.23,3.23,0,1,1,37,82.83,3.23,3.23,0,0,1,33.8,86.05Z"/><path class="cls-1" d="M49,76.44a6.52,6.52,0,0,0-3.56,1l0-5.9a1.53,1.53,0,1,0-3.05,0l0,16a1.53,1.53,0,0,0,1.53,1.52,1.54,1.54,0,0,0,1.46-1.06A6.37,6.37,0,1,0,49,76.44Zm0,9.69a3.33,3.33,0,1,1,3.33-3.32A3.32,3.32,0,0,1,49,86.13Z"/><path class="cls-1" d="M13.78,76.37a6.55,6.55,0,0,0-3.55,1V71.53a1.53,1.53,0,1,0-3,0l0,16a1.52,1.52,0,0,0,1.53,1.52A1.54,1.54,0,0,0,10.15,88a6.27,6.27,0,0,0,3.6,1.12,6.37,6.37,0,1,0,0-12.74Zm0,9.69a3.33,3.33,0,1,1,3.33-3.32A3.32,3.32,0,0,1,13.76,86.06Z"/><path class="cls-1" d="M63.64,76.54A6.32,6.32,0,1,0,70,82.9,6.33,6.33,0,0,0,63.64,76.54Zm0,9.54a3.22,3.22,0,1,1,3.23-3.21A3.21,3.21,0,0,1,63.62,86.08Z"/><path class="cls-1" d="M88.84,81.47a4.87,4.87,0,0,0-4.92-4.74,4.93,4.93,0,0,0-3.48,1.35A5.07,5.07,0,0,0,77,76.72a5,5,0,0,0-2.32.55,1.4,1.4,0,0,0-1.16-.61A1.55,1.55,0,0,0,72,78.19l0,9.62a1.52,1.52,0,0,0,1.51,1.49A1.5,1.5,0,0,0,75,87.82V81.47a2,2,0,0,1,3.93,0v6.27a1.48,1.48,0,0,0,1.51,1.51,1.5,1.5,0,0,0,1.49-1.51V81.48a2,2,0,0,1,3.9,0v6.27a1.53,1.53,0,0,0,1.53,1.52,1.49,1.49,0,0,0,1.49-1.51v-6.3Z"/><path class="cls-1" d="M76.89,93.12a2.58,2.58,0,0,0-2.66-2.65,2.77,2.77,0,0,0,0,5.53,2.87,2.87,0,0,0,2.09-.84.52.52,0,0,0,0-.74.6.6,0,0,0-.75,0,1.84,1.84,0,0,1-1.26.51,1.55,1.55,0,0,1-1.63-1.33h3.69A.54.54,0,0,0,76.89,93.12Zm-4.23-.32a1.49,1.49,0,0,1,1.57-1.31,1.44,1.44,0,0,1,1.51,1.31Z"/><path class="cls-1" d="M80.58,91.61a2,2,0,0,1,1,.26.61.61,0,0,0,.8-.13A.56.56,0,0,0,82.2,91a2.77,2.77,0,0,0-1.62-.49,2.77,2.77,0,1,0,0,5.53,2.77,2.77,0,0,0,1.62-.49.56.56,0,0,0,.14-.78.6.6,0,0,0-.8-.13,2,2,0,0,1-1,.26,1.63,1.63,0,1,1,0-3.25Z"/><path class="cls-1" d="M86.05,90.47a2.77,2.77,0,0,0,0,5.53,2.77,2.77,0,1,0,0-5.53Zm0,4.39a1.63,1.63,0,1,1,1.62-1.64A1.57,1.57,0,0,1,86.05,94.86Z"/><path class="cls-1" d="M52.82,59.71c3-1,9.1-3.77,10.9-10.92a1.54,1.54,0,0,0-3-.7c-1.49,5.8-6.45,8-8.84,8.72a1.52,1.52,0,1,0,.93,2.9Z"/><path class="cls-1" d="M47.06,11.93V38a1.57,1.57,0,0,0,3.13,0v-26a1.57,1.57,0,1,0-3.13,0Z"/><path class="cls-1" d="M30.73,11.93V38a1.57,1.57,0,0,0,3.14,0v-26a1.57,1.57,0,1,0-3.14,0Z"/><path class="cls-1" d="M41.64,7.57V38a1.57,1.57,0,0,0,3.13,0V7.57a1.57,1.57,0,1,0-3.13,0Z"/><path class="cls-1" d="M36.18,1.71V38a1.57,1.57,0,0,0,3.14,0V1.71a1.57,1.57,0,1,0-3.14,0Z"/><path class="cls-1" d="M48.65,68.35A23.33,23.33,0,0,0,52.36,22v3.2A20.19,20.19,0,1,1,28.42,44.88V22.23a1.57,1.57,0,1,0-3.14,0V45.37a23.44,23.44,0,0,0,23.37,23Z"/></svg>